<svg width="975" height="5369" viewBox="0 0 975 5369" fill="none" xmlns="http://www.w3.org/2000/svg">
<path d="M8 8C8 250 1036 734 362 1478C157.975 1703.21 676 1992 630 2302C580.226 2425.23 428.476 2445.84 242 2662C-56.5601 3008.09 547.091 3064 738 3364C822 3496 814 3690 738 3788C662 3886 610 3858 392 4004C6 4306 80 4512 154 4708C238.361 4931.44 502 4958 706 4958C729.333 4958 794.4 4958 868 4958C960 4958 1098 5245 695 5240.5C372.6 5236.9 474.333 5319 565.5 5360.5" stroke="#F3E9C9" stroke-width="15" stroke-linecap="round" stroke-dasharray="1 30"/>
</svg>
