<svg xmlns="http://www.w3.org/2000/svg" viewBox="0 0 431.04 97.01"><g id="Layer_2" style="fill:white" data-name="Layer 2"><g id="Layer_2-2" data-name="Layer 2"><path d="M22.23,0C33.7,0,38.79,7.49,38.79,15.46c0,14.3-10.42,23.95-24,23.95C7.39,39.41,0,34.37,0,25.73,0,18.51,2.67,12.91,7.14,8.91,8.22,3.89,13.24,0,22.23,0ZM15,39.32c7.58,0,14.11-15.22,14.11-26.89,0-5.71-1.78-11.76-10-11.76C13.1.67,8.39,4,7.27,8.79A30,30,0,0,1,20.79,2.35v0C15.72,4.93,12.66,11.26,11,17.84a10.11,10.11,0,0,0,4.63,1.07c2.26,0,3.74-1.92,3.74-4.32a3.46,3.46,0,0,0-3.45-3.65C15.6,8,18.34,5.81,21.07,5.81c3.41,0,5.33,2.16,5.33,4.9,0,4.94-5.66,8.3-10.51,8.3A10.83,10.83,0,0,1,11,17.93,53.32,53.32,0,0,0,9.46,30.29c0,5.42,1.77,9,5.57,9Z"/><path d="M44.4,27.94,47,13.39c.34-1.87-.43-2.11-2-1.77v0a16,16,0,0,1,7.35-2c2.74,0,3.79,1.06,3.17,4.28L53.38,24.67h.09c3.22-12.19,6.29-15.4,11-15.4,4.37,0,6.05,3.07,6.05,5.8,0,3.65-2.49,6.34-6,6.34-2.74,0-4.7-1.68-4.66-4.46a3.66,3.66,0,0,0,3.32-3.65c0-1.59-.82-2.4-1.92-2.4-3,0-5.67,5.61-7.73,13.92C52.75,28.13,51.41,34.23,53,35v.05a30.56,30.56,0,0,1-4.18.39C45.07,35.48,43.34,33.84,44.4,27.94Z"/><path d="M97.87,24.63c-1.05,6.05-1.15,9.6,1,10.41v.05a18.51,18.51,0,0,1-3.55.34c-4,0-7.44-1.68-6.29-7.73l1.39-7.39h-.09c-2.93,12-6.39,15.17-10.71,15.17-5.09,0-6.81-4.52-6.81-8.84,0-9,7.73-17.18,16.27-17.18,2.78,0,4.66,2,7.44,2a5.4,5.4,0,0,0,3.94-1.68Zm-16.41,4.8c0,2.35.38,4.17,1.92,4.17,2.64,0,5.9-8.21,7.24-15.41l.53-2.83c.58-3.07.67-5.81-1.87-5.81C84.62,9.55,81.46,22.71,81.46,29.43Z"/><path d="M130.75,24.63c-1,6.05-1.15,9.6,1,10.41v.05a18.51,18.51,0,0,1-3.55.34c-4.08,0-7.39-1.63-6.43-7.73l2-12.58c.39-2.49.1-3.45-1.1-3.45-2.64,0-5.71,6-7.49,13.15-.82,3.31-2.16,9.41-.53,10.22v.05a30.57,30.57,0,0,1-4.17.39c-3.8,0-5.52-1.64-4.47-7.54l2.59-14.55c.34-1.87-.43-2.11-2-1.77v0a16,16,0,0,1,7.34-2c2.74,0,3.8,1.06,3.17,4.28L115,24.67h.1c3.21-12.24,7.48-15.21,11.8-15.21,6,0,5.62,5,5,8.35Z"/><path d="M136.94,40.47a4.25,4.25,0,0,1,4.37-4.42,3.89,3.89,0,0,1,4,4.32,2.9,2.9,0,0,0-2.4,2.93c0,1.3.82,2.93,3.65,2.93,4,0,4.9-3.36,5.62-7.2l3.46-18.72h-.1c-2.93,12-6.39,15.17-10.71,15.17-5.08,0-6.81-4.52-6.81-8.84,0-9,7.73-17.13,16.27-17.13,2.79,0,4.66,1.92,7.44,1.92a5.4,5.4,0,0,0,3.94-1.68l-4.13,24.67c-1.3,7.73-6.77,11.91-15,11.91C140.59,46.33,136.94,43.92,136.94,40.47Zm18.91-22.28.53-2.83c.58-3.07.68-5.76-1.87-5.76-4.66,0-7.82,13.11-7.82,19.83,0,2.35.38,4.17,1.92,4.17C151.25,33.6,154.51,25.39,155.85,18.19Z"/><path d="M170.11,25.11a15.45,15.45,0,0,1,15.6-15.65c6.24,0,9.41,2.11,9.41,5.23,0,4.27-5.86,6.86-15.41,5.14l0-.1a7.25,7.25,0,0,0,8.26-7c0-1.58-.72-3.22-2.31-3.22-4.13,0-6.72,6.82-6.72,12.1,0,5.47,2.35,8.55,6.91,8.55a9.75,9.75,0,0,0,7.92-4.13l.05.05c-3.26,6-8.49,9.36-14,9.36C174.48,35.48,170.11,31.78,170.11,25.11Z"/><path d="M250.61,29.81a3.23,3.23,0,0,0,2-.62l0,0c-2.4,5-6.28,6.19-9,6.19-3.65,0-7-2.07-9.73-5.12a14.18,14.18,0,0,1-11.05,5.17c-5.86,0-8.74-3.7-8.74-8.07,0-6.13,5.51-10,12.57-11.38a21.09,21.09,0,0,1-.57-4.55c0-6.24,4.8-10.32,11.33-10.32,4.7,0,6.14,2.06,6.14,4,0,2.91-2.89,5.4-8.4,7.26a37.49,37.49,0,0,0,4.54,9.26c-.26-7.38,3.52-11.82,8.14-11.82,4.41,0,6.76,2.64,6.76,6.63S252.15,24,247.39,24c-3.65,0-5.61-2.25-5.61-5A5.14,5.14,0,0,1,245,14.07a3.07,3.07,0,0,0,3,2c1.87,0,3.17-1,3.17-2.92a3.14,3.14,0,0,0-3.31-3.22c-4.6,0-8.36,4.45-8,11.86,3.11,4.54,7.07,8,10.82,8Zm-21,1.73a6.67,6.67,0,0,0,4.16-1.33,33.48,33.48,0,0,1-7.12-14.09c-2.38,1.12-3.52,4-3.52,7.5,0,4,2.11,7.92,6.48,7.92Zm4.42-25.2a20.57,20.57,0,0,0,1.07,6,10.41,10.41,0,0,0,4.35-8.14c0-1.59-.43-2.93-2.06-2.93-2,0-3.36,1.87-3.36,5.09Z"/><path d="M44.17,59.32c9.45-.72,16.5,4.22,16.5,13.55C60.67,86.69,52.32,95,39.84,95a33.82,33.82,0,0,1-7.06-.82v-.1a16.13,16.13,0,0,0,2.64.2C46.61,94.28,51,81.89,51,68.45c0-7-2.74-9.07-5.67-9.07-2.49,0-4,1.73-4.85,6.91l-4.12,26.4H22.75v0c3.79,0,4.66-3.45,5.42-8.59l2.5-16.37c1-6.33,8-7.68,12-7.87v-.05c-6.34,0-11.52-5.09-17.52-5.09-7.2,0-6.39,7.16-1.87,7.16a3.82,3.82,0,0,0,3.36-1.92A4.39,4.39,0,0,1,29.38,64c0,3.75-3.08,5.62-6.2,5.62-3.41,0-7-2.16-7-6.58,0-4.94,3.7-8.49,9-8.49,3,0,5.76,1.25,8.54,2.49s5.81,2.6,9,2.6c1.25,0,1.82-.77,1.82-1.44a1,1,0,0,0-1.1-1.06,1.42,1.42,0,0,0-1,.38,1.76,1.76,0,0,1-.77-1.48,2.45,2.45,0,0,1,2.64-2.31,2.4,2.4,0,0,1,2.55,2.55c0,1.49-1,2.39-2.73,3Z"/><path d="M90.53,82.23c-1.06,6-1.15,9.6,1,10.41v0a18.51,18.51,0,0,1-3.55.34c-4,0-7.44-1.68-6.29-7.73L83,77.91h-.1c-2.92,12-6.38,15.17-10.7,15.17-5.09,0-6.82-4.52-6.82-8.84,0-9,7.73-17.18,16.28-17.18,2.78,0,4.65,2,7.44,2a5.34,5.34,0,0,0,3.93-1.69ZM74.11,87c0,2.35.39,4.17,1.92,4.17,2.64,0,5.91-8.21,7.25-15.41L83.81,73c.57-3.07.67-5.81-1.87-5.81C77.28,67.15,74.11,80.31,74.11,87Z"/><path d="M98.64,85.54,101.23,71c.34-1.87-.43-2.11-2-1.77v0a16,16,0,0,1,7.35-2c2.74,0,3.79,1.06,3.17,4.28l-2.11,10.84h.09c3.22-12.19,6.29-15.4,11-15.4,4.37,0,6,3.07,6,5.8,0,3.65-2.49,6.34-6,6.34-2.74,0-4.7-1.68-4.66-4.46a3.66,3.66,0,0,0,3.32-3.65c0-1.59-.82-2.4-1.92-2.4-3,0-5.67,5.61-7.73,13.92-.82,3.31-2.16,9.41-.53,10.22v0a30.7,30.7,0,0,1-4.18.39C99.31,93.08,97.58,91.44,98.64,85.54Z"/><path d="M141,86.45c-.67-3.79-1.05-6.43-3-6.43v0c3.26-1.1,7.58-4.51,7.58-8.59,0-1.39-.53-2.11-1.39-2.11-2.64,0-5.71,6-7.49,13.15-.81,3.31-2.16,9.41-.53,10.22v0a30.57,30.57,0,0,1-4.17.39c-3.8,0-5.43-1.64-4.47-7.54L132,58.61c.29-1.87-.43-2.11-2-1.78v0a16,16,0,0,1,7.35-2c2.78,0,3.69,1,3.17,4.27l-3.94,23.23h.1c3.21-12.24,7.48-15.21,11.9-15.21,3.7,0,5.42,2.06,5.42,4.61,0,4.84-4.84,6.62-15.55,8.25v0a24.28,24.28,0,0,1,6.15-.1c4.17.63,5.23,4.23,6.19,7.49.86,2.93,1.39,4.8,3.26,5.28v0a30.51,30.51,0,0,1-5.61.67C144.48,93.36,142,92.12,141,86.45Z"/><path d="M193.44,96.92c5.95,0,11.18-4.18,11.18-11.38,0-4.23-2.54-7.35-5.71-7.35a4,4,0,0,0-4.08,4.28,3.46,3.46,0,0,0,3.46,3.65c.33,2.92-2.4,5.13-5.14,5.13-3.41,0-5.33-2.16-5.33-4.9,0-4.94,5.67-8.3,10.52-8.3s8.25,2.69,8.25,7.49C206.59,92,202,97,193,97c-10.28,0-18.1-6-18.1-16,0-12.1,8.74-23.33,23.47-23.33,5.72,0,10.85,2.45,10.85,7.3a5.73,5.73,0,0,1-5.9,6c-2.4,0-5-1.59-4.37-5.28a4.14,4.14,0,0,0,3.41-4.09,3.65,3.65,0,0,0-3.94-3.84c-8.11,0-13.87,16.71-13.87,27.75C184.56,92,186.48,96.92,193.44,96.92Z"/><path d="M238,82.23c-1,6-1.15,9.6,1,10.41v0a18.44,18.44,0,0,1-3.55.34C231.31,93,228,91.4,229,85.3l2-12.58c.39-2.49.1-3.45-1.1-3.45-2.64,0-5.71,6-7.49,13.15-.81,3.31-2.16,9.41-.53,10.22v0a30.57,30.57,0,0,1-4.17.39c-3.79,0-5.43-1.64-4.47-7.54l4.42-26.93c.29-1.87-.43-2.11-2-1.78v0a16,16,0,0,1,7.35-2c2.73,0,3.69,1,3.17,4.27l-3.94,23.23h.1C225.5,70,229.77,67.06,234.1,67.06c6,0,5.61,5,5,8.35Z"/><path d="M272.54,78c0,8-7.15,15.13-15.74,15.13-6.87,0-11.62-4.52-11.62-10.85,0-8.36,7.11-15.17,15.7-15.17C267.79,67.06,272.54,71.57,272.54,78Zm-8.73-5.18c0-3.36-.68-5.62-2.93-5.62-5.28,0-7,15.65-7,20.31,0,3.31.77,5.52,2.88,5.52C262.13,93,263.81,77.91,263.81,72.77Z"/><path d="M287.52,79.25c0,5.47,2.35,8.54,6.91,8.54a9.77,9.77,0,0,0,7.92-4.12l0,0c-3.27,6-8.5,9.37-14,9.37s-9.74-3.7-9.74-10.37a15.45,15.45,0,0,1,15.6-15.65c5.57,0,9.26,2.25,9.26,6.14a4.91,4.91,0,0,1-4.94,5.09,3.77,3.77,0,0,1-3.94-4.37,4,4,0,0,0,2.4-3.6c0-2-1.06-3.17-2.78-3.17C290.11,67.15,287.52,74,287.52,79.25Z"/><path d="M335.81,78c0,8-7.16,15.13-15.75,15.13-6.86,0-11.62-4.52-11.62-10.85,0-8.36,7.11-15.17,15.7-15.17C331.05,67.06,335.81,71.57,335.81,78Zm-8.74-5.18c0-3.36-.67-5.62-2.93-5.62-5.28,0-7,15.65-7,20.31,0,3.31.77,5.52,2.88,5.52C325.39,93,327.07,77.91,327.07,72.77Z"/><path d="M341,85.3l4.37-26.69c.28-1.87-.44-2.11-2-1.78v0a16,16,0,0,1,7.34-2c2.74,0,3.7,1,3.17,4.27L350,82.27c-1,6-1.1,9.56,1,10.37v0a18.51,18.51,0,0,1-3.55.34C343.34,93,340,91.4,341,85.3Z"/><path d="M382.37,82.23c-1.06,6-1.16,9.6,1,10.41v0a18.61,18.61,0,0,1-3.56.34c-4,0-7.44-1.68-6.29-7.73l1.4-7.39h-.1c-2.93,12-6.38,15.17-10.7,15.17-5.09,0-6.82-4.52-6.82-8.84,0-9,7.73-17.18,16.27-17.18,2.79,0,4.66,2,7.44,2a5.36,5.36,0,0,0,3.94-1.69ZM366,87c0,2.35.38,4.17,1.92,4.17,2.64,0,5.9-8.21,7.25-15.41l.52-2.83c.58-3.07.68-5.81-1.87-5.81C369.12,67.15,366,80.31,366,87Z"/><path d="M392.59,67.54h-2.11v-.1c6.91,0,11-2.26,12.24-9.07h.09l-1.53,9.07h3.36v.1h-3.36l-2.45,14.93c-1.15,7-1.11,9.36,1.49,10.17v0a28.33,28.33,0,0,1-4,.34c-4.08,0-7.39-1.63-6.43-7.73Z"/><path d="M406,82.71a15.45,15.45,0,0,1,15.6-15.65c6.24,0,9.41,2.11,9.41,5.23,0,4.27-5.86,6.86-15.41,5.14l.05-.1a7.24,7.24,0,0,0,8.25-7c0-1.58-.72-3.22-2.3-3.22-4.13,0-6.72,6.82-6.72,12.1,0,5.47,2.35,8.54,6.91,8.54a9.77,9.77,0,0,0,7.92-4.12l.05,0c-3.27,6-8.5,9.37-14,9.37C410.4,93.08,406,89.38,406,82.71Z"/></g></g></svg>