<svg xmlns="http://www.w3.org/2000/svg" style="fill:white" viewBox="0 0 453.7 124.2">
      <path class="cls-1" d="M21.6 24.6c2.6.3 10.4 2.2 10.5 10 .1 4.2 1 6.4 1.8 7.5l3.7-2.4s.2.2.2.8c0 2-1.7 4.4-5.5 4.4-4.6 0-6.6-3.2-6.7-10.2a9 9 0 00-3.2-7.2 14.5 14.5 0 00-6.9-2.5h-2v9.2c0 6.6 3.1 8.3 3.1 8.3a6 6 0 01-5.1 2.5c-3 0-4.4-1.6-4.6-6.1L6.5 6.7a11.8 11.8 0 00-3.7 1.9.6.6 0 01-.2-.6C2.6 6.5 8 2.6 18 2.6c8.6 0 14.4 4 14.4 10.1 0 6.8-5 10.6-10.7 11.9zm-4.3-.9c4.4 0 8-5.2 8-11.3 0-4-1.7-8.5-7.6-8.5a23 23 0 00-4.1.4v19a22.5 22.5 0 003.8.4zM59.8 29.2a48.1 48.1 0 00.3-5.1c-.1-4.6-1.3-8.5-5.2-8.5a10.1 10.1 0 00-4.9 1.2 8.3 8.3 0 00-.1 1.7 18.1 18.1 0 001.4 5.6 5.2 5.2 0 01-3 .6c-2.7 0-4.1-1.4-4.2-3.4-.1-4 6.2-6.8 11.6-6.8 6.2 0 11.3 2.6 11.5 8.7 0 1.2-.1 2.8-1.2 11.3a11.6 11.6 0 00-.2 2.5c.1 3.2 1.2 4.4 2.2 4.8a10.6 10.6 0 002.6-2.6 1.2 1.2 0 01.3.9c0 2-2.2 4.8-6 4.8-4.3 0-5.4-5-5.4-8.5-.6 3.7-3.4 8.5-8.2 8.5-4 0-6.9-4.4-7-8.8 0-5.6 3.1-8.7 9.5-8.7a9 9 0 016 1.8zm0 1.1a5.9 5.9 0 00-4.4-1.7c-2.5 0-4.7 2.9-4.7 5.9s1.6 4.8 4 4.8c3.2 0 4.5-4.8 5-9zM84.9 43.9c3.8 0 6.5-2.4 6.5-6.5.1-5.1-15.2-4.3-15.2-14 0-6.5 7-9 11.6-9 3.7 0 9.1 1.3 9.1 5.6 0 2.6-1.9 4.1-4.7 4.2a5 5 0 01-1.5-.2 21 21 0 001.1-7v-.8a7.9 7.9 0 00-3.3-.7c-4.1 0-5.8 2.5-5.8 5.7 0 6.7 15 4.1 15.1 14.1 0 6.1-5.5 9.6-12.8 9.6-3.6 0-9.1-1.3-9.1-6a4.2 4.2 0 014.3-4.4 4.5 4.5 0 012.3.8 21.4 21.4 0 00-2 7.5 8.6 8.6 0 004.4 1zM119 44.9a9 9 0 01-5-1.2c.4 5.4.1 9.7 2.1 14.2a3.3 3.3 0 01-3 1.5c-3 0-5-1.4-5-6l-.1-21.7V18.2a10.7 10.7 0 00-3.9 1.8c-.1 0-.2-.2-.2-.5 0-3.2 8.2-5 10.3-5a1.4 1.4 0 011.4 1.6l-1 10.8c1.9-6.9 5.3-12.4 9.4-12.4 5.7 0 9 4.6 9 12 0 11-6.8 18.4-14 18.4zm-.7-1.4c3 0 8-5.2 8-17.7 0-7-1.6-9-3.6-9-3.5 0-7.7 10.1-8.2 15a59.1 59.1 0 00-.5 8v1.5c0 1 1 2.2 4.4 2.2zM151.2 45c-5 0-9.1-1-9.1-4.7V24.3 12.6 3.7a9 9 0 00-3.6 1.8s-.3-.2-.3-.6c0-3.2 8.1-4.9 10.1-4.9a1.4 1.4 0 011.5 1.6l-1.5 25.2c1.5-6.7 5.3-12.3 9.4-12.3 5.6 0 8.8 5 8.8 12.4 0 12.7-9 18-15.3 18zm5.4-28c-3 0-8 8.1-8.3 14.3v8.6c0 1.8 0 3.6 3.2 3.6 3.7 0 8.2-5.4 8.2-18 0-4.6-.7-8.5-3.1-8.5zM182.9 29.7c.2 8.2 4 12.8 7.5 12.8 3.8 0 6.3-3.9 7.4-8.2 0 0 .6.1.6.9 0 4-3 9.7-10.6 9.7s-12.5-6.7-12.7-14.2c-.1-9 4.8-16.2 14.3-16.2 2.7 0 8 1.5 8 7 .1 4.3-3.6 8.9-9.6 8.9a16.6 16.6 0 01-5-.7zm-.1-.9a9 9 0 002 .3c3.7 0 6.1-3.5 6-8.3 0-3-.6-5.3-2.6-5.3-2.5 0-5.4 4.5-5.4 13.3zM207.8 38.8l.4-20.5a10.4 10.4 0 00-3.8 1.8c-.2 0-.3-.1-.3-.5 0-3.2 8.2-5.1 9.6-5.1.9 0 1.6.5 1.6 1.3a28.5 28.5 0 00-.6 4l-.4 4.3c.9-4 3-9.6 8-9.6a4 4 0 014.2 3.8c0 3.2-3 4.4-4.6 5 0 0 0-3.8-2.5-3.8-3.2 0-5.5 7.3-5.4 17 .1 4.6 1.6 7 1.6 7a4.9 4.9 0 01-3.5 1.5c-4 0-4.2-1.7-4.3-6.3zM233.8 38.8l.5-20.5a10.4 10.4 0 00-3.8 1.8c-.2 0-.3-.1-.3-.5 0-3.2 8.2-5.1 9.6-5.1.9 0 1.5.5 1.5 1.3a28.5 28.5 0 00-.6 4l-.3 4.3c.9-4 2.9-9.6 8-9.6a4 4 0 014.1 3.8c0 3.2-3 4.4-4.5 5 0 0 0-3.8-2.5-3.8-3.2 0-5.5 7.3-5.4 17 0 4.6 1.6 7 1.6 7a4.9 4.9 0 01-3.5 1.6c-4-.1-4.2-1.8-4.3-6.4zM281.6 44.9c0 11.5-9.8 14.5-15 14.5-4.8 0-8.3-2.4-8.3-6a5.1 5.1 0 015-5.3 2.8 2.8 0 012.3 1 11.4 11.4 0 00-3.2 7.7c0 .2 2.1 1.2 3.8 1.2 3.7 0 9.7-2.3 9.7-13.1l.3-7.3.2-9.9c-2 8.4-3.4 17-10.6 17-3.2 0-6.1-2.4-6.1-7.3l.4-19a10 10 0 00-3.8 1.8c-.2 0-.3-.2-.3-.6 0-3.1 8.3-5 9.7-5a1.4 1.4 0 011.6 1.3c0 .4-.6.8-1.2 11.2l-.2 4.5c0 4.8-.1 10.3 2 10.3 3.9 0 7.8-14.5 7.8-20.4a27.7 27.7 0 00-.7-5.8 8.2 8.2 0 014.3-1.2c1.7 0 3.3.7 3.3 3.2 0 9-1 24.8-1 27.2zM343.8 22.8a.8.8 0 01.2.6c0 .9-3 1.8-7 2-.1 4.6-.5 19.6-15.5 19.6-7 0-11.6-3.5-11.8-9.5-.2-5.7 3.4-9.8 7.4-12.3-3-1.6-5.7-4.3-5.7-8.4-.1-7 9-11.7 18.3-11.7 3 0 5.4 1.4 5.4 3.8.2 4-4.4 6.8-7.7 6.1a44.4 44.4 0 002.5-4.6 17.7 17.7 0 001-3.9c-8 .3-13.3 5-13.2 11.6 0 2.8 1 4.6 2.5 5.6a15.2 15.2 0 015.2-1.2c3 0 3.7 1.2 3.7 1.2 0 1.7-2.9 3.1-5.6 3.1a12.7 12.7 0 01-3.7-.6c-2.2 2.3-3.6 5.8-3.5 10.5s2.7 7.8 6.4 7.8c9.9 0 12.1-11.7 13.2-17.1l-6.4-.2a3.6 3.6 0 01-.1-.7c0-.9 1.6-1.5 7.6-1.3 2.1 0 6.8-.4 6.8-.4zm-21.8-.4a9.2 9.2 0 002.6.3 6.1 6.1 0 002.8-1 4.7 4.7 0 00-1.9-.2 7.5 7.5 0 00-3.5 1zM55 93c0 7.5-4.4 31.2-17 31.2a9.3 9.3 0 01-7-3.8 9.2 9.2 0 01-7.8 3.8C8 124.2 6.7 88 6.7 88a19.2 19.2 0 00-6.4 3.3c-.1 0-.2-.3-.3-1 0-4.2 10.4-8.2 12.7-8.2 1.2 0 2.5.8 2.5 1.8V88c0 18.3 5.5 31.9 11.1 31.9 1.2 0 1.9-.5 3-1.9a38.8 38.8 0 01-4.5-17.5C24.8 87.7 31 87 33.6 87c1.6 0 4.6 2.4 4.6 10a47.8 47.8 0 01-4.5 19c1.2 2.8 3 4.6 5.5 4.6 4.5 0 8.2-13.8 8.2-22.2 0-10.8-5.1-13.6-5.1-13.6a11.7 11.7 0 015.5-2.2c3.6 0 7.2.3 7.2 10.3zm-22.4 20a43 43 0 003.5-15.6c0-5.1-1.5-7.2-2.1-8.1-.4.6-2.9 2.8-2.9 11.2a52.8 52.8 0 001.5 12.6zM61 84.7s-.2-.2-.2-.5a2 2 0 01.5-1.2c2.2-2.5 7.5-3.8 9.8-3.8a1.4 1.4 0 011.5 1.5c0 .5-.9 15.7-1.8 25.5 1.3-3.7 4-12.5 10.7-12.5 3.3 0 5.8 2.5 5.8 7.3s-1.2 8.8-1.2 13.7c0 3.3 1 5.8 2 6.2a12 12 0 002.7-2.5s.3.2.3.8c0 2-2.7 5-6.4 5-5 0-5.3-6-5.3-9.5 0-4.4 2.7-18.2-.4-18.2-3.5 0-8.3 10.3-8.4 19 0 4.8 1.4 7.2 1.4 7.2a5 5 0 01-3.5 1.5c-3 0-4.3-1.7-4.2-6.2l.7-35a10.7 10.7 0 00-4 1.7zM106.1 113.6c0 4.4.6 7 1.7 7.5a13.3 13.3 0 002.9-2.7s.2.2.2.8a5 5 0 01-5.4 5c-4.8 0-5.4-4.6-5.4-7.8 0-8 .3-15 .5-19a10.5 10.5 0 00-3.8 1.6c-.2 0-.3-.2-.3-.5 0-3.3 7.8-4.8 9-4.8a1.4 1.4 0 011.6 1.4c0 .4-.3 2.5-.8 12.9l-.2 5.6zm1.5-27.4c0 2.5-1.4 4.3-3.8 4.3a3.5 3.5 0 01-3.4-3.6c0-2.6 1.5-4.4 3.8-4.4a3.5 3.5 0 013.4 3.7zM119.4 114.6l.2-10.5v-5-2.4H114l-.2-.8c0-.6.9-1.3 5.7-1.3-.3-3.9-.6-6.8-1.6-8.1A5.6 5.6 0 01122 85c2.8 0 4.7 2 4.7 6l-.2 3.6c3 0 7-.3 7-.3a.7.7 0 01.2.5c0 .8-3 1.6-7.4 1.8-.4 5.8-1 15.3-1 19 0 3.6.5 6 2.7 6s4-1.3 5.1-5.5c0 0 .6 0 .6 1 0 3.8-2.7 7-7.7 7-7.2 0-6.7-6.1-6.7-9.5zM147 109c.2 8.2 4.1 12.8 7.5 12.8 3.8 0 6.3-3.9 7.5-8.2 0 0 .5 0 .5.9 0 4-3 9.7-10.6 9.7s-12.5-6.7-12.6-14.2c-.2-9 4.7-16.2 14.2-16.2 2.8 0 8 1.5 8.1 7 0 4.3-3.7 8.8-9.7 8.8a16.6 16.6 0 01-4.9-.6zm0-.9a8.5 8.5 0 002 .2c3.6 0 6-3.4 6-8.2 0-3-.6-5.3-2.7-5.3-2.5 0-5.3 4.4-5.3 13.3zM183.8 104c0-12.6 7.6-22.2 21.3-22.2 4.7 0 11.2 1 11 6.4a4.2 4.2 0 01-3.9 4.4 8.1 8.1 0 01-3.2-.6 11.3 11.3 0 001.5-5.5 6.8 6.8 0 00-.5-2.6 12.8 12.8 0 00-3.3-.5c-10.3 0-15.2 10-15 20.7.3 11 4.9 18.5 12.2 18.5a11.7 11.7 0 0010.8-8.6 1 1 0 01.6 1c0 4.5-5.6 9.2-11.8 9.2-15 0-19.7-10.4-19.7-20.2zM222.7 84.7l-.1-.5a2.1 2.1 0 01.4-1.2c2.3-2.5 7.5-3.8 9.9-3.8a1.4 1.4 0 011.4 1.5c0 .5-.8 15.7-1.7 25.5 1.2-3.7 4-12.5 10.6-12.5 3.3 0 5.8 2.5 5.8 7.3s-1.2 8.8-1.2 13.7c0 3.3 1 5.8 2 6.2a12 12 0 002.7-2.5c.1 0 .3.2.3.8 0 2-2.6 5-6.4 5-5 0-5.3-6-5.3-9.5 0-4.4 2.8-18.2-.4-18.2-3.5 0-8.2 10.3-8.4 19 0 4.8 1.5 7.2 1.5 7.2a5 5 0 01-3.6 1.5c-3 0-4.2-1.7-4.2-6.2l.7-35a10.7 10.7 0 00-4 1.7zM259.2 109.1c0-10.8 7-15.4 13.4-15.4s13.4 4.8 13.4 15.4c0 11.2-7 14.7-13.4 14.7s-13.4-3.5-13.4-14.7zm13.4 13.4c3.6 0 6.3-5.5 6.3-13.4s-2.6-14-6.3-14c-4 0-6.2 6.2-6.2 14s2.5 13.4 6.2 13.4zM307.1 94.8c-3.8 0-6.3 5.2-6.2 14 .2 8.4 4 13 7.2 13 4 0 6.7-4 7.8-8.2 0 0 .6.1.6 1 0 4.4-3.7 9.7-10.6 9.7-7.7 0-12.6-6.8-12.7-14.2-.2-9.5 4.6-16.3 15-16.3 4.6 0 7.4 2.4 7.5 5.8a4.2 4.2 0 01-4 4.4 8 8 0 01-3.2-.7A11.2 11.2 0 00310 98a8 8 0 00-.4-2.7 5 5 0 00-2.4-.4zM323.4 109.1c0-10.8 6.9-15.4 13.4-15.4s13.4 4.8 13.4 15.4c0 11.2-7 14.7-13.4 14.7s-13.4-3.5-13.4-14.7zm13.4 13.4c3.6 0 6.3-5.5 6.3-13.4s-2.6-14-6.3-14c-4 0-6.3 6.2-6.3 14s2.6 13.4 6.3 13.4zM367.2 80.5c0 1.2-1.4 20.8-1.4 31 0 6.5.3 9 1.8 9.6a11.8 11.8 0 002.8-2.7 1.2 1.2 0 01.3.8c0 2-2.2 5-6 5-6.6 0-5.5-8.5-5.5-11.8 0-5.6.3-25.6.5-29.5a10.7 10.7 0 00-3.9 1.7c-.1 0-.2-.2-.2-.6 0-3.2 8.6-4.8 10.1-4.8a1.3 1.3 0 011.5 1.3zM392.3 108.5a46.7 46.7 0 00.3-5.2c-.1-4.6-1.3-8.5-5.2-8.5a10.1 10.1 0 00-5 1.3 8.3 8.3 0 000 1.7 18.1 18.1 0 001.3 5.5 5.2 5.2 0 01-3 .7c-2.6 0-4-1.5-4.1-3.4 0-4 6.2-6.9 11.6-6.9 6.3 0 11.4 2.7 11.5 8.8 0 1.1 0 2.8-1.2 11.2a11.6 11.6 0 00-.1 2.5c0 3.3 1.1 4.4 2.1 4.8a10.6 10.6 0 002.6-2.5s.3.2.3.8c0 2-2.2 4.9-6 4.9-4.3 0-5.3-5.1-5.4-8.6-.6 3.7-3.4 8.6-8.1 8.6-4 0-7-4.5-7-8.9 0-5.5 3-8.7 9.4-8.7a9 9 0 016 1.9zm0 1a5.9 5.9 0 00-4.3-1.6c-2.5 0-4.8 2.8-4.7 5.8s1.5 4.9 3.8 4.9c3.3 0 4.6-4.8 5.1-9zM410.6 114.6l.2-10.5v-5-2.4h-5.6c-.2-.4-.3-.5-.3-.8 0-.6 1-1.3 5.8-1.3-.3-3.9-.6-6.8-1.7-8.1a5.6 5.6 0 014.3-1.5c2.8 0 4.7 2 4.7 6l-.2 3.6c3 0 7-.3 7-.3a.7.7 0 01.2.5c0 .8-3 1.6-7.4 1.8-.4 5.8-1 15.3-1 19 0 3.6.5 6 2.7 6s4-1.3 5.1-5.5c0 0 .6 0 .6 1 0 3.8-2.7 7-7.7 7-7.2 0-6.7-6.1-6.7-9.5zM438.2 109c.3 8.2 4.1 12.8 7.6 12.8 3.7 0 6.3-3.9 7.4-8.2 0 0 .5 0 .5.9.1 4-3 9.7-10.5 9.7s-12.6-6.7-12.7-14.2c-.2-9 4.8-16.2 14.3-16.2 2.7 0 8 1.5 8 7 0 4.3-3.6 8.8-9.6 8.8a16.6 16.6 0 01-5-.6zm0-.9a8.5 8.5 0 002 .2c3.7 0 6.1-3.4 6-8.2 0-3-.6-5.3-2.7-5.3-2.5 0-5.3 4.4-5.3 13.3z"/>
</svg>