<svg xmlns="http://www.w3.org/2000/svg" viewBox="0 0 378.68 57.27" style="fill:white; width: 75%;"><path d="M36,47H20.86c-.71-10.52-1.43-12.83-4.4-12.83H15.1L15,37.44c.06,3.21.17,6.72.41,9.63H0c.3-2.91.36-6.42.42-9.63v-25C.36,9.27.3,5.77,0,2.85H17.89C32,2.85,34.41,8.68,34.41,17c0,5.88-2,9.27-5.53,11.23C33.94,29.36,34.59,35.48,36,47ZM16.76,22.88c2.67.06,3.51-1.19,3.51-4.46s-.84-4.57-3.51-4.45L15.1,14v8.73Z"/><path class="cls-1" d="M42.08,29.12c0-13.13,5.52-18.6,17.41-18.6S76.78,16,76.78,29.12,71.32,47.78,59.49,47.78,42.08,42.32,42.08,29.12Zm20.26,0c0-4.75-.89-6.24-2.85-6.24s-2.91,1.49-2.91,6.24.89,6.24,2.91,6.24S62.34,33.88,62.34,29.12Z"/><path class="cls-1" d="M84.51,29.06c0-13.07,6.65-18.54,17.29-18.54,5.35,0,9.75,1.13,13,4.64,1.72,1.9,2.14,5.64,2.14,7.9a22.47,22.47,0,0,1-1.25,6.66l-13,.29A45.11,45.11,0,0,0,103,25.5c0-1.49-.59-2.32-2.08-2.32-1.72,0-2.2,1.31-2.2,5.41,0,4.93,1.73,6.53,6.78,6.53A33.93,33.93,0,0,0,117.08,33v12c-2.68,1.43-8.56,2.73-13.73,2.73C90.09,47.78,84.51,43.33,84.51,29.06Z"/><path class="cls-1" d="M145.25,47a60.29,60.29,0,0,0-4.76-13.07v3.5c.06,3.21.18,6.72.42,9.63H125.69c.24-2.91.36-6.42.42-9.63l-.06-27.28c0-3.21-.12-6.71-.36-9.62h.42L140.49,0h.42c-.18,2.91-.36,6.42-.42,9.63V20.27a42.18,42.18,0,0,0,4.4-9h16.58a124.18,124.18,0,0,1-9.33,15.93A69.12,69.12,0,0,1,161.89,47Z"/><path class="cls-1" d="M168.06,45.47c4.1,1.19,10.76.35,12.07-3.15h-6.42c-2.32-8.32-5.59-22.53-7.37-31h15.27c.6,5.11,2,13.32,2.86,19.32h.18c1.24-6,2.61-14.21,3.26-19.32H200c-1.78,8.8-6.48,27.52-8.56,32.21-3.68,8.8-7.37,12.55-13.55,13.38a59.37,59.37,0,0,1-10.28.29Z"/><path class="cls-1" d="M256.5,47H241.34c-.71-10.52-1.43-12.83-4.4-12.83h-1.36l-.06,3.32c.06,3.21.17,6.72.41,9.63H220.48c.3-2.91.36-6.42.42-9.63v-25c-.06-3.21-.12-6.71-.42-9.63h17.89c14.08,0,16.52,5.83,16.52,14.15,0,5.88-2,9.27-5.53,11.23C254.42,29.36,255.07,35.48,256.5,47ZM237.24,22.88c2.67.06,3.51-1.19,3.51-4.46s-.84-4.57-3.51-4.45l-1.66.06v8.73Z"/><path class="cls-1" d="M262.55,29.12c0-13.13,5.53-18.6,17.42-18.6s17.29,5.47,17.29,18.6S291.8,47.78,280,47.78,262.55,42.32,262.55,29.12Zm20.27,0c0-4.75-.89-6.24-2.85-6.24s-2.91,1.49-2.91,6.24.89,6.24,2.91,6.24S282.82,33.88,282.82,29.12Z"/><path class="cls-1" d="M336.43,37.38c0,3.21.12,6.72.35,9.63H323l-.59-3.45a10.2,10.2,0,0,1-8.26,4.28c-5.41.12-9.33-3.86-9.39-11.59.06-7.31,3-9.74,9.21-10.4a73.29,73.29,0,0,1,8.14-.17c0-2-.89-3.15-2.85-3.1a79.88,79.88,0,0,0-12.36,1.79l-.48-12.9c5.89-.42,13.08-1,17.3-1,10.34.12,12.72,3.45,12.72,13.25ZM322.1,34.77V31.44l-1.3.06c-1.91.18-2.68.89-2.68,2.14s.42,2,1.78,2A3,3,0,0,0,322.1,34.77Z"/><path class="cls-1" d="M378.26,37.44c.06,3.21.12,6.72.42,9.63H364.12V44.22a10.58,10.58,0,0,1-8.38,3.56c-7.37,0-10.76-5.46-10.76-18.12,0-13.61,3.39-19.2,11.65-19.2A9.06,9.06,0,0,1,364.12,14V10.7c-.06-3.21-.12-6.72-.42-9.63h.48l14-.53h.47c-.18,2.91-.36,6.41-.42,9.62Zm-14.14-3V24.25a3.9,3.9,0,0,0-1.9-.65c-1.79-.06-2.68,1.07-2.68,5.88,0,3.62.42,5.53,2.68,5.53A3.11,3.11,0,0,0,364.12,34.41Z"/></svg>