<svg xmlns="http://www.w3.org/2000/svg" viewBox="0 0 113.49 11.17"><defs><style>.cls-1{fill:#b1977b;}.cls-2{fill:#f3e9c9;}</style></defs><g id="Layer_2" data-name="Layer 2"><g id="Layer_1-2" data-name="Layer 1"><path class="cls-1" d="M113.33,11.17H73.47a3,3,0,0,1-2.17-.44C67.2,7.29,63.06,3.9,59,.51c.3-.71.81-.46,1.18-.46C73.06,0,86,.06,98.89,0c1.18,0,1.76.72,2.49,1.28,4.06,3.13,8.08,6.31,12.11,9.48Z"/><path class="cls-2" d="M.33,0Q20,0,39.73,0c1.13,0,1.64.74,2.35,1.28q5.55,4.23,11.05,8.52a2,2,0,0,1,.92,1.12c-.43.35-.93.16-1.39.16-12.7,0-25.4,0-38.1,0a4.37,4.37,0,0,1-3-1Q6.49,5.82,1.37,1.56C.92,1.19.46.84,0,.48Z"/></g></g></svg>