<svg width="114" height="12" viewBox="0 0 114 12" fill="none" xmlns="http://www.w3.org/2000/svg">
<g clip-path="url(#clip0)">
<path d="M113.33 11.17H73.47C72.717 11.3054 71.9408 11.148 71.3 10.73C67.2 7.29 63.06 3.9 59 0.51C59.3 -0.2 59.81 0.05 60.18 0.05C73.06 0 86 0.06 98.89 0C100.07 0 100.65 0.72 101.38 1.28C105.44 4.41 109.46 7.59 113.49 10.76L113.33 11.17Z" fill="#B1977B"/>
<path d="M0.33 0C13.4433 0 26.5767 0 39.73 0C40.86 0 41.37 0.74 42.08 1.28C45.78 4.1 49.4633 6.94 53.13 9.8C53.5659 10.0452 53.8942 10.4448 54.05 10.92C53.62 11.27 53.12 11.08 52.66 11.08C39.96 11.08 27.26 11.08 14.56 11.08C13.4702 11.1329 12.4001 10.7761 11.56 10.08C8.18 7.24 4.78333 4.4 1.37 1.56C0.92 1.19 0.46 0.84 0 0.48L0.33 0Z" fill="#1C1C1C"/>
</g>
<defs>
<clipPath id="clip0">
<rect width="113.49" height="11.17" fill="white"/>
</clipPath>
</defs>
</svg>
