<svg xmlns="http://www.w3.org/2000/svg" viewBox="0 0 46.2 43.12"><defs><style>.cls-1{fill:#fca5a5;}</style></defs><g id="Layer_2" data-name="Layer 2"><g id="Layer_1-2" data-name="Layer 1"><path class="cls-1" d="M46.13,14.45c0-.2,0-.13,0-.16C46.11,14.63,46.14,14.44,46.13,14.45Z"/><polygon class="cls-1" points="45.7 17.73 45.7 17.67 45.58 18.14 45.7 17.73"/><path class="cls-1" d="M44.47,20.56a8.09,8.09,0,0,0,.76-1.49l.05-.08c0-.08,0-.16,0-.24A11.42,11.42,0,0,1,44.47,20.56Z"/><path class="cls-1" d="M43.38,21.8c.09-.06-.2.29.25-.29l-.05,0Z"/><path class="cls-1" d="M43.58,21.56c.19-.26-.15.15,0,0Z"/><path class="cls-1" d="M42.61,22.67a4.15,4.15,0,0,0,.27-.32c-.08,0-.34.31-.26.2C42.32,22.86,42.4,22.82,42.61,22.67Z"/><path class="cls-1" d="M42.38,23l.15-.17S42.45,22.9,42.38,23Z"/><path class="cls-1" d="M42.83,22.49l-.3.35c.06,0,.09,0,.14-.15C42.67,22.73,42.71,22.65,42.83,22.49Z"/><path class="cls-1" d="M43,22.31c.18-.16.38-.39.13,0C43.66,21.63,43.54,21.69,43,22.31Z"/><path class="cls-1" d="M44.45,20.73l.18-.27.12-.25C44.69,20.33,44.43,20.74,44.45,20.73Z"/><path class="cls-1" d="M40.57,24.4s.17,0,.23,0l.21-.24C40.87,24.23,40.62,24.42,40.57,24.4Z"/><path class="cls-1" d="M40.8,24.37l-.32.36C40.8,24.45,40.84,24.38,40.8,24.37Z"/><path class="cls-1" d="M42.42,23.15c.16-.21.33-.4.48-.61-.19.24-.39.47-.59.71Z"/><polygon class="cls-1" points="39.18 25.59 39.33 25.36 39.05 25.77 39.18 25.59"/><path class="cls-1" d="M38.27,26.4c.09-.19-.31.08-.19-.09a3.49,3.49,0,0,0-.55.66A2.92,2.92,0,0,1,38.27,26.4Z"/><path class="cls-1" d="M37.28,27.32c.08-.1.16-.22.25-.35A1.72,1.72,0,0,0,37.28,27.32Z"/><path class="cls-1" d="M39.86,25.26a.79.79,0,0,0-.36.18l.21-.05Z"/><path class="cls-1" d="M39.72,25.39h0l-.3.26Z"/><path class="cls-1" d="M39.89,25.23l0,0A0,0,0,0,0,39.89,25.23Z"/><path class="cls-1" d="M41.47,24c-.18.22-.57.66-.1.32C41.48,24.09,41.21,24.28,41.47,24Z"/><path class="cls-1" d="M40.15,25.16l.39-.33s-.11,0,0-.08Z"/><polygon class="cls-1" points="39.99 25.35 40.15 25.16 40.01 25.28 39.99 25.35"/><path class="cls-1" d="M38,26.83a3.52,3.52,0,0,1-.5.54c.24-.18.47-.37.68-.56C38.21,26.76,38.25,26.62,38,26.83Z"/><path class="cls-1" d="M38.86,26.14l0,0S38.87,26.15,38.86,26.14Z"/><polygon class="cls-1" points="35.53 29.16 35.58 29.15 35.57 29.12 35.53 29.16"/><path class="cls-1" d="M38.26,26.79a1.2,1.2,0,0,0,.32-.34l-.38.36S38.21,26.84,38.26,26.79Z"/><path class="cls-1" d="M36.76,27.86a2.49,2.49,0,0,0,.34-.2C37,27.71,36.76,27.81,36.76,27.86Z"/><path class="cls-1" d="M38.75,26.2l0,0C38.7,26.21,38.71,26.21,38.75,26.2Z"/><path class="cls-1" d="M38.75,26.2a1.59,1.59,0,0,0-.17.25c.09-.1.18-.19.24-.27Z"/><path class="cls-1" d="M35.68,30.45c-.09-.14.23-.64.69-.88.27-.42-.28-.52-.79-.42,0,.06.08.1-.23.5.19-.06.94-.63.73-.25-.43.52-.43.34-.72.51.33-.06-.41.79-.1.89l.34-.48S35.54,30.54,35.68,30.45Z"/><path class="cls-1" d="M36.3,28.52l.14-.16a2.51,2.51,0,0,1-.66.35c-.21.28-.23.36-.21.41l.77-.67Z"/><path class="cls-1" d="M37.13,27.74c0,.21-.34.59,0,.49.44-.42.23-.37.46-.66-.7.69.15-.24-.43.18a4.51,4.51,0,0,1,.37-.38c-.14.11-.28.2-.42.29h0c.05,0,.07,0,0,0h0a.09.09,0,0,1,0,.07c-.23.17-.05,0,0-.07a0,0,0,0,0,0,0h0l-.68.71A6.58,6.58,0,0,0,37.13,27.74Z"/><path class="cls-1" d="M41.12,24.76s0,0,0,0S41,24.85,41.12,24.76Z"/><path class="cls-1" d="M40.8,25a.92.92,0,0,1,.23-.28c.16-.13,0,0,.06,0s.3-.39,0-.11l0,.06a2.81,2.81,0,0,1-.72.46A1.56,1.56,0,0,0,40.8,25Z"/><path class="cls-1" d="M39,26.45l-.55.61.38-.22-.06,0C39.12,26.51,39,26.52,39,26.45Z"/><polygon class="cls-1" points="35.4 29.16 35.37 28.97 35.18 29.46 35.4 29.16"/><polygon class="cls-1" points="34.63 29.89 34.55 29.75 34.4 30.01 34.63 29.89"/><path class="cls-1" d="M1.68,7.86l.09-.23Z"/><path class="cls-1" d="M1,9.5l0,.05C1,9.47,1,9.43,1,9.5Z"/><path class="cls-1" d="M17.76,34.56c-.13-.37-.21-.84-.33-.66l-.08.23A1.36,1.36,0,0,1,17.76,34.56Z"/><path class="cls-1" d="M4.26,22.86l0,.11.27.06Z"/><path class="cls-1" d="M3.65,23.09l-.24-.43A3,3,0,0,0,3.65,23.09Z"/><path class="cls-1" d="M8.61,1.2,8.85,1C8.42,1.18,8.63,1.14,8.61,1.2Z"/><path class="cls-1" d="M26.78,37.43a3.36,3.36,0,0,0-.64.43C26.5,37.7,26.84,37.63,26.78,37.43Z"/><path class="cls-1" d="M2,8.77c.05-.14.07-.2.05-.2S2,8.79,2,8.77Z"/><path class="cls-1" d="M25.52,38.47l.15-.07a3.24,3.24,0,0,1,.47-.54A1,1,0,0,0,25.52,38.47Z"/><path class="cls-1" d="M40.61,2.93l.06,0S40.66,3,40.61,2.93Z"/><path class="cls-1" d="M45.82,11.42,45.71,11Z"/><path class="cls-1" d="M31.42,32.73c.16-.16,0,0,0,0Z"/><path class="cls-1" d="M32.77,32.52s0,.1,0,.13A.15.15,0,0,1,32.77,32.52Z"/><path class="cls-1" d="M24.92,41.05v0C25,41.05,25,41.06,24.92,41.05Z"/><path class="cls-1" d="M31.73,32.56a1.48,1.48,0,0,0-.25.16Z"/><path class="cls-1" d="M31.63,32.53l.16-.12S31.75,32.36,31.63,32.53Z"/><path class="cls-1" d="M31.2,33a2,2,0,0,1,.28-.23s-.06,0-.06,0Z"/><path class="cls-1" d="M23.56,4.54l0,0C23.7,4.6,23.65,4.57,23.56,4.54Z"/><polygon class="cls-1" points="12.09 31.94 12.11 31.95 12.09 31.93 12.09 31.94"/><path class="cls-1" d="M11.42,31.47a.83.83,0,0,1,.67.45l.22-.59Z"/><path class="cls-1" d="M4.13,4.37l-.43.4c.39-.61.81-.92.34-.6,0,.1-.33.53-.71,1s-.68.92-.62,1a2.43,2.43,0,0,0-.26.29,1.37,1.37,0,0,1,.13-.2c-.48.58-.19.54-.69,1.35-.16.3-.29.49-.21.28l-.28.69c-.09.2-.11.13,0-.06-.15.35-.27.71-.4,1.07H1c0,.16-.09.53-.11.71s0-.15,0-.08l-.11.62c-.13.23,0-.29.08-.71a1.16,1.16,0,0,0-.24.61,9.79,9.79,0,0,1-.24,1.13l.08-.59A6.08,6.08,0,0,0,0,12.75c0-.17.42-1.33.36-.64a2,2,0,0,0-.07.81c-.09,0-.1.36-.12.82l-.12,0a2.75,2.75,0,0,0,.14.74,1.23,1.23,0,0,1-.16.81c.06.89.1-.62.23.42a6,6,0,0,0,.49,2.06c.09.51-.12-.06-.11.13l.25.4c0,.11,0,.09,0,.08.17.34.16,0,.4.52.23.07.21,1.27.79,1.81,0,.19-.14,0-.18.07A5.41,5.41,0,0,0,3.07,22l.34.65c-.21-.51.34-.1.85.2-.07-.19-.12-.34-.17-.44.23.2.47.38.71.56,0,.1-.06.09-.23.05l.15.08c.18.28,0,.26-.28.18L4.3,23c-.25-.07-.5-.14-.56,0a1.36,1.36,0,0,1,.25.19c-.07,0-.12,0-.11,0s.1.08.25.15l0,.33.1,0c.2.27.42.52.64.78l0-1.09,0,0-.5.36.5.7.11.15a13.38,13.38,0,0,1,2.6,1.55c-.38-.09-.29.19-.48.35-.07-.45-.8-.67-1.24-1.22.23.29.1.31,0,.27l1,.73c-.17.13.07.3.24.6.11-.46.83.47,1.27.75-.07.12-.26.13-.66-.34.25.71,1,.29,1.23,1-.1-.11-.15-.18-.24-.17.34.16.87.84.64.79l-.11-.11c.66.76,2.13,2.18,2.5,2a2,2,0,0,1-.51.24l2.18.35c-.35.12-.5,1.12-1.21.66a2.06,2.06,0,0,0,.73.73c-.08-.15.07-.63.24-.49a5.7,5.7,0,0,0,.45,1.21c-.11-.23.46-.42.72-.13-.1,0-.36.4-.5.34l1.05.3c-.24-.1-.35.3-.31.56,0-.15.57.6.79.74l-.2-.38c.7.84,1.3.22,2,1-.18,0-.73.27-.4.71a4.93,4.93,0,0,1,2.6.31v.25l.66.37A12.89,12.89,0,0,1,17.05,37c.19.38-.06.22.38.64,0,.27-.4-.07-.53-.19l.91,1.09c.2-.29,1,.52,1.17.28L17.65,38c.2-.29,1.31-.06,2,.69.08.28-.58.31-.64.4a2,2,0,0,1,.83.64l-.43-.17c.3.49,1,.32,1.2,1,.15.18.16.81.34.69a2.21,2.21,0,0,1,1.24-1.52l.31.64a4.66,4.66,0,0,1,.3.8c0,.27-.13.36-.36.39s-.5,0-.42.28c.07-.06.34,0,.44.09.2.31-.24.17.32.68.2-.31,1,1.11.33-.1a2.17,2.17,0,0,1,.5.51s.07.13.11.1l.12-.09a3,3,0,0,0,.34-.32c-.11-.05,0-.44.12-.82a5,5,0,0,1,.4-1c0,.1.17.12.24.12.78-.73,1.29-1,2-1.71.12,0,.53-.27.5,0a1.1,1.1,0,0,1,.27-.55c.63-.2-.45.52.13.46-.12-.17.35-.76.57-1.16-.32-.12-.75.67-1,1.07-.3-.31-.09-1.17.5-2,.51-.65.45,0,.51-.2,1.14-1,.41-1.43,1.54-2.11.54-.17.38.35.6.4-.41.55-.85.61-1.16.93l.48-.3a1.67,1.67,0,0,1-.58.69c.47-.13,1.87-1.8,2.86-2.49.08-.21.28-.53.09-.48l-.24.29c-.39.1.3-.69-.1-.43A3.75,3.75,0,0,1,33,32l.29.09c-.07,0-.45.21-.53.41.13-.29,1-.5,1-1l-.49.21a4.29,4.29,0,0,1,1.06-1.43c-.39,0-.09.12-.62.21.54,0-1.2,1.08-.46.94-.59.06-.69.43-1.35.62.08,0,.28,0-.14.31a.79.79,0,0,1,0,.13l0,0h0s0,0,0,0a.7.7,0,0,1,.3-.08c0,.33-.65.9-.78,1.18s0-.17-.18-.12l-.18.41c-.18-.12-.85.33-.41-.27l-.49.45a2.44,2.44,0,0,0-1,.82c-.26.18-.4.72-.32.41l-.65.82-.05,0c-.76.69-1.24,1.74-2.38,2.27a4.1,4.1,0,0,1-.86.94l-.23-.06a1.84,1.84,0,0,1-.28.28l-.29.23c-.06.05-.09.08-.06.21-.15-.2-.19-.19-.24-.15s-.17,0-.18-.13l-.17.2-.06-.07-.14-.13-.32-.27-.73-.55-.14.2c-.55-.27-.93-1.16-1.6-1.78.11,0,.25.16.33.31-.41-1.12-1.9-1.34-2.34-2.29a.85.85,0,0,1-.42-.42.1.1,0,0,0,0,0l-.07-.07c-.05-.11-.1-.22-.16-.33a1.1,1.1,0,0,0,.12.29,5.26,5.26,0,0,0-.61-.47l.08-.25-.05,0c-.13-.25-.24-.08-.26.15a1.59,1.59,0,0,0-.36-.16c.1-.42-.62-.42-.56-.92-.27,0-1.11-.89-1.5-.71,0,0,0-.12.1,0a1.83,1.83,0,0,0-.67-.63l.11-.29-.76-.21c-.17-.41-.23-.6.22-.47-.95-.46-.67-.48-1.5-.84l.15-.1c-.22-.21-.73-.38-.76-.61-.25-.71-2.36-2.39-3.42-3.8-.08.57-.44-.7-.74-.5,0-.14-.13-.35.14-.22-.72-.54-.86-1-1.5-1.26,0-.14.24,0,.21-.07s-.25-.13-.29-.23v1.26h0s0,0,0,.05V23.17a2.63,2.63,0,0,1,.24.12L6,23.13v1.42l0,0,.73-1L6,23c-.49-.31-.73-.17-.93,0a1.22,1.22,0,0,0-.76-.65c0-.17-.15-.42.25-.05-.24-.2-1.13-1.47-1.29-1.4a1.29,1.29,0,0,0-.3-.42c-.36-.59-.37-.65-.71-1.24l.06.18c-.31-.15-.29-.49-.53-1h0c-.31-1.23-.29-.49-.49-1.73l-.09.09C.94,16.75,1.08,15.7.92,15l0,.27c-.11-.4.18-1.13.2-1.52,0-.08,0,.14,0,.26.1-1-.13-.13-.14-.9.07-.14.16.19.18-.33,0-.12,0-.5,0-.93a3.44,3.44,0,0,1,.22-1.25c-.08.14-.16.28-.1-.08.09-.55.59-1.37.66-1.87,0-.06.06-.08.07-.08l.33-.81a6.23,6.23,0,0,0,.33-.69,1.36,1.36,0,0,0,.37-.44c.17-.21.34-.47.51-.72.34-.51.73-.92.8-.85a9.78,9.78,0,0,1,.93-.89v0a9.61,9.61,0,0,0,1.07-.94c.16-.1.06,0,.06,0,1.06-.59,1.15-.64,2-1.19l.14,0a5.81,5.81,0,0,1,1.07-.33c.54-.12,1.18-.25,1.75-.39,0,0,0,0-.12.07,1.32-.42,3.12.29,3.62-.15.29,0,.58,0,.88,0-1.12-.23.21-.22-.24-.38.46,0,1.12.4.57.31l-.08-.05c-.25.24,1.35.43,1.25.67a10.2,10.2,0,0,1,2.85,1.5,11.56,11.56,0,0,1,1.2,1,15.05,15.05,0,0,1,1.29,1.35c0-.2-.06-.38-.08-.56.23.26.46.52.69.81s.2.63-.34,0a1.51,1.51,0,0,0,.55.64,1.62,1.62,0,0,0,.44-.52c.61-.33.53-.17.3.09s-.62.58-.4.44l.57-.42-.14.05c.22-.23.33-.38.47-.53A3.45,3.45,0,0,1,25,5.45l.2-.14.17-.11c.37-.16.28.06.42,0s.06,0,.21-.12l.8-.45-.44,0c.29-.32.76-.42.24-.46.75,0,3.13-1.48,3.56-1.44A3.74,3.74,0,0,1,31.8,2c-.18,0-.35-.25.25-.34,0,.29.22.29.56.26a1.72,1.72,0,0,1,1,.19c-.21-.12.21-.13.6-.15s.75,0,.44-.2c.49.1,0,.18.36.33a9.77,9.77,0,0,1,3.87,1.08S38.73,3,39.05,3s.39.35.59.53.36-.07.74.32c0-.07-.11-.18.06-.07a14.7,14.7,0,0,1,3.23,3,11.14,11.14,0,0,1,2,4c-.08-.4,0-.14.07.16-.05-.2,0,0,0,0A7.52,7.52,0,0,1,46,12.22a6.77,6.77,0,0,1,.14.76c0,.33,0,.64,0,.7l0-.39c.07.52,0-.75.06-.68a12.63,12.63,0,0,0-.55-2.5c-.06-.21.08.17.05.05a9.08,9.08,0,0,1-.39-1l0,.06a17,17,0,0,0-.85-1.75,13.46,13.46,0,0,0-1.12-1.77l0,.14A4.31,4.31,0,0,1,43,5.28c-.36-.27.69.83.35.59a6.74,6.74,0,0,0-1-1.23c-.23-.23-.46-.46-.64-.66a1.34,1.34,0,0,1-.37-.42c-.47-.39.07.19-.4-.19l-.08-.15-.17,0c-.31-.23-.44-.41-.42-.47s.24.14.32.2a5.33,5.33,0,0,0-.76-.55c-.28-.17-.54-.27-.61-.33l.49.33a11.1,11.1,0,0,0-5-1.65l.12.1A5.75,5.75,0,0,1,33.76.74,3,3,0,0,0,32.52.69l0,0a4.7,4.7,0,0,1-1,.27c.31-.18-.68-.05-.26-.27-1.27.5-.62.31-1.34.89l-.24-.08a1.9,1.9,0,0,1-.8.6c.44-.34-.48,0,0-.46-1.44.22-1.69,1.19-2.49,1-.34.69,1.16-.34.9-.09.33,0-.31.53-.69.7s-.94-.15-1.88.44c.1,0,.09-.08.18-.14a1.38,1.38,0,0,0-.52.34l-.12.1a.18.18,0,0,1-.07,0,.18.18,0,0,1-.16,0c-.07.37-.25.15-.3.6l.5-.43A3.56,3.56,0,0,0,24,4.6l-.18.23-.1.12s-.07.09-.1,0a1.73,1.73,0,0,1-.44-.52.86.86,0,0,1,.34.07c-.07-.24-.26-.19-.34-.42.17-.16.33.08.52.25.09,0,.21-.17.26-.29s-.17.16-.25.17-.08-.07,0-.24c-.11.23-.21.09-.3,0a.74.74,0,0,0-.18-.21,1.65,1.65,0,0,0-.51-.28l.17-.11a3.09,3.09,0,0,1-.54-.3l.49.06C22.23,2.9,22,2.23,21.4,2c1.09.7.12.35.48.76-1.43-.63-.45-.95-2.1-1.65.23.07.76.48.39.39a5.69,5.69,0,0,1-.82-.58c-1.11-.38.1.23-.41.15-.29-.32-.56-.12-1.06-.2l.05-.16C16.69.28,17.51.94,16.4.57l.54-.12c-.21,0-.41,0-.62,0l.16-.16A7,7,0,0,1,15,.12c.14.12-.11.25-.67.24-.39-.08.22-.13-.59-.11a.84.84,0,0,1,.74-.07s.19-.08.23-.13a4.13,4.13,0,0,0-1.37,0c.11,0,.25,0,.32,0L12.44.36c-.18,0,0-.08.1-.13a5.7,5.7,0,0,0-.73.19c.07-.11,0-.22.53-.35-.38.1-.74.22-1.1.32-.08,0-.59,0-.45,0a6.69,6.69,0,0,0-1,.37,9.75,9.75,0,0,1-1.15.5,1.38,1.38,0,0,1-.26.16l-1,.48a7.12,7.12,0,0,0-1,.69,2.91,2.91,0,0,0-.48.21c-.55.46.63-.31-.27.45-.64.54-.31.11-.55.28A15.66,15.66,0,0,1,3.68,4.9C3.84,4.69,4,4.56,4.13,4.37ZM.37,12.09a2.41,2.41,0,0,1,.08-.63A1,1,0,0,1,.37,12.09ZM5,24a.89.89,0,0,1-.38-.39A1.77,1.77,0,0,1,5,24Zm24.8,10.59v0C29.43,34.77,29.55,34.71,29.76,34.56Zm.62-.45c0-.08,0-.1,0-.1s-.12.2-.27.32C30.15,34.34,30.25,34.3,30.38,34.11Zm-4.58-29-.15,0C25.89,4.88,25.85,5,25.8,5.08Z"/><path class="cls-1" d="M3.73,23.06a.13.13,0,0,1,0-.11C3.68,22.92,3.65,22.94,3.73,23.06Z"/><path class="cls-1" d="M8.57,1.23h0s0,0,0,0Z"/><path class="cls-1" d="M22.25,42.26a1.27,1.27,0,0,1-.25-.43C22,41.87,22,42,22.25,42.26Z"/><path class="cls-1" d="M33.07,31.08l-.33.37a1,1,0,0,1,.38-.25S33,31.18,33.07,31.08Z"/><path class="cls-1" d="M37,29c0-.06.1-.1.14-.17l-.07,0C36.83,29,36.72,29.18,37,29Z"/><path class="cls-1" d="M33.88,31.25c.15.1.33-.16.55-.42l0,.05C34.3,30.64,34.09,31,33.88,31.25Z"/><path class="cls-1" d="M34.49,30.77l.22-.22C34.68,30.46,34.61,30.63,34.49,30.77Z"/><path class="cls-1" d="M31,33.35c.15-.08-.1-.25,0-.25C31,32.8,30.44,34.05,31,33.35Z"/><polygon class="cls-1" points="34.47 31.45 34.24 31.39 34.22 31.65 34.47 31.45"/><path class="cls-1" d="M32.45,33.24l.43-.34s0-.08,0-.15C32.68,33,32.39,33.21,32.45,33.24Z"/><path class="cls-1" d="M32.93,32.75a1.13,1.13,0,0,0,.28-.34A3.93,3.93,0,0,0,32.93,32.75Z"/><polygon class="cls-1" points="33.99 32.03 33.84 32.11 33.56 32.37 33.99 32.03"/><path class="cls-1" d="M28.24,37.35l-.37.47c0,.11.17,0,.31-.15S28.37,37.35,28.24,37.35Z"/><path class="cls-1" d="M30,36.56a.47.47,0,0,1-.32,0l.21.23Z"/><path class="cls-1" d="M28.83,37.85c0,.1-.43.79.09.24C28.9,38,29.27,37.51,28.83,37.85Z"/><polygon class="cls-1" points="22 40.75 22.11 40.86 22.48 40.46 22 40.75"/><path class="cls-1" d="M15.56,36c.41.6.34-.1.68.47.2,0-.28-.46-.09-.41C15.76,35.83,15.66,35.62,15.56,36Z"/><path class="cls-1" d="M16.15,36.05l.21.1A.69.69,0,0,0,16.15,36.05Z"/><polygon class="cls-1" points="46.07 13.05 46.09 13.5 46.09 13.21 46.07 13.05"/><path class="cls-1" d="M46.15,13.91l0,.11,0,.27C46.16,14.19,46.15,14,46.15,13.91Z"/><path class="cls-1" d="M0,13.38l0,0A1.44,1.44,0,0,0,.1,13Z"/><polygon class="cls-1" points="1.86 7.29 1.8 7.38 1.99 7.25 1.86 7.29"/><path class="cls-1" d="M5.21,3.12c-.18.13-.35.32-.52.47C5,3.24,5.34,3.18,5.21,3.12Z"/></g></g></svg>