<svg xmlns="http://www.w3.org/2000/svg" viewBox="0 0 40.23 86.01"><defs><style>.cls-1{fill:#ba9e7c;}</style></defs><g id="Layer_2" data-name="Layer 2"><g id="Layer_1-2" data-name="Layer 1"><path class="cls-1" d="M0,85.71a6.38,6.38,0,0,1,3.57-.43,122.92,122.92,0,0,0,28-.14c.93-.12,2-.06,2.84-1.14-1.91-.45-3.24-1.66-5-2.19-1.12-.34-2.65-.88-3.3-2.12a4,4,0,0,0-2.53-2,19,19,0,0,0-5.94-.86c-.63,0-1.09,0-1.3-.88a16.2,16.2,0,0,1,.07-8.79c.39-1.24.68-1.48,1.92-.78C25.15,70.26,37,66.23,37,55.86a8,8,0,0,1,.51-2.6,1.44,1.44,0,0,0-.68-1.91,7,7,0,0,1-3.16-4.45,138.76,138.76,0,0,1-.83-19.12l.07-.76a2.86,2.86,0,0,0,.07-.55q.57-4.12,1.12-8.25A72.7,72.7,0,0,1,36.69,6.28c.31-.86.61-1.56,1.67-1.87a2.48,2.48,0,0,0,1.87-2.47,1.84,1.84,0,0,0-1-1.66c-1.19-.67-2.13,0-3,.64-2.19,1.59-2.88,4-3.4,6.45-2.12,10-2,20.21-2,30.38-.13,2.2-.27,4.41-.37,6.61C30.15,48.78,28.23,52,24,53.69c-2.5,1-5,2.07-7.46,3.12A11.26,11.26,0,0,0,13.06,59c-.67.64-1,1.19-.08,2a4.48,4.48,0,0,1,1.42,3.72c-.1,3.85.11,7.71-.64,11.55-.17.87-.53.91-1.12,1.08-1.32.38-2.73.62-3.58,1.88,1.62,1.05,3.43.51,5.17.56,1.21,0,2.43-.1,3.69,0a2,2,0,0,1-1.79.66c-2.34.38-4.69.93-7-.15L8,80.08c-2.38.25-3.92,2.26-6,3.06a2.45,2.45,0,0,0-2,2.57m5.49-3.4c2.43.09,4.86.31,7.29.45C10.32,83.29,7.86,83.65,5.49,82.31Zm9.86-22.4c2.1-2.44,4.92-3.46,7.78-4.39l2.14-.85A4.19,4.19,0,0,1,27.63,54a2.21,2.21,0,0,1-1.37,1l-2.32.83Zm4.08,1.52c4.42-1.67,9-3,13.24-5.07C30.77,59.3,24.46,61.81,19.43,61.43ZM32.82,47.72c-1.27-1.19-1.17-2.82-1.34-4.33-.14-1.18-.17-2.38-.21-3.57A5.55,5.55,0,0,1,32,36.89C32,40.52,32.58,44.11,32.82,47.72Zm1.1-33.28a9.35,9.35,0,0,0-.27,2v.26A11.23,11.23,0,0,1,33.5,18l-.66,4.1c-.07.44-.12.89-.16,1.34l-.18,1.91-.24,1.15a27.67,27.67,0,0,1-.15-5.15,37.75,37.75,0,0,1,1-6.6,11,11,0,0,0,.18-1.28,5,5,0,0,1,.83-2.4A13.31,13.31,0,0,1,33.92,14.44Z"/></g></g></svg>