<svg width="350" height="171" viewBox="0 0 350 171" fill="none" xmlns="http://www.w3.org/2000/svg">
<path d="M15.1773 147.906C15.0822 147.516 15.0806 147.071 15.1726 146.571C15.2802 146.055 15.4268 145.538 15.6125 145.022C15.7983 144.506 15.9997 144.013 16.2168 143.543C16.4338 143.058 16.6121 142.659 16.7517 142.346C16.8291 142.158 16.9454 141.885 17.1004 141.525C17.271 141.165 17.4571 140.758 17.6586 140.304C17.8758 139.85 18.0929 139.373 18.3099 138.872C18.5425 138.371 18.7596 137.894 18.9611 137.44C19.1783 136.986 19.3644 136.587 19.5195 136.243C19.6901 135.883 19.8142 135.617 19.8917 135.445C19.6259 135.399 19.2432 135.423 18.7435 135.519C18.2595 135.614 17.7208 135.741 17.1276 135.9C16.5344 136.042 15.9255 136.193 15.3011 136.351C14.6766 136.51 14.0911 136.629 13.5445 136.709C13.0135 136.773 12.5526 136.783 12.1618 136.737C11.7866 136.676 11.5516 136.513 11.4569 136.247C11.5656 136.044 11.9632 135.808 12.6498 135.54C13.3364 135.272 14.2104 134.996 15.2719 134.711C16.349 134.41 17.5433 134.109 18.8547 133.808C20.1818 133.506 21.5324 133.22 22.9065 132.95C24.2805 132.679 25.6234 132.432 26.9351 132.209C28.2469 131.986 29.4181 131.802 30.4489 131.658C31.4796 131.514 32.3074 131.417 32.9323 131.368C33.5727 131.319 33.9087 131.333 33.9402 131.411C33.9875 131.536 33.9959 131.692 33.9653 131.88C33.9346 132.052 33.8335 132.162 33.6618 132.209C32.8966 132.337 32.0689 132.48 31.1789 132.64C30.2887 132.783 29.383 132.943 28.4618 133.118C27.5561 133.277 26.666 133.444 25.7916 133.619C24.9172 133.779 24.1052 133.938 23.3558 134.097C22.8717 134.192 22.404 134.475 21.9525 134.945C21.501 135.416 21.0655 136.003 20.6461 136.708C20.2266 137.397 19.8231 138.171 19.4354 139.032C19.0478 139.877 18.6758 140.738 18.3194 141.614C17.9787 142.49 17.6614 143.335 17.3673 144.149C17.0733 144.962 16.8024 145.682 16.5545 146.308C16.3067 146.918 16.0896 147.395 15.9033 147.74C15.717 148.084 15.5612 148.225 15.436 148.163C15.4046 148.132 15.3576 148.086 15.2949 148.023C15.2322 147.961 15.193 147.922 15.1773 147.906ZM24.4106 147.593C24.3949 147.562 24.3869 147.523 24.3868 147.476C24.3866 147.413 24.3942 147.367 24.4097 147.335C24.4718 147.21 24.5726 146.999 24.7122 146.701C24.8674 146.388 25.0225 146.067 25.1776 145.739C25.3483 145.394 25.5112 145.074 25.6664 144.776C25.8217 144.479 25.9303 144.267 25.9924 144.142C26.0234 144.095 26.1011 143.962 26.2253 143.743C26.3652 143.524 26.5283 143.258 26.7147 142.944C26.9167 142.616 27.1264 142.255 27.3438 141.864C27.5768 141.473 27.802 141.089 28.0195 140.713C28.2525 140.337 28.4623 139.985 28.6486 139.656C28.8506 139.328 29.0137 139.054 29.1379 138.834C29.4486 138.318 29.8059 137.707 30.2097 137.002C30.6291 136.298 31.0563 135.585 31.4913 134.865C31.9263 134.145 32.3536 133.448 32.7731 132.775C33.2082 132.101 33.6047 131.545 33.9626 131.107C34.3204 130.668 34.6241 130.378 34.8736 130.236C35.1231 130.095 35.2953 130.188 35.3902 130.516L35.3928 131.266C35.2841 131.438 35.1364 131.665 34.9499 131.947C34.7633 132.213 34.569 132.503 34.367 132.816C34.1805 133.114 33.994 133.403 33.8075 133.685C33.621 133.967 33.4811 134.186 33.3879 134.343C33.2481 134.562 33.0227 134.915 32.7119 135.4C32.4011 135.885 32.0515 136.434 31.663 137.044C31.2745 137.655 30.8783 138.297 30.4744 138.97C30.0704 139.628 29.7054 140.246 29.3793 140.826C29.0531 141.405 28.7893 141.906 28.5876 142.328C28.4015 142.735 28.3321 142.993 28.3794 143.103C28.754 142.992 29.1517 142.795 29.5726 142.513C30.0091 142.214 30.4455 141.9 30.8819 141.57C31.3182 141.241 31.7546 140.927 32.1911 140.628C32.6275 140.314 33.0329 140.071 33.4073 139.898C33.7825 139.943 34.1111 140.083 34.3931 140.316C34.6752 140.549 34.8794 140.846 35.0056 141.205C34.9905 141.345 34.9758 141.611 34.9615 142.002C34.9628 142.377 34.9642 142.775 34.9657 143.197C34.9672 143.619 34.9685 144.017 34.9698 144.392C34.9868 144.767 35.0033 145.025 35.0194 145.165C35.0356 145.337 35.1145 145.556 35.2561 145.821C35.3976 146.07 35.5469 146.328 35.7041 146.593C35.8768 146.842 36.026 147.06 36.1517 147.247C36.293 147.434 36.3558 147.536 36.3402 147.551C36.0281 147.662 35.7313 147.671 35.4497 147.578C35.1681 147.47 34.9175 147.306 34.698 147.088C34.4941 146.855 34.3213 146.598 34.1797 146.317C34.0536 146.02 33.9745 145.732 33.9423 145.45C33.9262 145.31 33.9018 145.052 33.8693 144.677C33.8367 144.287 33.804 143.881 33.7713 143.459C33.7542 143.037 33.7294 142.639 33.6968 142.264C33.6799 141.889 33.6712 141.631 33.6707 141.49L33.1306 141.211C33.0367 141.164 32.8728 141.204 32.6388 141.33C32.4205 141.456 32.1633 141.628 31.8672 141.848C31.5711 142.068 31.2595 142.319 30.9323 142.602C30.6052 142.884 30.2936 143.151 29.9976 143.402C29.7172 143.653 29.4758 143.872 29.2733 144.06C29.0709 144.249 28.9463 144.366 28.8996 144.413C28.775 144.539 28.5492 144.766 28.2223 145.095C27.8952 145.409 27.5449 145.754 27.1712 146.13C26.813 146.491 26.4705 146.836 26.1435 147.165C25.8322 147.494 25.6142 147.729 25.4897 147.871C25.2711 147.918 25.0603 147.942 24.8572 147.943C24.6696 147.928 24.5208 147.811 24.4106 147.593ZM39.1303 147.823C38.661 147.668 38.3008 147.435 38.0497 147.124C37.8142 146.796 37.6567 146.437 37.5772 146.047C37.4977 145.657 37.4807 145.251 37.5261 144.829C37.587 144.391 37.6794 143.976 37.803 143.585C38.27 143.084 38.7914 142.512 39.3673 141.869C39.9588 141.211 40.5816 140.568 41.2356 139.941C41.8897 139.313 42.5674 138.733 43.2686 138.199C43.9855 137.65 44.7106 137.233 45.444 136.949C45.6936 136.839 45.8889 136.846 46.03 136.971C46.1866 137.08 46.2966 137.259 46.36 137.509C46.4234 137.758 46.4478 138.047 46.4333 138.376C46.4345 138.704 46.4121 139.024 46.3664 139.337C46.3206 139.649 46.2591 139.931 46.1818 140.181C46.1045 140.431 46.027 140.604 45.9492 140.698C45.7625 140.917 45.3962 141.176 44.8504 141.475C44.3202 141.774 43.7275 142.104 43.0726 142.465C42.4175 142.811 41.7625 143.173 41.1076 143.55C40.4526 143.928 39.9149 144.305 39.4943 144.681C39.0737 145.042 38.825 145.402 38.7481 145.762C38.6712 146.121 38.8911 146.449 39.4078 146.744C39.9392 146.805 40.5798 146.779 41.3294 146.667C42.0946 146.539 42.8674 146.38 43.648 146.19C44.4442 145.984 45.2091 145.778 45.9428 145.573C46.6764 145.351 47.2773 145.177 47.7457 145.051L48.0278 145.308C47.6856 145.762 47.1246 146.178 46.3446 146.556C45.5647 146.933 44.722 147.249 43.8167 147.502C42.9112 147.739 42.029 147.899 41.1699 147.98C40.3107 148.045 39.6309 147.993 39.1303 147.823ZM44.7006 138.85C44.6849 138.835 44.568 138.906 44.3498 139.063C44.1315 139.204 43.8588 139.4 43.5315 139.651C43.2198 139.887 42.877 140.154 42.503 140.452C42.1446 140.734 41.8096 141.001 41.498 141.252C41.202 141.503 40.9528 141.723 40.7503 141.911C40.5478 142.084 40.4621 142.17 40.4934 142.17C40.7435 142.216 41.0637 142.183 41.454 142.073C41.8598 141.946 42.2733 141.773 42.6944 141.553C43.1311 141.332 43.5443 141.089 43.934 140.822C44.3237 140.539 44.6274 140.265 44.8452 139.998C45.0787 139.732 45.195 139.497 45.1943 139.294C45.2092 139.091 45.0447 138.943 44.7006 138.85ZM60.1986 147.21C60.1669 147.101 60.1586 146.953 60.1736 146.765C60.2041 146.562 60.2347 146.359 60.2652 146.156C60.3114 145.952 60.3576 145.772 60.404 145.616C60.4503 145.46 60.4734 145.374 60.4734 145.358L65.7222 131.558C65.8306 131.277 65.9318 131.175 66.0258 131.253C66.1198 131.315 66.1906 131.463 66.2383 131.697C66.3016 131.916 66.3337 132.173 66.3347 132.47C66.3357 132.752 66.3053 132.978 66.2434 133.15C65.7475 134.339 65.2439 135.537 64.7324 136.741C64.2366 137.931 63.7564 139.136 63.2919 140.356C62.843 141.561 62.4175 142.781 62.0156 144.017C61.6136 145.237 61.2742 146.48 60.9973 147.747C60.8726 147.825 60.7633 147.857 60.6695 147.842C60.5913 147.826 60.5131 147.788 60.4347 147.725C60.372 147.647 60.317 147.562 60.2698 147.468C60.2382 147.374 60.2145 147.289 60.1986 147.21ZM79.6759 147.4C79.5033 147.198 79.401 146.972 79.3689 146.722C79.3523 146.456 79.367 146.198 79.413 145.948C79.4746 145.682 79.5519 145.432 79.6448 145.197C79.7533 144.947 79.8541 144.72 79.9471 144.517C80.0091 144.36 80.1331 144.078 80.3192 143.672C80.5208 143.249 80.7302 142.811 80.9474 142.357C81.1802 141.903 81.3975 141.48 81.5992 141.089C81.8009 140.682 81.9406 140.4 82.0182 140.244L82.0164 139.728C81.8599 139.651 81.5399 139.761 81.0566 140.06C80.5732 140.343 80.0121 140.743 79.3733 141.261C78.7344 141.763 78.0567 142.328 77.3401 142.955C76.6235 143.583 75.9459 144.187 75.3073 144.767C74.6843 145.332 74.1392 145.842 73.672 146.296C73.2048 146.735 72.9089 147.026 72.7844 147.167C72.4411 147.277 72.2143 147.208 72.104 146.958C72.0093 146.693 71.9846 146.333 72.0299 145.88C72.0752 145.411 72.1671 144.895 72.3058 144.332C72.4444 143.754 72.5832 143.214 72.722 142.714C72.8765 142.198 73.0078 141.76 73.1159 141.4C73.2396 141.04 73.2937 140.844 73.2779 140.813C72.965 140.705 72.6371 140.745 72.294 140.934C71.9509 141.123 71.6003 141.405 71.2422 141.781C70.8841 142.142 70.5262 142.573 70.1686 143.074C69.8109 143.56 69.4532 144.053 69.0956 144.554C68.7379 145.04 68.3958 145.51 68.0693 145.964C67.7427 146.403 67.4314 146.763 67.1355 147.046C66.8396 147.328 66.559 147.493 66.2935 147.541C66.0437 147.589 65.8245 147.472 65.636 147.192C65.6204 147.176 65.6124 147.137 65.6122 147.074C65.612 147.012 65.6196 146.965 65.6351 146.934C65.7127 146.777 65.8291 146.535 65.9842 146.206C66.1548 145.862 66.341 145.478 66.5427 145.056C66.7443 144.633 66.9615 144.195 67.1943 143.741C67.4271 143.271 67.6443 142.833 67.846 142.426C68.0633 142.003 68.2495 141.628 68.4046 141.299C68.5753 140.97 68.7073 140.728 68.8005 140.571C68.8781 140.415 68.9868 140.219 69.1266 139.984C69.2663 139.734 69.4061 139.499 69.546 139.279C69.6858 139.045 69.8101 138.849 69.9189 138.692C70.0277 138.52 70.0821 138.434 70.0821 138.434L70.6446 138.432C70.7552 138.791 70.7408 139.127 70.6012 139.44C70.4617 139.753 70.2909 140.058 70.0888 140.356C69.9023 140.653 69.7393 140.951 69.5997 141.248C69.4757 141.53 69.4768 141.834 69.6029 142.162C70.9425 140.97 71.9707 140.091 72.6875 139.526C73.4199 138.961 73.9344 138.639 74.231 138.56C74.5276 138.481 74.6686 138.597 74.6541 138.91C74.6396 139.223 74.5707 139.645 74.4476 140.176C74.3401 140.708 74.225 141.318 74.1024 142.006C73.9954 142.678 73.9898 143.334 74.0858 143.975L74.3671 143.974C74.4606 143.911 74.6164 143.793 74.8346 143.62C75.0527 143.448 75.2865 143.259 75.5357 143.055C75.8007 142.851 76.0422 142.663 76.2603 142.49C76.4941 142.318 76.6578 142.2 76.7513 142.137C76.9227 141.996 77.172 141.8 77.4993 141.549C77.8265 141.297 78.1538 141.046 78.481 140.795C78.8238 140.528 79.1277 140.301 79.3927 140.112C79.6732 139.908 79.8525 139.783 79.9305 139.735C79.9928 139.688 80.1253 139.594 80.3279 139.453C80.5461 139.296 80.7799 139.131 81.0293 138.958C81.2943 138.785 81.5438 138.628 81.7777 138.487C82.0115 138.33 82.183 138.212 82.2921 138.133C82.5259 137.976 82.7444 137.905 82.9476 137.92C83.1508 137.935 83.3151 138.013 83.4406 138.153C83.5816 138.277 83.6682 138.457 83.7003 138.691C83.7323 138.91 83.7019 139.16 83.6091 139.441C83.2366 140.146 82.864 140.835 82.4913 141.508C82.1343 142.181 81.8007 142.862 81.4906 143.55C81.1961 144.223 80.9485 144.919 80.7479 145.639C80.5629 146.358 80.464 147.124 80.4512 147.937C80.3733 147.984 80.2873 147.984 80.1934 147.938C80.1151 147.891 80.0368 147.829 79.9584 147.751C79.88 147.673 79.8094 147.595 79.7466 147.517C79.6995 147.439 79.6759 147.4 79.6759 147.4ZM82.3548 156.133C82.2111 155.259 82.2549 154.368 82.4861 153.461C82.7018 152.57 82.9955 151.678 83.3674 150.786C83.7237 149.894 84.0878 149.002 84.4597 148.11C84.8316 147.234 85.0864 146.374 85.2241 145.529C85.224 145.498 85.2862 145.404 85.4106 145.248C85.5507 145.091 85.6986 144.926 85.8542 144.754C86.0254 144.566 86.1733 144.393 86.2977 144.237C86.4378 144.064 86.5155 143.962 86.5311 143.931C86.7791 143.383 87.0274 142.883 87.2758 142.429C87.5398 141.959 87.7414 141.505 87.8805 141.067C88.0196 140.629 88.0806 140.199 88.0635 139.777C88.0463 139.34 87.8884 138.872 87.5898 138.373C87.5585 138.342 87.5427 138.295 87.5424 138.232C87.5422 138.17 87.5577 138.131 87.5889 138.115C88.04 137.535 88.5618 137.049 89.1542 136.656C89.7465 136.264 90.3783 135.949 91.0493 135.712C91.7204 135.476 92.4151 135.317 93.1336 135.236C93.8521 135.156 94.563 135.138 95.2662 135.182C95.8617 135.68 96.2387 136.249 96.3972 136.889C96.5712 137.513 96.5813 138.17 96.4275 138.858C96.2892 139.53 96.0181 140.211 95.6143 140.9C95.2261 141.588 94.7752 142.231 94.2616 142.826C93.7481 143.422 93.2031 143.955 92.6266 144.426C92.0657 144.896 91.5357 145.257 91.0366 145.509C90.5842 145.73 90.2488 145.879 90.0303 145.958C89.8274 146.021 89.6244 146.061 89.4214 146.077C89.2183 146.094 88.9683 146.11 88.6715 146.127C88.3903 146.143 87.9531 146.207 87.3597 146.319C87.0942 146.367 86.8681 146.493 86.6813 146.696C86.5101 146.884 86.3624 147.104 86.2383 147.354C86.1297 147.589 86.0368 147.831 85.9596 148.082C85.898 148.347 85.8362 148.559 85.7743 148.715C85.4954 149.404 85.2398 150.037 85.0075 150.616C84.7908 151.211 84.5819 151.79 84.3807 152.353C84.164 152.932 83.9551 153.526 83.7541 154.136C83.5531 154.746 83.3445 155.411 83.1282 156.131C83.0973 156.209 83.0428 156.272 82.9648 156.319C82.8869 156.381 82.8089 156.413 82.7308 156.413C82.6371 156.429 82.5589 156.414 82.4962 156.367C82.418 156.336 82.3709 156.258 82.3548 156.133ZM87.6138 145.263C88.3331 145.401 89.0282 145.36 89.6993 145.139C90.3861 144.918 91.0255 144.58 91.6177 144.124C92.2098 143.654 92.7391 143.097 93.2056 142.455C93.6877 141.797 94.0916 141.108 94.4172 140.388C94.7428 139.668 94.9825 138.949 95.1362 138.229C95.2899 137.494 95.3345 136.822 95.2698 136.213C95.0504 136.026 94.7845 135.934 94.472 135.935C94.1751 135.92 93.9095 135.929 93.6752 135.961C92.8318 136.073 92.1685 136.294 91.6853 136.624C91.202 136.938 90.805 137.338 90.4942 137.824C90.199 138.309 89.9431 138.872 89.7266 139.514C89.51 140.14 89.2468 140.82 88.9368 141.556C88.8747 141.665 88.7817 141.861 88.6576 142.143C88.5336 142.409 88.4018 142.698 88.2622 143.011C88.1226 143.308 87.9908 143.598 87.8668 143.88C87.7428 144.161 87.6575 144.357 87.611 144.466L87.6138 145.263ZM98.9893 147.614C98.3321 147.351 97.9167 146.954 97.7429 146.423C97.5848 145.893 97.5906 145.307 97.7602 144.665C97.9298 144.009 98.2244 143.336 98.6438 142.647C99.0633 141.942 99.5298 141.3 100.043 140.72C100.557 140.14 101.071 139.654 101.585 139.261C102.115 138.853 102.567 138.625 102.942 138.577C103.91 138.449 104.669 138.516 105.216 138.78C105.78 139.028 106.164 139.394 106.369 139.878C106.573 140.361 106.63 140.931 106.539 141.588C106.447 142.229 106.238 142.878 105.913 143.535C105.602 144.193 105.191 144.827 104.677 145.438C104.179 146.049 103.618 146.567 102.995 146.991C102.387 147.399 101.74 147.675 101.053 147.818C100.365 147.945 99.6777 147.878 98.9893 147.614ZM98.7268 146.279C98.8536 146.779 99.1202 147.059 99.5266 147.12C99.933 147.166 100.401 147.063 100.932 146.811C101.478 146.543 102.047 146.166 102.639 145.68C103.231 145.178 103.768 144.637 104.25 144.057C104.748 143.477 105.153 142.898 105.463 142.318C105.789 141.723 105.944 141.207 105.926 140.77C105.925 140.332 105.713 140.005 105.29 139.788C104.883 139.555 104.195 139.51 103.227 139.654C103.009 139.858 102.729 140.109 102.386 140.407C102.043 140.69 101.685 141.003 101.311 141.348C100.953 141.693 100.595 142.07 100.237 142.477C99.879 142.869 99.5679 143.276 99.3038 143.699C99.0396 144.122 98.8458 144.552 98.7223 144.99C98.6145 145.428 98.616 145.858 98.7268 146.279ZM107.895 147.583C107.864 147.568 107.864 147.388 107.894 147.044C107.939 146.685 108 146.239 108.076 145.708C108.153 145.176 108.252 144.59 108.375 143.949C108.498 143.308 108.628 142.698 108.767 142.119C108.906 141.525 109.052 141.009 109.207 140.571C109.377 140.117 109.54 139.804 109.696 139.632C109.805 139.522 109.914 139.522 110.024 139.631C110.134 139.724 110.244 139.849 110.353 140.004C110.463 140.145 110.573 140.277 110.683 140.402C110.793 140.511 110.91 140.518 111.035 140.424C111.47 139.813 111.945 139.233 112.458 138.685C112.988 138.12 113.572 137.634 114.211 137.225C114.273 137.178 114.445 137.107 114.726 137.013C115.007 136.902 115.327 136.8 115.686 136.705C116.045 136.594 116.412 136.507 116.786 136.443C117.177 136.363 117.505 136.331 117.77 136.346C118.052 136.345 118.239 136.414 118.334 136.555C118.443 136.679 118.397 136.898 118.195 137.211C117.258 137.23 116.384 137.507 115.573 138.041C114.763 138.575 114.015 139.234 113.33 140.017C112.645 140.801 112.023 141.655 111.464 142.579C110.905 143.487 110.415 144.332 109.996 145.115C109.593 145.898 109.251 146.547 108.972 147.064C108.708 147.58 108.514 147.839 108.389 147.839C108.373 147.839 108.303 147.808 108.177 147.746C108.052 147.669 107.958 147.614 107.895 147.583ZM120.739 147.539C120.723 147.507 120.715 147.421 120.715 147.281C120.714 147.14 120.722 147.046 120.737 146.999C120.784 146.827 120.868 146.53 120.992 146.108C121.115 145.67 121.247 145.216 121.386 144.747C121.525 144.262 121.656 143.809 121.779 143.386C121.903 142.964 121.988 142.667 122.034 142.495C122.096 142.276 122.165 142.026 122.242 141.744C122.319 141.447 122.334 141.166 122.286 140.9C122.052 140.87 121.763 140.902 121.419 140.997C121.076 141.076 120.732 141.148 120.389 141.212C120.061 141.26 119.749 141.261 119.451 141.215C119.17 141.153 118.966 140.967 118.84 140.654C119.026 140.263 119.307 140.012 119.681 139.902C120.056 139.775 120.462 139.688 120.899 139.639C121.336 139.591 121.75 139.519 122.141 139.424C122.546 139.329 122.866 139.117 123.099 138.788C123.238 138.381 123.401 137.889 123.586 137.31C123.787 136.715 123.996 136.097 124.213 135.456C124.429 134.815 124.661 134.181 124.909 133.555C125.173 132.929 125.444 132.374 125.724 131.888C125.895 131.778 126.036 131.77 126.145 131.863C126.255 131.957 126.334 132.097 126.381 132.284C126.444 132.456 126.484 132.636 126.5 132.823C126.517 133.01 126.517 133.135 126.502 133.198C126.409 133.605 126.247 134.043 126.014 134.512C125.797 134.966 125.588 135.428 125.386 135.897C125.2 136.367 125.046 136.836 124.922 137.305C124.815 137.774 124.816 138.22 124.927 138.641L129.966 138.624C129.982 138.623 130.021 138.678 130.084 138.787C130.147 138.881 130.201 138.959 130.249 139.021C130.327 139.239 130.242 139.388 129.992 139.467C129.743 139.546 129.407 139.602 128.985 139.635C128.563 139.652 128.079 139.669 127.532 139.687C127.001 139.689 126.485 139.729 125.986 139.809C125.502 139.873 125.064 139.992 124.674 140.165C124.284 140.323 124.02 140.566 123.88 140.895C123.477 141.943 123.106 142.999 122.766 144.063C122.426 145.111 122.102 146.174 121.793 147.254C121.762 147.301 121.7 147.379 121.606 147.489C121.513 147.583 121.411 147.669 121.302 147.748C121.193 147.81 121.084 147.834 120.974 147.819C120.881 147.804 120.802 147.71 120.739 147.539ZM130.019 147.225C129.643 146.914 129.431 146.454 129.382 145.844C129.348 145.235 129.432 144.547 129.632 143.781C129.848 143.015 130.158 142.217 130.562 141.387C130.98 140.542 131.462 139.743 132.006 138.991C132.551 138.224 133.142 137.542 133.78 136.946C134.419 136.335 135.058 135.887 135.698 135.604C136.337 135.304 136.962 135.201 137.572 135.292C138.181 135.368 138.737 135.718 139.239 136.341C139.553 136.731 139.742 137.128 139.806 137.535C139.87 137.925 139.863 138.331 139.787 138.753C139.71 139.16 139.587 139.582 139.416 140.02C139.246 140.443 139.075 140.873 138.905 141.311C138.75 141.749 138.619 142.195 138.511 142.648C138.419 143.102 138.405 143.563 138.469 144.031C138.549 144.625 138.816 144.976 139.27 145.083C139.723 145.191 140.262 145.158 140.887 144.984C141.527 144.81 142.198 144.534 142.899 144.157C143.601 143.779 144.248 143.402 144.841 143.025C145.449 142.648 145.948 142.318 146.337 142.035C146.743 141.753 146.945 141.611 146.945 141.611C147.382 141.516 147.625 141.546 147.672 141.702C147.735 141.843 147.65 142.062 147.417 142.36C147.199 142.642 146.864 142.971 146.412 143.347C145.96 143.708 145.446 144.062 144.869 144.408C144.292 144.753 143.676 145.068 143.021 145.351C142.365 145.635 141.726 145.833 141.101 145.944C140.476 146.04 139.882 146.034 139.32 145.927C138.772 145.804 138.318 145.524 137.957 145.088C137.785 144.901 137.651 144.714 137.557 144.527C137.478 144.34 137.345 144.176 137.157 144.036C136.923 144.256 136.643 144.546 136.316 144.906C135.989 145.251 135.631 145.604 135.242 145.965C134.868 146.31 134.463 146.639 134.026 146.953C133.605 147.267 133.169 147.503 132.716 147.661C132.264 147.819 131.803 147.875 131.334 147.83C130.881 147.784 130.442 147.583 130.019 147.225ZM130.274 146.427C130.417 146.927 130.73 147.16 131.214 147.127C131.699 147.078 132.26 146.834 132.899 146.395C133.538 145.955 134.2 145.359 134.885 144.606C135.57 143.838 136.184 142.992 136.728 142.069C137.272 141.129 137.682 140.143 137.96 139.111C138.253 138.079 138.328 137.063 138.184 136.064C137.808 135.768 137.339 135.762 136.777 136.045C136.216 136.313 135.616 136.76 134.977 137.387C134.354 137.999 133.732 138.735 133.11 139.597C132.504 140.443 131.967 141.304 131.502 142.181C131.036 143.042 130.679 143.855 130.432 144.622C130.2 145.388 130.148 145.99 130.274 146.427ZM154.278 147.422C154.229 146.906 154.267 146.398 154.39 145.898C154.529 145.382 154.707 144.881 154.924 144.396C155.156 143.895 155.397 143.402 155.645 142.917C155.909 142.416 156.134 141.931 156.32 141.461C156.506 140.976 156.637 140.507 156.713 140.054C156.79 139.585 156.757 139.124 156.615 138.671C156.224 138.532 155.771 138.565 155.256 138.77C154.756 138.975 154.226 139.289 153.665 139.713C153.104 140.121 152.52 140.607 151.912 141.172C151.321 141.721 150.737 142.286 150.161 142.866C149.6 143.43 149.063 143.971 148.549 144.488C148.035 145.006 147.568 145.437 147.147 145.782C146.742 146.112 146.399 146.324 146.118 146.419C145.837 146.498 145.649 146.397 145.555 146.116C145.539 146.101 145.624 145.905 145.81 145.529C146.012 145.138 146.253 144.653 146.532 144.074C146.827 143.494 147.145 142.868 147.486 142.195C147.843 141.522 148.177 140.896 148.488 140.317C148.798 139.722 149.07 139.221 149.303 138.814C149.536 138.407 149.683 138.188 149.746 138.156C150.075 138.374 150.239 138.615 150.24 138.881C150.257 139.131 150.219 139.397 150.126 139.678C150.033 139.944 149.925 140.218 149.801 140.5C149.692 140.781 149.678 141.063 149.757 141.344C150.006 141.171 150.349 140.935 150.786 140.637C151.238 140.323 151.721 140.001 152.235 139.671C152.765 139.341 153.311 139.019 153.873 138.704C154.45 138.39 154.988 138.146 155.487 137.972C155.987 137.783 156.432 137.68 156.822 137.663C157.228 137.646 157.526 137.762 157.714 138.011C157.902 138.261 157.958 138.674 157.882 139.253C157.822 139.815 157.582 140.59 157.164 141.576C157.117 141.685 157.001 141.951 156.815 142.374C156.645 142.781 156.451 143.227 156.234 143.712C156.032 144.181 155.839 144.627 155.653 145.05C155.482 145.456 155.374 145.715 155.327 145.824C155.312 145.887 155.289 146.004 155.258 146.176C155.243 146.332 155.22 146.512 155.19 146.715C155.159 146.903 155.113 147.091 155.051 147.278C154.989 147.45 154.911 147.583 154.818 147.678C154.725 147.772 154.615 147.764 154.49 147.655C154.364 147.531 154.294 147.453 154.278 147.422ZM160.77 147.399C160.754 147.368 160.746 147.282 160.746 147.141C160.745 147.001 160.753 146.907 160.768 146.86C160.815 146.688 160.899 146.391 161.023 145.968C161.146 145.53 161.278 145.077 161.417 144.608C161.556 144.123 161.687 143.669 161.81 143.247C161.934 142.825 162.019 142.527 162.065 142.355C162.127 142.136 162.196 141.886 162.273 141.605C162.35 141.308 162.365 141.026 162.317 140.761C162.083 140.73 161.794 140.763 161.45 140.858C161.107 140.937 160.764 141.008 160.42 141.072C160.092 141.12 159.78 141.121 159.482 141.075C159.201 141.014 158.997 140.827 158.871 140.515C159.057 140.124 159.338 139.873 159.712 139.762C160.087 139.636 160.493 139.548 160.93 139.5C161.367 139.452 161.781 139.38 162.172 139.285C162.577 139.19 162.897 138.977 163.13 138.649C163.27 138.242 163.432 137.749 163.617 137.17C163.818 136.576 164.027 135.958 164.244 135.317C164.46 134.675 164.692 134.041 164.94 133.416C165.204 132.79 165.475 132.234 165.755 131.749C165.926 131.639 166.067 131.63 166.176 131.724C166.286 131.817 166.365 131.958 166.412 132.145C166.475 132.317 166.515 132.496 166.531 132.684C166.548 132.871 166.548 132.996 166.533 133.059C166.44 133.465 166.278 133.903 166.045 134.373C165.828 134.827 165.619 135.288 165.417 135.758C165.231 136.227 165.077 136.696 164.953 137.166C164.846 137.635 164.847 138.08 164.958 138.502L169.997 138.484C170.013 138.484 170.052 138.538 170.115 138.648C170.178 138.741 170.232 138.819 170.28 138.881C170.358 139.1 170.273 139.249 170.023 139.328C169.774 139.407 169.438 139.462 169.016 139.495C168.594 139.512 168.11 139.53 167.563 139.547C167.032 139.549 166.516 139.59 166.017 139.67C165.533 139.734 165.095 139.853 164.705 140.026C164.315 140.183 164.051 140.427 163.911 140.755C163.508 141.803 163.137 142.859 162.797 143.923C162.457 144.971 162.133 146.035 161.824 147.114C161.793 147.161 161.731 147.239 161.637 147.349C161.544 147.443 161.442 147.529 161.333 147.608C161.224 147.671 161.115 147.695 161.006 147.679C160.912 147.664 160.833 147.571 160.77 147.399ZM183.458 147.32C183.379 147.289 183.191 147.204 182.894 147.064C182.612 146.924 182.346 146.761 182.096 146.575C181.845 146.388 181.665 146.193 181.554 145.991C181.46 145.788 181.561 145.616 181.857 145.474C182.03 145.63 182.265 145.816 182.562 146.034C182.876 146.252 183.173 146.415 183.455 146.523C184.314 146.567 185.15 146.572 185.963 146.538C186.775 146.488 187.564 146.384 188.329 146.225C189.109 146.05 189.858 145.798 190.576 145.467C191.309 145.121 192.019 144.673 192.704 144.124C193.468 143.48 193.966 142.893 194.198 142.361C194.446 141.813 194.491 141.313 194.334 140.86C194.191 140.392 193.885 139.963 193.415 139.574C192.96 139.17 192.412 138.796 191.77 138.455C191.144 138.098 190.471 137.772 189.751 137.478C189.032 137.168 188.343 136.873 187.686 136.594C187.029 136.3 186.434 136.013 185.902 135.733C185.369 135.454 184.978 135.166 184.727 134.87C184.663 134.605 184.795 134.292 185.122 133.931C185.449 133.571 185.901 133.202 186.477 132.825C187.054 132.432 187.717 132.047 188.465 131.67C189.214 131.276 189.979 130.922 190.759 130.607C191.554 130.292 192.319 130.023 193.053 129.802C193.802 129.581 194.458 129.446 195.02 129.397C195.582 129.332 196.012 129.37 196.31 129.509C196.607 129.649 196.709 129.914 196.617 130.305C196.508 130.321 196.227 130.392 195.774 130.519C195.321 130.646 194.767 130.804 194.112 130.994C193.472 131.183 192.769 131.405 192.005 131.657C191.255 131.91 190.514 132.178 189.781 132.462C189.047 132.73 188.369 133.006 187.745 133.289C187.121 133.573 186.629 133.848 186.271 134.115C185.912 134.382 185.71 134.624 185.664 134.843C185.634 135.062 185.845 135.249 186.299 135.404C188.582 136.083 190.374 136.811 191.674 137.588C192.989 138.349 193.913 139.127 194.447 139.922C194.981 140.702 195.187 141.474 195.065 142.24C194.943 143.006 194.601 143.719 194.041 144.377C193.496 145.035 192.78 145.623 191.891 146.142C191.002 146.645 190.058 147.039 189.059 147.324C188.076 147.609 187.084 147.76 186.084 147.78C185.1 147.799 184.224 147.645 183.458 147.32ZM197.848 147.27C197.832 147.239 197.824 147.153 197.824 147.012C197.823 146.871 197.831 146.778 197.846 146.731C197.892 146.559 197.977 146.261 198.101 145.839C198.224 145.401 198.356 144.948 198.495 144.478C198.634 143.994 198.765 143.54 198.888 143.118C199.012 142.695 199.097 142.398 199.143 142.226C199.205 142.007 199.274 141.757 199.351 141.475C199.428 141.178 199.443 140.897 199.395 140.632C199.161 140.601 198.872 140.633 198.528 140.728C198.185 140.808 197.841 140.879 197.498 140.943C197.17 140.991 196.857 140.992 196.56 140.946C196.279 140.885 196.075 140.698 195.949 140.386C196.135 139.994 196.416 139.743 196.79 139.633C197.165 139.506 197.571 139.419 198.008 139.371C198.445 139.322 198.859 139.251 199.249 139.155C199.655 139.06 199.975 138.848 200.208 138.519C200.347 138.113 200.51 137.62 200.695 137.041C200.896 136.447 201.105 135.829 201.322 135.187C201.538 134.546 201.77 133.912 202.018 133.286C202.282 132.66 202.553 132.105 202.833 131.619C203.004 131.51 203.145 131.501 203.254 131.595C203.364 131.688 203.443 131.828 203.49 132.016C203.553 132.187 203.593 132.367 203.609 132.554C203.626 132.742 203.626 132.867 203.611 132.929C203.518 133.336 203.356 133.774 203.123 134.243C202.906 134.697 202.696 135.159 202.495 135.628C202.309 136.098 202.155 136.567 202.031 137.036C201.923 137.505 201.925 137.951 202.036 138.372L207.075 138.355C207.09 138.355 207.13 138.409 207.193 138.518C207.255 138.612 207.31 138.69 207.357 138.752C207.436 138.971 207.351 139.119 207.101 139.198C206.851 139.277 206.516 139.333 206.094 139.366C205.672 139.383 205.188 139.4 204.641 139.418C204.11 139.42 203.594 139.461 203.095 139.54C202.61 139.605 202.173 139.723 201.783 139.897C201.393 140.054 201.128 140.297 200.989 140.626C200.586 141.674 200.215 142.73 199.875 143.794C199.535 144.842 199.21 145.906 198.902 146.985C198.871 147.032 198.808 147.11 198.715 147.22C198.622 147.314 198.52 147.4 198.411 147.479C198.302 147.542 198.193 147.565 198.083 147.55C197.99 147.535 197.911 147.441 197.848 147.27ZM215.871 147.207C215.449 147.037 215.112 146.811 214.861 146.531C214.61 146.25 214.414 145.931 214.272 145.572C214.13 145.213 214.019 144.838 213.94 144.448C213.86 144.042 213.789 143.636 213.725 143.23C213.584 143.137 213.334 143.231 212.976 143.514C212.617 143.781 212.204 144.118 211.737 144.526C211.27 144.934 210.763 145.358 210.218 145.797C209.688 146.221 209.174 146.535 208.674 146.74C208.175 146.945 207.714 146.985 207.292 146.862C206.885 146.738 206.564 146.333 206.327 145.646C206.248 145.412 206.27 145.076 206.394 144.638C206.533 144.185 206.734 143.692 206.998 143.16C207.262 142.628 207.564 142.08 207.906 141.516C208.264 140.937 208.605 140.404 208.932 139.919C209.274 139.417 209.585 138.994 209.865 138.65C210.161 138.289 210.386 138.054 210.542 137.944C210.902 138.115 211.059 138.38 211.014 138.739C210.984 139.083 210.844 139.482 210.596 139.936C210.363 140.39 210.052 140.876 209.664 141.393C209.29 141.91 208.933 142.426 208.591 142.943C208.264 143.444 208.001 143.93 207.799 144.399C207.598 144.869 207.544 145.283 207.639 145.642C207.984 145.781 208.405 145.71 208.904 145.427C209.419 145.128 209.964 144.72 210.541 144.202C211.133 143.684 211.732 143.096 212.339 142.438C212.962 141.764 213.538 141.121 214.067 140.51C214.596 139.883 215.063 139.335 215.467 138.865C215.872 138.394 216.168 138.081 216.355 137.924C216.683 138.079 216.848 138.336 216.85 138.696C216.851 139.039 216.758 139.438 216.572 139.892C216.402 140.346 216.185 140.839 215.921 141.371C215.673 141.887 215.456 142.404 215.27 142.92C215.085 143.436 214.977 143.929 214.948 144.398C214.918 144.867 215.044 145.272 215.327 145.615L216.127 146.55L218.494 146.542C218.603 146.541 218.627 146.588 218.565 146.682C218.503 146.776 218.409 146.878 218.285 146.988C218.176 147.097 218.059 147.207 217.934 147.317C217.81 147.411 217.739 147.458 217.724 147.458C217.318 147.538 216.99 147.547 216.74 147.485C216.489 147.439 216.2 147.346 215.871 147.207ZM220.23 146.91C220.198 146.879 220.182 146.793 220.182 146.653C220.181 146.512 220.197 146.426 220.228 146.395L222.181 141.865L219.954 141.872C219.907 141.873 219.861 141.841 219.813 141.779C219.782 141.717 219.75 141.647 219.719 141.568C219.703 141.475 219.687 141.389 219.671 141.311C219.655 141.217 219.663 141.147 219.694 141.1C219.741 141.084 219.827 141.052 219.951 141.005C220.076 140.958 220.209 140.903 220.349 140.84C220.49 140.777 220.622 140.722 220.747 140.674C220.872 140.627 220.958 140.588 221.004 140.556C221.051 140.54 221.176 140.493 221.379 140.414C221.597 140.335 221.824 140.256 222.058 140.178C222.308 140.083 222.534 139.996 222.737 139.917C222.939 139.839 223.064 139.783 223.111 139.752C223.298 139.626 223.516 139.321 223.764 138.836C224.028 138.335 224.323 137.74 224.649 137.051C224.974 136.363 225.331 135.627 225.719 134.844C226.107 134.046 226.526 133.287 226.977 132.567C227.427 131.831 227.902 131.181 228.4 130.616C228.898 130.036 229.412 129.628 229.942 129.392C230.488 129.14 231.051 129.099 231.629 129.269C232.208 129.439 232.803 129.898 233.415 130.646C233.525 130.802 233.604 130.973 233.651 131.16C233.699 131.332 233.707 131.512 233.677 131.699C233.536 131.778 233.396 131.794 233.255 131.748C233.114 131.701 232.981 131.624 232.856 131.515C232.746 131.406 232.644 131.297 232.55 131.188C232.456 131.063 232.393 130.97 232.362 130.907C231.314 130.739 230.478 130.789 229.854 131.057C229.246 131.309 228.739 131.701 228.335 132.234C227.946 132.751 227.604 133.369 227.31 134.089C227.016 134.809 226.675 135.552 226.287 136.319C226.178 136.507 226.046 136.75 225.891 137.047C225.751 137.344 225.612 137.634 225.472 137.916C225.332 138.197 225.208 138.44 225.099 138.643C225.006 138.847 224.96 138.949 224.96 138.949L224.961 139.23C224.961 139.292 225.157 139.339 225.547 139.368C225.938 139.398 226.376 139.444 226.86 139.505C227.36 139.565 227.837 139.657 228.291 139.781C228.76 139.889 229.065 140.052 229.207 140.27L228.95 140.529C228.059 140.485 227.309 140.472 226.7 140.489C226.09 140.507 225.559 140.611 225.107 140.8C224.654 140.989 224.257 141.295 223.915 141.718C223.572 142.125 223.223 142.705 222.866 143.456C222.742 143.722 222.579 144.066 222.378 144.489C222.176 144.896 221.974 145.303 221.772 145.71C221.571 146.101 221.4 146.445 221.26 146.743C221.121 147.025 221.043 147.173 221.028 147.189L220.747 147.448C220.7 147.417 220.606 147.339 220.465 147.214C220.34 147.074 220.261 146.973 220.23 146.91ZM231.245 146.872C231.214 146.841 231.198 146.755 231.198 146.614C231.197 146.474 231.212 146.388 231.244 146.356L233.196 141.826L230.97 141.834C230.923 141.834 230.876 141.803 230.829 141.741C230.798 141.678 230.766 141.608 230.734 141.53C230.719 141.436 230.703 141.351 230.687 141.272C230.671 141.179 230.678 141.108 230.709 141.061C230.756 141.046 230.842 141.014 230.967 140.967C231.092 140.919 231.224 140.864 231.365 140.801C231.505 140.738 231.638 140.683 231.763 140.636C231.887 140.589 231.973 140.549 232.02 140.518C232.067 140.502 232.192 140.455 232.395 140.376C232.613 140.297 232.839 140.218 233.073 140.139C233.323 140.045 233.549 139.958 233.752 139.879C233.955 139.8 234.08 139.745 234.127 139.714C234.314 139.588 234.531 139.282 234.78 138.797C235.044 138.296 235.338 137.702 235.664 137.013C235.99 136.324 236.347 135.589 236.735 134.806C237.122 134.008 237.542 133.249 237.992 132.528C238.443 131.792 238.917 131.142 239.415 130.578C239.913 129.998 240.427 129.59 240.958 129.354C241.504 129.102 242.066 129.061 242.645 129.231C243.224 129.401 243.819 129.859 244.431 130.607C244.541 130.763 244.62 130.935 244.667 131.122C244.715 131.294 244.723 131.473 244.692 131.661C244.552 131.74 244.411 131.756 244.271 131.709C244.13 131.663 243.997 131.585 243.871 131.476C243.762 131.367 243.66 131.258 243.566 131.149C243.471 131.025 243.409 130.931 243.377 130.869C242.33 130.701 241.494 130.75 240.87 131.018C240.261 131.27 239.755 131.663 239.35 132.195C238.962 132.712 238.62 133.331 238.326 134.05C238.031 134.77 237.69 135.514 237.302 136.281C237.193 136.468 237.061 136.711 236.906 137.009C236.767 137.306 236.627 137.595 236.487 137.877C236.348 138.159 236.224 138.402 236.115 138.605C236.022 138.809 235.975 138.91 235.975 138.91L235.976 139.192C235.977 139.254 236.172 139.3 236.563 139.33C236.954 139.36 237.391 139.405 237.876 139.466C238.376 139.527 238.853 139.619 239.306 139.742C239.776 139.85 240.081 140.013 240.222 140.231L239.965 140.49C239.075 140.446 238.324 140.433 237.715 140.451C237.106 140.469 236.575 140.572 236.122 140.761C235.67 140.95 235.273 141.256 234.93 141.68C234.588 142.087 234.238 142.666 233.882 143.418C233.758 143.684 233.595 144.028 233.393 144.451C233.191 144.857 232.99 145.264 232.788 145.671C232.586 146.063 232.416 146.407 232.276 146.704C232.136 146.986 232.059 147.135 232.043 147.151L231.763 147.409C231.716 147.378 231.622 147.3 231.481 147.176C231.355 147.036 231.277 146.934 231.245 146.872ZM241.581 146.836C241.456 146.649 241.439 146.446 241.532 146.227C241.641 146.008 241.789 145.828 241.976 145.686C242.163 145.529 242.35 145.451 242.537 145.45C242.725 145.434 242.85 145.543 242.913 145.777C242.977 146.011 242.978 146.253 242.916 146.503C242.87 146.753 242.777 146.957 242.637 147.114C242.512 147.27 242.356 147.341 242.169 147.326C241.981 147.311 241.785 147.148 241.581 146.836ZM242.894 140.222C242.862 140.128 242.877 139.894 242.938 139.519C243 139.144 243.092 138.69 243.215 138.158C243.338 137.611 243.492 137.009 243.677 136.352C243.863 135.695 244.064 135.038 244.28 134.381C244.496 133.724 244.721 133.091 244.953 132.48C245.185 131.87 245.41 131.338 245.627 130.884C245.86 130.43 246.078 130.086 246.28 129.851C246.498 129.616 246.693 129.537 246.865 129.614C246.881 129.693 246.851 129.958 246.774 130.412C246.713 130.849 246.613 131.397 246.475 132.053C246.337 132.694 246.167 133.406 245.967 134.188C245.782 134.97 245.582 135.736 245.365 136.487C245.165 137.238 244.949 137.941 244.717 138.599C244.484 139.24 244.26 139.756 244.042 140.148C243.825 140.539 243.615 140.759 243.412 140.806C243.209 140.854 243.036 140.659 242.894 140.222Z" fill="#F3E9C9"/>
<path d="M36.3891 33.4222C37.4843 34.3212 38.2774 35.011 39.0214 35.6581C39.9815 36.4932 40.8599 37.2572 42.2 38.3076C42.9761 38.9164 43.794 39.4539 44.5413 39.9442C45.3894 40.5105 46.4362 40.7307 46.8106 39.5313C47.1721 38.5216 46.0174 36.6117 45.3943 35.9972C41.5727 32.2906 37.7022 28.7449 33.8391 25.2059L33.8375 25.2044L33.7873 25.1584C33.2374 24.6547 32.6877 24.1511 32.1383 23.6471C31.1123 22.6989 30.044 21.8519 28.9939 21.1636C27.065 19.9101 25.8868 20.9999 26.3528 23.9814C27.5548 31.7077 28.8994 39.4387 30.2746 47.1685C30.4158 47.9703 30.9861 49.4037 31.667 49.5478C32.3092 49.5538 32.4027 48.046 32.2822 47.2236C31.8779 44.1828 31.3994 41.1396 30.9194 38.0876C30.7343 36.9106 30.549 35.7323 30.3677 34.5523C30.2463 33.7897 30.1353 33.0167 30.1168 32.8878C32.4313 37.4815 34.7574 42.1097 37.0946 46.76C43.301 59.1087 49.5854 71.6124 55.9355 84.0349C60.4904 92.9524 65.175 101.759 69.8557 110.558C71.082 112.863 72.3081 115.168 73.5315 117.474C75.2776 120.767 76.5565 121.845 77.3076 120.682C78.4423 118.917 77.3924 116.948 76.4629 115.204C76.3497 114.992 76.2383 114.783 76.1329 114.578C71.5595 105.597 66.968 96.6344 62.3764 87.6714C57.7849 78.7085 53.1934 69.7455 48.6201 60.7645C45.5746 54.7742 42.5829 48.7302 39.5912 42.6862C38.2316 39.9396 36.8721 37.1929 35.5075 34.4513C35.2796 34.0014 34.2198 31.8788 34.0022 31.4187C34.6865 32.0309 35.5126 32.7076 36.3891 33.4222Z" fill="#F3E9C9"/>
<path d="M58.8464 36.1134C59.6195 39.3676 60.3464 42.4272 61.1392 45.4753C61.1776 45.6245 61.2154 45.7797 61.2534 45.9389C61.278 46.0415 61.3026 46.1459 61.3274 46.2513C61.7484 48.0366 62.2458 50.1461 63.7539 50.0209C65.3204 49.8837 64.8548 47.7217 64.469 45.9309C64.4174 45.6912 64.3672 45.4582 64.3235 45.2376C63.0527 38.7293 61.6798 32.2347 60.297 25.7206C59.8962 23.8525 59.3402 22.1396 57.8224 21.3591C56.2136 20.5221 55.6237 21.8192 55.0622 23.2647C52.8903 28.8547 51.5035 35.1329 51.104 42.2212C51.0629 42.94 51.1574 44.142 51.7598 44.7772C52.386 45.1824 52.7974 44.2406 52.9799 43.6161C53.3916 42.2844 53.7242 40.8612 54.1122 39.2003C54.2587 38.5734 54.413 37.9128 54.5826 37.2104C56.3195 51.562 60.092 64.7621 64.7855 77.7188C69.234 90.0072 74.198 101.898 80.6692 112.517C81.147 113.306 81.6653 114.114 82.1966 114.732C82.2312 114.772 82.2647 114.81 82.2972 114.848C82.9991 115.656 83.2307 115.922 83.9281 115.534C84.4351 115.027 84.0497 113.497 83.7457 112.682C83.096 110.988 82.3255 109.341 81.5592 107.704C81.3526 107.262 81.1462 106.821 80.9426 106.38C73.1562 89.503 66.2131 72.1366 61.3562 53.6267C59.57 46.8087 57.9575 39.9644 57.701 33.1196C57.7067 32.7308 57.7124 32.3421 57.7066 31.346C58.1047 32.991 58.4809 34.5747 58.8464 36.1134Z" fill="#F3E9C9"/>
<path d="M26.0133 71.7161C25.9372 71.7284 25.8611 71.7408 25.7853 71.7536C24.0681 72.0564 20.6203 72.8817 20.6392 72.9806C21.1145 73.2419 21.5897 73.505 22.065 73.7682C23.491 74.5578 24.9169 75.3474 26.3437 76.0865C39.4459 82.933 51.8663 93.1721 63.35 107.501C66.0339 110.862 68.4845 114.811 70.9168 118.73C71.4603 119.606 72.0028 120.48 72.5469 121.346C73.1147 122.252 73.9663 124.671 73.3869 125.251C72.8553 125.782 71.7574 124.444 71.061 123.595L70.996 123.516C69.5151 121.713 68.0544 119.859 66.5942 118.005C64.2422 115.02 61.8916 112.037 59.4602 109.269C47.2368 95.3264 34.0877 86.1106 20.7263 78.1679C20.5544 78.0747 19.5222 77.5451 20.0234 78.1343C20.8513 79.3649 21.6674 80.5663 22.4722 81.7512C24.3055 84.4501 26.0805 87.0634 27.8054 89.741C27.9397 89.949 28.0911 90.1647 28.2472 90.3872C29.0991 91.6013 30.0933 93.0184 29.2447 94.4896C28.3502 96.0143 27.1937 94.3614 26.289 93.0684C26.2208 92.9709 26.154 92.8754 26.0888 92.7835C22.2033 87.2988 18.3489 81.7829 14.5367 76.1659C11.9219 72.3277 12.0881 69.3327 15.0139 68.6463C16.3969 68.3272 17.8716 68.3162 19.3456 68.3052C19.7905 68.3018 20.2352 68.2985 20.6774 68.2868C21.0134 68.2794 21.3494 68.2703 21.6857 68.2612C23.3089 68.2172 24.9368 68.1732 26.5899 68.3264C27.1804 68.3842 28.1467 68.5376 28.5355 69.8283C28.7289 70.5484 28.1706 71.0772 27.34 71.407C26.9269 71.5675 26.4701 71.6417 26.0133 71.7161Z" fill="#F3E9C9"/>
</svg>
