<svg xmlns="http://www.w3.org/2000/svg" viewBox="0 0 148.74 109.98"><defs><style>.cls-1{fill:#ba9e7c;}.cls-2{fill:#858585;}.cls-3,.cls-4{fill:none;stroke:#ba9e7c;stroke-miterlimit:10;}.cls-3{stroke-linecap:round;stroke-width:0.1px;}.cls-4{stroke-width:0.25px;}</style></defs><g id="Layer_2" data-name="Layer 2"><g id="Layer_1-2" data-name="Layer 1"><path class="cls-1" d="M52.18,38.17a7.14,7.14,0,0,1,3.67-3,2.29,2.29,0,0,1,2.06.35,40.93,40.93,0,0,0,6.72,3.36c7.08,3.18,14.37,5.83,21.68,8.44,8.15,2.9,16.31,5.78,24.37,8.91a112.78,112.78,0,0,1,17.73,8.33A46.31,46.31,0,0,1,138.12,72a23.41,23.41,0,0,1,6.41,13,3.25,3.25,0,0,0,.54,1.44,18,18,0,0,1,3.67,10.37,6.85,6.85,0,0,1-4.21,6.71c-.84.4-.85.43-.45,1.27a5.41,5.41,0,0,1,.58,2.26,2.84,2.84,0,0,1-3,2.91,19.29,19.29,0,0,1-6.48-1.08,3.23,3.23,0,0,0-2,0,19.42,19.42,0,0,1-11.15.08,2.76,2.76,0,0,0-.91-.08,26.15,26.15,0,0,1-14.71-4.32A74.84,74.84,0,0,1,93.8,94.21a175.72,175.72,0,0,1-15.72-18c-3.76-4.83-7.46-9.71-11.31-14.47a186.06,186.06,0,0,0-13.93-16,3,3,0,0,0-.6-.51,3.29,3.29,0,0,1-1.57-3.64c0-.24.25-.57-.29-.58-.21,0-.23-.3-.11-.42.73-.74.95-1.89,1.93-2.42a1.73,1.73,0,0,1-.1.24c-.28.45-.24.7.37.63a.67.67,0,0,1,.6.34,7.52,7.52,0,0,0,3,2.16,3,3,0,0,1,1.26,1,12.8,12.8,0,0,0,2.39,2q6.33,5.13,12.66,10.23C77.67,59,83,63.11,88.19,67.48c6.38,5.41,12.88,10.68,19.4,15.92,4.07,3.28,8.2,6.49,12.43,9.57a48.35,48.35,0,0,0,11.29,6.38,8.53,8.53,0,0,0,4.26.78c.59-.08,1.07-.28,1.23-.9a1.88,1.88,0,0,0-.31-1.85c-.46-.49-1-.95-1.44-1.42A139.27,139.27,0,0,0,122.5,85.51c-8.16-6.23-16.51-12.18-25-18-5.34-3.69-10.67-7.4-16-11-4.75-3.2-9.57-6.3-14.4-9.39l-8-5.13a2.52,2.52,0,0,0-1.59-.53.53.53,0,0,1-.54-.39.83.83,0,0,0-.36-.44l-2.46-1.5a.68.68,0,0,0-.43-.11.72.72,0,0,1-1-.61C52.64,38,52.43,38,52.18,38.17Zm5.55,1c.89.48,1.45,1.15,2.22,1.58,1.51.86,3,1.76,4.5,2.66,4.47,2.67,8.9,5.4,13.51,7.83,5.75,3,11.54,6,17.16,9.23,6.39,3.71,12.8,7.38,18.85,11.64a102.28,102.28,0,0,1,20,18,22.4,22.4,0,0,1,4.19,6.58,1.72,1.72,0,0,0,.65.79c.44.34.52.12.52-.27,0-.89,0-1.79-.08-2.68a33.69,33.69,0,0,0-4.74-14,10,10,0,0,0-3.29-4c-8.65-5.33-17.48-10.33-26.59-14.85-6.5-3.23-13.12-6.19-19.65-9.35-6.77-3.27-13.53-6.56-20.17-10.1-1.65-.88-3.29-1.8-5-2.66A3,3,0,0,0,57.73,39.14Zm9,12.87a.79.79,0,0,0,.38.6c1.3,1.29,2.6,2.58,3.94,3.83,4.47,4.21,8.92,8.45,13.29,12.77,7,6.9,14.1,13.63,21.61,19.94A117,117,0,0,0,125.75,103a3.5,3.5,0,0,0,1.29.42,53.88,53.88,0,0,0,5.68.29,1.61,1.61,0,0,0,.94-.21c.62-.41,1.23-.83,1.83-1.25.14-.1.35-.19.29-.39s-.3-.15-.46-.14a12,12,0,0,1-4.75-1A51.16,51.16,0,0,1,118.86,94c-5.61-4.11-11-8.48-16.42-12.84-5.6-4.52-11.08-9.17-16.62-13.75-5.29-4.37-10.68-8.63-16-12.93C68.8,53.63,67.79,52.85,66.73,52ZM56.54,45.09l-.12.14c1.25,1.4,2.62,2.67,3.93,4,3.76,3.8,7.36,7.74,11,11.61C76.62,66.37,81.69,72,86.85,77.62a110.41,110.41,0,0,0,8.22,8.68,111,111,0,0,0,14,10.72,43.38,43.38,0,0,0,9.47,4.4,2,2,0,0,0,1.24.22c0-.3-.28-.36-.45-.48-2.23-1.48-4.48-2.94-6.62-4.55A224.46,224.46,0,0,1,93.49,80.17C88,75,82.66,69.62,77.22,64.38,71.48,58.84,65.75,53.29,59.82,48,58.74,47,57.63,46.05,56.54,45.09Zm59.16,61.48c-.11-.38-.38-.46-.6-.59a45.65,45.65,0,0,1-6.41-4.84c-4.82-4.27-9.63-8.56-14.18-13.14-3.82-3.85-7.9-7.44-11.64-11.38C78,71.53,73.42,66.25,68.63,61.13c-.23-.25-.48-.49-.72-.74a.52.52,0,0,0,.13.42q4.21,5.46,8.44,10.91A216.34,216.34,0,0,0,92.16,90.37a95.6,95.6,0,0,0,11.55,10.39,33.4,33.4,0,0,0,10,5.38A6.61,6.61,0,0,0,115.7,106.57ZM87.12,49.29l-.05.15a67,67,0,0,0,6.58,2.85c5,1.87,9.83,3.92,14.59,6.26q6.51,3.2,12.75,6.91a44.72,44.72,0,0,1,12.26,10.36,3.62,3.62,0,0,0,.92.91,43.35,43.35,0,0,1,4.19,2.9,38,38,0,0,1,3.42,2.93c.12.12.25.31.44.21s.05-.32,0-.48a18,18,0,0,0-.79-2.35,24,24,0,0,0-6.73-9,59.84,59.84,0,0,0-12.56-8.06,181.6,181.6,0,0,0-18.52-7.71c-4.42-1.67-8.88-3.25-13.32-4.86C89.26,50,88.18,49.64,87.12,49.29ZM133,91.86a3.64,3.64,0,0,0-.77-1.25,104.53,104.53,0,0,0-20-17.78c-4.64-3.25-9.49-6.17-14.39-9-4.39-2.54-8.74-5.16-13.28-7.44a1.93,1.93,0,0,0-.9-.3C100.4,67.68,117.3,79,133,91.86ZM81.61,49a.78.78,0,0,0,.51.48c2.09,1,4.18,2,6.29,3,6.2,2.89,12.42,5.75,18.54,8.8,6.51,3.26,12.91,6.71,19.15,10.46a4.17,4.17,0,0,0,1.56.74,1,1,0,0,0-.43-.63,31.87,31.87,0,0,0-3.42-2.72,147.49,147.49,0,0,0-21.68-11.78c-5.38-2.43-11-4.39-16.36-6.79A39.93,39.93,0,0,0,81.61,49ZM147.2,96.44a14.84,14.84,0,0,0-1.91-6.7c-.07-.14-.13-.38-.33-.36s-.23.28-.25.47a18.72,18.72,0,0,1-3.49,9.37.86.86,0,0,0,.05,1.14,11.85,11.85,0,0,1,1.06,1.49.8.8,0,0,0,1.14.36C146.14,101.21,147.25,99.59,147.2,96.44Zm-36.79,3.23a8.61,8.61,0,0,0-1.92-.91,7.88,7.88,0,0,0,1.49,1.47,32.31,32.31,0,0,0,10.63,6.63,2.78,2.78,0,0,0,.93.28,22.59,22.59,0,0,0,5.66-.9c.14,0,.32-.08.34-.26s-.16-.25-.29-.32M143,88.2a8,8,0,0,0,0-.85c-.05-.48.1-1-.28-1.43A33.78,33.78,0,0,0,139,82.16c-.69-.57-1.4-1.11-2.11-1.66-.1-.08-.23-.18-.35-.1s0,.28,0,.41c.14.32.31.62.47.93A35,35,0,0,1,141,95c0,.2-.08.53.16.57s.32-.3.41-.5A15.3,15.3,0,0,0,143,88.2Zm-1.89,20.21a3.77,3.77,0,0,0,1.29-.19,1.07,1.07,0,0,0,.8-1.45,12.64,12.64,0,0,0-.7-1.76.78.78,0,0,0-1-.48c-.72.18-1.44.32-2.17.48a1,1,0,0,0-.66.38A9.6,9.6,0,0,1,137,107c-.4.3-.36.47.11.64A17.94,17.94,0,0,0,141.14,108.41Zm-6.33-3a2.85,2.85,0,0,0-1.7.33c-.12.08-.3.13-.3.31s.2.2.33.26a1.53,1.53,0,0,0,1.83-.11c.27-.22.86-.28.73-.68S135.08,105.49,134.81,105.43Zm-6.72,2.47a6.12,6.12,0,0,0,2.56-.1c.16,0,.39,0,.4-.25s-.21-.25-.37-.31C129.68,106.88,129,107.62,128.09,107.9Zm-70.71-69a1.35,1.35,0,0,0-1.65-1.24Zm80.78,63.65a1.78,1.78,0,0,0-.75.64c-.07.16.08.22.23.22.41,0,.6-.29.71-.65C138.39,102.6,138.32,102.53,138.16,102.52ZM52.73,42.09c.14.6.65.73,1.13.9A2.7,2.7,0,0,0,52.73,42.09Z"/><path class="cls-2" d="M2.4,2,1.9,3.36C1.48,2.58,2.2,2.39,2.4,2Z"/><path class="cls-2" d="M57.23,34a9.78,9.78,0,0,0-2.09.24A2.48,2.48,0,0,1,57.23,34Z"/><path class="cls-3" d="M4.71,10.48a.92.92,0,0,1,.23-.92"/><path class="cls-3" d="M4.32,10.19a.92.92,0,0,1,.23-.92"/><path class="cls-3" d="M3.93,9.9A.92.92,0,0,1,4.16,9"/><path class="cls-3" d="M3.54,9.6a.92.92,0,0,1,.23-.92"/><path class="cls-3" d="M3.15,9.31a.92.92,0,0,1,.23-.92"/><path class="cls-3" d="M2.76,9A.92.92,0,0,1,3,8.1"/><path class="cls-3" d="M2.37,8.73a.92.92,0,0,1,.23-.92"/><path class="cls-3" d="M2,8.43a.92.92,0,0,1,.23-.92"/><path class="cls-3" d="M1.59,8.14a.92.92,0,0,1,.23-.92"/><path class="cls-3" d="M1.19,7.85a.94.94,0,0,1,.23-.92"/><path class="cls-3" d="M.51,2.91a.9.9,0,0,1,.91.23"/><path class="cls-3" d="M.37,3.42a.92.92,0,0,1,.93.18"/><path class="cls-3" d="M.23,3.93a.92.92,0,0,1,.94.13"/><path class="cls-3" d="M.22,4.46a.93.93,0,0,1,1-.06"/><path class="cls-3" d="M.25,5a.93.93,0,0,1,.94-.11"/><path class="cls-3" d="M.26,5.5A.87.87,0,0,1,1,5.35"/><path class="cls-3" d="M.29,6.17A1.06,1.06,0,0,1,1,5.83"/><path class="cls-3" d="M.5,6.68a1.14,1.14,0,0,1,.69-.4"/><path class="cls-3" d="M.74,7.23a1.11,1.11,0,0,1,.56-.58"/><line class="cls-3" x1="4.79" y1="10.48" x2="4.5" y2="9.83"/><line class="cls-3" x1="4.5" y1="10.27" x2="4.21" y2="9.62"/><line class="cls-3" x1="4.21" y1="10.06" x2="3.92" y2="9.41"/><line class="cls-3" x1="3.92" y1="9.85" x2="3.63" y2="9.2"/><line class="cls-3" x1="3.62" y1="9.64" x2="3.34" y2="8.99"/><line class="cls-3" x1="3.33" y1="9.43" x2="3.05" y2="8.78"/><line class="cls-3" x1="3.04" y1="9.22" x2="2.75" y2="8.57"/><line class="cls-3" x1="2.75" y1="9.01" x2="2.46" y2="8.36"/><line class="cls-3" x1="2.46" y1="8.8" x2="2.17" y2="8.15"/><line class="cls-3" x1="2.17" y1="8.59" x2="1.88" y2="7.94"/><line class="cls-3" x1="1.87" y1="8.38" x2="1.59" y2="7.73"/><line class="cls-3" x1="1.58" y1="8.17" x2="1.3" y2="7.52"/></g><g id="Layer_2-2" data-name="Layer 2"><path class="cls-4" d="M8,14.87l42.07,30,1.07.75a1.51,1.51,0,0,1,.64-.13c.33,0,7.31-9.09,7.31-9.09s-.27-.72-.38-1.1A2.43,2.43,0,0,0,57,33.88a2.33,2.33,0,0,0-.59-.59l-26-17.88L13.29,3.53a3.58,3.58,0,0,0-1.82-.45c-1,.06-1.32,0-1.32,0L6.47.69s-2.5-1.76-5,.93A4.83,4.83,0,0,0,1,7.68,18.22,18.22,0,0,0,3.22,9.55a7.49,7.49,0,0,0,.65.45,4.22,4.22,0,0,1,1,.81,3.82,3.82,0,0,1,.5,1.47C5.59,13.15,8,14.87,8,14.87Z"/><path class="cls-4" d="M4.91,8.76a.41.41,0,0,0,.6-.24,7.21,7.21,0,0,1,1-2.3c.36-.38,1.19-1.32,1.65-1.73a.49.49,0,0,0,0-.76L5.21,1.8S3.51.84,2,3.4,3.16,7.73,3.16,7.73Z"/><path class="cls-4" d="M51.14,45.65s-4.41-2.53.38-8.62A8.39,8.39,0,0,1,57,33.88"/><path class="cls-4" d="M51.78,45.52a13.47,13.47,0,0,0-1.16-2.22c-.65-1.09.22-3.07,1-4.39A8.89,8.89,0,0,1,54.11,36a3.86,3.86,0,0,1,2.58-.9"/><path class="cls-1" d="M7.14,8.16a4,4,0,0,0-.83,3.44,8.55,8.55,0,0,0,.63,1.71,5.6,5.6,0,0,0,1,1.52v0a4,4,0,0,1-1.22-1.43,6.4,6.4,0,0,1-.6-1.79,4,4,0,0,1,1-3.5Z"/><path class="cls-1" d="M8.12,8.86a4,4,0,0,0-.83,3.44A8.78,8.78,0,0,0,7.92,14a5.67,5.67,0,0,0,1,1.52v0A3.83,3.83,0,0,1,7.7,14.12a6.58,6.58,0,0,1-.61-1.78,4,4,0,0,1,1-3.5Z"/><path class="cls-1" d="M9.09,9.55A4,4,0,0,0,8.27,13,8.55,8.55,0,0,0,8.9,14.7a5.38,5.38,0,0,0,1,1.52l0,0a3.79,3.79,0,0,1-1.21-1.42A6.77,6.77,0,0,1,8.07,13a4,4,0,0,1,1-3.5Z"/><path class="cls-1" d="M10.07,10.24a4,4,0,0,0-.82,3.44,8.64,8.64,0,0,0,.63,1.72,5.45,5.45,0,0,0,1,1.52l0,0a4,4,0,0,1-1.22-1.43,6.56,6.56,0,0,1-.6-1.78,4,4,0,0,1,1-3.5Z"/><path class="cls-1" d="M11.05,10.94a4,4,0,0,0-.83,3.44,8.55,8.55,0,0,0,.63,1.71,5.6,5.6,0,0,0,1,1.52v0a3.9,3.9,0,0,1-1.22-1.42,6.4,6.4,0,0,1-.6-1.79,4,4,0,0,1,1-3.5Z"/><path class="cls-1" d="M12,11.63a4,4,0,0,0-.83,3.44,8.64,8.64,0,0,0,.63,1.72,5.67,5.67,0,0,0,1,1.52v0a3.92,3.92,0,0,1-1.22-1.43,6.23,6.23,0,0,1-.6-1.78,4,4,0,0,1,1-3.5Z"/><path class="cls-1" d="M13,12.33a4,4,0,0,0-.82,3.44,8.55,8.55,0,0,0,.63,1.71,5.52,5.52,0,0,0,1,1.52v0a3.72,3.72,0,0,1-1.22-1.42A6.77,6.77,0,0,1,12,15.81a4,4,0,0,1,1-3.5Z"/><path class="cls-1" d="M14,13a4,4,0,0,0-.82,3.44,8.64,8.64,0,0,0,.63,1.72,5.45,5.45,0,0,0,1,1.52l0,0a3.9,3.9,0,0,1-1.21-1.43A6.21,6.21,0,0,1,13,16.5,4,4,0,0,1,14,13Z"/><path class="cls-1" d="M15,13.72a4,4,0,0,0-.83,3.44,8.58,8.58,0,0,0,.64,1.71,5.31,5.31,0,0,0,1,1.52l0,0A3.9,3.9,0,0,1,14.54,19a6.4,6.4,0,0,1-.6-1.79,4,4,0,0,1,1-3.5Z"/><path class="cls-1" d="M15.94,14.41a4,4,0,0,0-.83,3.44,8.64,8.64,0,0,0,.63,1.72,5.92,5.92,0,0,0,1,1.52v0a3.92,3.92,0,0,1-1.22-1.43,6.19,6.19,0,0,1-.6-1.79,4,4,0,0,1,1-3.49Z"/><path class="cls-1" d="M16.91,15.11a4,4,0,0,0-.82,3.44,8.55,8.55,0,0,0,.63,1.71,5.52,5.52,0,0,0,1,1.52v0a3.72,3.72,0,0,1-1.22-1.42,6.77,6.77,0,0,1-.61-1.79,4,4,0,0,1,1-3.5Z"/><path class="cls-1" d="M17.89,15.8a4,4,0,0,0-.82,3.44A8.87,8.87,0,0,0,17.7,21a5.45,5.45,0,0,0,1,1.52l0,0a3.9,3.9,0,0,1-1.21-1.43,6.21,6.21,0,0,1-.61-1.79,4,4,0,0,1,1-3.49Z"/><path class="cls-1" d="M18.87,16.5a4,4,0,0,0-.82,3.44,8,8,0,0,0,.63,1.71,5.31,5.31,0,0,0,1,1.52l0,0a4,4,0,0,1-1.22-1.42,6.4,6.4,0,0,1-.6-1.79,4,4,0,0,1,1-3.5Z"/><path class="cls-1" d="M19.85,17.19A4,4,0,0,0,19,20.63a8.87,8.87,0,0,0,.63,1.72,5.92,5.92,0,0,0,1,1.52v0a4,4,0,0,1-1.22-1.43,6.19,6.19,0,0,1-.6-1.79,4,4,0,0,1,1-3.49Z"/><path class="cls-1" d="M20.83,17.89A4,4,0,0,0,20,21.33,8.55,8.55,0,0,0,20.63,23a5.52,5.52,0,0,0,1,1.52v0a3.75,3.75,0,0,1-1.22-1.43,6.58,6.58,0,0,1-.61-1.78,4,4,0,0,1,1-3.5Z"/><path class="cls-1" d="M21.8,18.58A4,4,0,0,0,21,22a8.87,8.87,0,0,0,.63,1.72,5.67,5.67,0,0,0,1,1.52l0,0a3.9,3.9,0,0,1-1.21-1.43,6.53,6.53,0,0,1-.61-1.79,4,4,0,0,1,1-3.49Z"/><path class="cls-1" d="M22.78,19.28A4,4,0,0,0,22,22.72a8.55,8.55,0,0,0,.63,1.71,5.31,5.31,0,0,0,1,1.52l0,0a3.94,3.94,0,0,1-1.22-1.43,6.56,6.56,0,0,1-.6-1.78,4,4,0,0,1,1-3.5Z"/><path class="cls-1" d="M23.76,20a4,4,0,0,0-.83,3.44,8.87,8.87,0,0,0,.63,1.72,5.92,5.92,0,0,0,1,1.52v0a4,4,0,0,1-1.22-1.43,6.3,6.3,0,0,1-.6-1.79,4,4,0,0,1,1-3.5Z"/><path class="cls-1" d="M24.74,20.67a4,4,0,0,0-.83,3.44,8.55,8.55,0,0,0,.63,1.71,5.52,5.52,0,0,0,1,1.52v0a3.84,3.84,0,0,1-1.22-1.43,6.23,6.23,0,0,1-.6-1.78,4,4,0,0,1,1-3.5Z"/><path class="cls-1" d="M25.71,21.36a4,4,0,0,0-.82,3.44,8.87,8.87,0,0,0,.63,1.72,5.67,5.67,0,0,0,1,1.52v0a3.83,3.83,0,0,1-1.22-1.43,6.65,6.65,0,0,1-.61-1.79,4,4,0,0,1,1-3.5Z"/><path class="cls-1" d="M26.69,22.06a4,4,0,0,0-.82,3.44,8.55,8.55,0,0,0,.63,1.71,5.31,5.31,0,0,0,1,1.52l0,0a3.82,3.82,0,0,1-1.21-1.43,6.26,6.26,0,0,1-.61-1.78,4,4,0,0,1,1-3.5Z"/><path class="cls-1" d="M27.67,22.75a4,4,0,0,0-.83,3.44,8.9,8.9,0,0,0,.64,1.72,5.45,5.45,0,0,0,1,1.52l0,0A4,4,0,0,1,27.25,28a6.3,6.3,0,0,1-.6-1.79,4,4,0,0,1,1-3.5Z"/><path class="cls-1" d="M28.65,23.45a4,4,0,0,0-.83,3.44,8.78,8.78,0,0,0,.63,1.71,5.75,5.75,0,0,0,1,1.52v0a3.84,3.84,0,0,1-1.22-1.43,6.23,6.23,0,0,1-.6-1.78,4,4,0,0,1,1-3.5Z"/><path class="cls-1" d="M29.62,24.14a4,4,0,0,0-.82,3.44,8.87,8.87,0,0,0,.63,1.72,5.67,5.67,0,0,0,1,1.52v0a3.83,3.83,0,0,1-1.22-1.43,6.65,6.65,0,0,1-.61-1.79,4,4,0,0,1,1-3.5Z"/><path class="cls-1" d="M30.6,24.84a4,4,0,0,0-.82,3.44A8.78,8.78,0,0,0,30.41,30a5.45,5.45,0,0,0,1,1.52l0,0a3.9,3.9,0,0,1-1.21-1.43,6.26,6.26,0,0,1-.61-1.78,4,4,0,0,1,1-3.5Z"/><path class="cls-1" d="M31.58,25.53A4,4,0,0,0,30.76,29a8,8,0,0,0,.63,1.71,5.35,5.35,0,0,0,1,1.53l0,0a4,4,0,0,1-1.22-1.43,6.4,6.4,0,0,1-.6-1.79,4,4,0,0,1,1-3.5Z"/><path class="cls-1" d="M32.56,26.23a4,4,0,0,0-.83,3.44,8.78,8.78,0,0,0,.63,1.71,5.92,5.92,0,0,0,1,1.52v0a4,4,0,0,1-1.22-1.43,6.23,6.23,0,0,1-.6-1.78,4,4,0,0,1,1-3.5Z"/><path class="cls-1" d="M33.54,26.92a4,4,0,0,0-.83,3.44,8.55,8.55,0,0,0,.63,1.71,5.38,5.38,0,0,0,1,1.52v0a3.83,3.83,0,0,1-1.22-1.43,6.77,6.77,0,0,1-.61-1.79,4,4,0,0,1,1-3.5Z"/><path class="cls-1" d="M34.51,27.62a4,4,0,0,0-.82,3.44,8.78,8.78,0,0,0,.63,1.71,5.67,5.67,0,0,0,1,1.52v0a3.83,3.83,0,0,1-1.22-1.43,6.58,6.58,0,0,1-.61-1.78,4,4,0,0,1,1-3.5Z"/><path class="cls-1" d="M35.49,28.31a4,4,0,0,0-.82,3.44,8.55,8.55,0,0,0,.63,1.71,5.17,5.17,0,0,0,1,1.52l0,0a3.9,3.9,0,0,1-1.22-1.42,6.74,6.74,0,0,1-.6-1.79,4,4,0,0,1,1-3.5Z"/><path class="cls-1" d="M36.47,29a4,4,0,0,0-.83,3.44,8.09,8.09,0,0,0,.64,1.72,5.64,5.64,0,0,0,1,1.52v0a4,4,0,0,1-1.22-1.43,6.23,6.23,0,0,1-.6-1.78,4,4,0,0,1,1-3.5Z"/><path class="cls-1" d="M37.45,29.7a4,4,0,0,0-.83,3.44,8.55,8.55,0,0,0,.63,1.71,5.6,5.6,0,0,0,1,1.52v0A3.81,3.81,0,0,1,37,35a6.4,6.4,0,0,1-.6-1.79,4,4,0,0,1,1-3.5Z"/><path class="cls-1" d="M38.42,30.39a4,4,0,0,0-.82,3.44,8.64,8.64,0,0,0,.63,1.72,5.67,5.67,0,0,0,1,1.52v0A3.83,3.83,0,0,1,38,35.66a6.58,6.58,0,0,1-.61-1.78,4,4,0,0,1,1-3.5Z"/><path class="cls-1" d="M39.4,31.09a4,4,0,0,0-.82,3.44,8.55,8.55,0,0,0,.63,1.71,5.31,5.31,0,0,0,1,1.52l0,0A3.79,3.79,0,0,1,39,36.36a6.43,6.43,0,0,1-.61-1.79,4,4,0,0,1,1-3.5Z"/><path class="cls-1" d="M40.38,31.78a4,4,0,0,0-.83,3.44,8.67,8.67,0,0,0,.64,1.72,5.45,5.45,0,0,0,1,1.52l0,0A4,4,0,0,1,40,37.05a6.19,6.19,0,0,1-.6-1.79,4,4,0,0,1,1-3.49Z"/><path class="cls-1" d="M41.36,32.48a4,4,0,0,0-.83,3.44,8.55,8.55,0,0,0,.63,1.71,5.75,5.75,0,0,0,1,1.52v0a3.9,3.9,0,0,1-1.22-1.42,6.4,6.4,0,0,1-.6-1.79,4,4,0,0,1,1-3.5Z"/><path class="cls-1" d="M42.33,33.17a4,4,0,0,0-.82,3.44,8.64,8.64,0,0,0,.63,1.72,5.67,5.67,0,0,0,1,1.52v0a3.83,3.83,0,0,1-1.22-1.43,6.53,6.53,0,0,1-.61-1.79,4,4,0,0,1,1-3.49Z"/><path class="cls-1" d="M43.31,33.87a4,4,0,0,0-.82,3.44A8.55,8.55,0,0,0,43.12,39a5.52,5.52,0,0,0,1,1.52l0,0a3.79,3.79,0,0,1-1.21-1.42,6.43,6.43,0,0,1-.61-1.79,4,4,0,0,1,1-3.5Z"/><path class="cls-1" d="M44.29,34.56A4,4,0,0,0,43.47,38a8.26,8.26,0,0,0,.63,1.72,5.45,5.45,0,0,0,1,1.52l0,0a4,4,0,0,1-1.22-1.43,6.19,6.19,0,0,1-.6-1.79,4,4,0,0,1,1-3.49Z"/><path class="cls-1" d="M45.27,35.26a4,4,0,0,0-.83,3.44,8.55,8.55,0,0,0,.63,1.71,5.75,5.75,0,0,0,1,1.52v0a4,4,0,0,1-1.22-1.42,6.4,6.4,0,0,1-.6-1.79,4,4,0,0,1,1-3.5Z"/><path class="cls-1" d="M46.25,36a4,4,0,0,0-.83,3.44,8.87,8.87,0,0,0,.63,1.72,5.67,5.67,0,0,0,1,1.52v0a3.83,3.83,0,0,1-1.22-1.43,6.53,6.53,0,0,1-.61-1.79,4,4,0,0,1,1-3.49Z"/><path class="cls-1" d="M47.22,36.65a4,4,0,0,0-.82,3.44A8.55,8.55,0,0,0,47,41.8a5.52,5.52,0,0,0,1,1.52v0a3.75,3.75,0,0,1-1.22-1.43,6.58,6.58,0,0,1-.61-1.78,4,4,0,0,1,1-3.5Z"/><path class="cls-1" d="M48.2,37.34a4,4,0,0,0-.82,3.44A8.87,8.87,0,0,0,48,42.5,5.45,5.45,0,0,0,49,44l0,0a4,4,0,0,1-1.22-1.43,6.51,6.51,0,0,1-.6-1.79,4,4,0,0,1,1-3.49Z"/><path class="cls-1" d="M49.18,38a4,4,0,0,0-.83,3.44A8,8,0,0,0,49,43.19a5.31,5.31,0,0,0,1,1.52l0,0a3.94,3.94,0,0,1-1.22-1.43,6.23,6.23,0,0,1-.6-1.78,4,4,0,0,1,1-3.5Z"/><path class="cls-1" d="M8.44,6.56A4,4,0,0,1,11.37,4.4a6.3,6.3,0,0,1,1.89-.06A3.83,3.83,0,0,1,15,5l0,0a5.7,5.7,0,0,0-1.77-.41,8.61,8.61,0,0,0-1.83,0,4,4,0,0,0-2.93,2Z"/><path class="cls-1" d="M9.43,7.23a4,4,0,0,1,2.93-2.16A6.66,6.66,0,0,1,14.25,5,4,4,0,0,1,16,5.66v0a5.51,5.51,0,0,0-1.78-.42,8.62,8.62,0,0,0-1.83,0,4,4,0,0,0-2.93,2Z"/><path class="cls-1" d="M10.43,7.91a4,4,0,0,1,2.93-2.17,6.58,6.58,0,0,1,1.88,0A3.83,3.83,0,0,1,17,6.33v0a5.49,5.49,0,0,0-1.78-.41,8.52,8.52,0,0,0-1.82,0,4,4,0,0,0-2.94,2Z"/><path class="cls-1" d="M11.42,8.58a4,4,0,0,1,2.93-2.16,6.24,6.24,0,0,1,1.88-.06A4,4,0,0,1,18,7l0,0a5.45,5.45,0,0,0-1.78-.42,7.91,7.91,0,0,0-1.82,0,4,4,0,0,0-2.94,2Z"/><path class="cls-1" d="M12.41,9.25a4,4,0,0,1,2.93-2.16A6.65,6.65,0,0,1,17.23,7,4,4,0,0,1,19,7.68l0,0a5.45,5.45,0,0,0-1.77-.42,9.32,9.32,0,0,0-1.83,0,4,4,0,0,0-2.94,2Z"/><path class="cls-1" d="M13.4,9.93a4,4,0,0,1,2.93-2.16,6.31,6.31,0,0,1,1.89-.06A3.83,3.83,0,0,1,20,8.35v0A5.49,5.49,0,0,0,18.19,8a8.61,8.61,0,0,0-1.83,0,4,4,0,0,0-2.93,2Z"/><path class="cls-1" d="M14.4,10.6a4,4,0,0,1,2.92-2.16,6.66,6.66,0,0,1,1.89-.06A4,4,0,0,1,21,9v0a5.51,5.51,0,0,0-1.78-.42,8.52,8.52,0,0,0-1.82,0,4,4,0,0,0-2.94,2Z"/><path class="cls-1" d="M15.39,11.27a4,4,0,0,1,2.93-2.16,6.23,6.23,0,0,1,1.88,0A3.87,3.87,0,0,1,22,9.7l0,0a5.78,5.78,0,0,0-1.78-.42,9.22,9.22,0,0,0-1.82,0,4,4,0,0,0-2.94,2Z"/><path class="cls-1" d="M16.38,12a4,4,0,0,1,2.93-2.16,6.24,6.24,0,0,1,1.88-.06,3.82,3.82,0,0,1,1.77.64l0,0A5.7,5.7,0,0,0,21.17,10a8.61,8.61,0,0,0-1.83,0,4,4,0,0,0-2.94,2Z"/><path class="cls-1" d="M17.37,12.62a4,4,0,0,1,2.93-2.16,6.65,6.65,0,0,1,1.89-.06,4,4,0,0,1,1.76.65v0a5.57,5.57,0,0,0-1.78-.42,8.62,8.62,0,0,0-1.83,0,4,4,0,0,0-2.93,2Z"/><path class="cls-1" d="M18.37,13.3a4,4,0,0,1,2.92-2.17,6.66,6.66,0,0,1,1.89-.05,3.83,3.83,0,0,1,1.76.64v0a5.49,5.49,0,0,0-1.78-.41,8.61,8.61,0,0,0-1.83,0,4,4,0,0,0-2.93,2Z"/><path class="cls-1" d="M19.36,14a4,4,0,0,1,2.93-2.16,6.24,6.24,0,0,1,1.88-.06,3.94,3.94,0,0,1,1.76.64v0A5.51,5.51,0,0,0,24.14,12a7.91,7.91,0,0,0-1.82,0,4,4,0,0,0-2.94,2Z"/><path class="cls-1" d="M20.35,14.64a4,4,0,0,1,2.93-2.16,6.58,6.58,0,0,1,1.88-.06,4,4,0,0,1,1.77.65l0,0a5.45,5.45,0,0,0-1.77-.42,9.32,9.32,0,0,0-1.83,0,4,4,0,0,0-2.94,2Z"/><path class="cls-1" d="M21.34,15.32a4,4,0,0,1,2.93-2.16,6.3,6.3,0,0,1,1.89-.06,3.83,3.83,0,0,1,1.76.64v0a5.55,5.55,0,0,0-1.78-.41,8.61,8.61,0,0,0-1.83,0,4,4,0,0,0-2.93,2Z"/><path class="cls-1" d="M22.34,16a4,4,0,0,1,2.92-2.16,6.66,6.66,0,0,1,1.89-.06,4,4,0,0,1,1.76.65v0A5.51,5.51,0,0,0,27.12,14a8.62,8.62,0,0,0-1.83,0,4,4,0,0,0-2.93,2Z"/><path class="cls-1" d="M23.33,16.66a4,4,0,0,1,2.93-2.16,6.23,6.23,0,0,1,1.88-.05,3.83,3.83,0,0,1,1.76.64v0a5.78,5.78,0,0,0-1.78-.42,9.22,9.22,0,0,0-1.82,0,4,4,0,0,0-2.94,2Z"/><path class="cls-1" d="M24.32,17.34a4,4,0,0,1,2.93-2.16,6.24,6.24,0,0,1,1.88-.06,3.87,3.87,0,0,1,1.77.64l0,0a5.7,5.7,0,0,0-1.78-.41,8.52,8.52,0,0,0-1.82,0,4,4,0,0,0-2.94,2Z"/><path class="cls-1" d="M25.31,18a4,4,0,0,1,2.93-2.16,6.65,6.65,0,0,1,1.89-.06,4,4,0,0,1,1.76.65l0,0A5.45,5.45,0,0,0,30.1,16a8.61,8.61,0,0,0-1.83,0,4,4,0,0,0-2.94,2Z"/><path class="cls-1" d="M26.3,18.69a4,4,0,0,1,2.93-2.17,6.66,6.66,0,0,1,1.89-.05,3.83,3.83,0,0,1,1.76.64v0a5.49,5.49,0,0,0-1.78-.41,8.61,8.61,0,0,0-1.83,0,4,4,0,0,0-2.93,2Z"/><path class="cls-1" d="M27.3,19.36a4,4,0,0,1,2.93-2.16,6.24,6.24,0,0,1,1.88-.06,3.94,3.94,0,0,1,1.76.64v0a5.51,5.51,0,0,0-1.78-.42,7.91,7.91,0,0,0-1.82,0,4,4,0,0,0-2.94,2Z"/><path class="cls-1" d="M28.29,20a4,4,0,0,1,2.93-2.16,6.58,6.58,0,0,1,1.88-.06,4,4,0,0,1,1.77.65l0,0a5.51,5.51,0,0,0-1.78-.42,9.22,9.22,0,0,0-1.82,0,4,4,0,0,0-2.94,2Z"/><path class="cls-1" d="M29.28,20.71a4,4,0,0,1,2.93-2.16,6.25,6.25,0,0,1,1.88-.06,3.82,3.82,0,0,1,1.77.64l0,0a5.44,5.44,0,0,0-1.77-.41,8.61,8.61,0,0,0-1.83,0,4,4,0,0,0-2.94,2Z"/><path class="cls-1" d="M30.27,21.38a4,4,0,0,1,2.93-2.16,6.66,6.66,0,0,1,1.89-.06,4,4,0,0,1,1.76.65v0a5.51,5.51,0,0,0-1.78-.42,8.62,8.62,0,0,0-1.83,0,4,4,0,0,0-2.93,2Z"/><path class="cls-1" d="M31.27,22.05a4,4,0,0,1,2.92-2.16,6.31,6.31,0,0,1,1.89-.05,3.83,3.83,0,0,1,1.76.64v0a5.78,5.78,0,0,0-1.78-.42,9.33,9.33,0,0,0-1.83,0,4,4,0,0,0-2.93,2Z"/><path class="cls-1" d="M32.26,22.73a4,4,0,0,1,2.93-2.16,6.24,6.24,0,0,1,1.88-.06,3.83,3.83,0,0,1,1.76.64v0A5.77,5.77,0,0,0,37,20.76a8.52,8.52,0,0,0-1.82,0,4,4,0,0,0-2.94,2Z"/><path class="cls-1" d="M33.25,23.4a4,4,0,0,1,2.93-2.16,6.58,6.58,0,0,1,1.88-.06,4,4,0,0,1,1.77.65l0,0A5.45,5.45,0,0,0,38,21.43a8.61,8.61,0,0,0-1.83,0,4,4,0,0,0-2.94,2Z"/><path class="cls-1" d="M34.24,24.08a4,4,0,0,1,2.93-2.17,6.65,6.65,0,0,1,1.89-.05,3.83,3.83,0,0,1,1.76.64v0A5.55,5.55,0,0,0,39,22.11a8.61,8.61,0,0,0-1.83,0,4,4,0,0,0-2.93,2Z"/><path class="cls-1" d="M35.24,24.75a4,4,0,0,1,2.92-2.16,6.31,6.31,0,0,1,1.89-.06,3.94,3.94,0,0,1,1.76.64v0A5.51,5.51,0,0,0,40,22.78a8,8,0,0,0-1.83,0,4,4,0,0,0-2.93,2Z"/><path class="cls-1" d="M36.23,25.42a4,4,0,0,1,2.93-2.16A6.23,6.23,0,0,1,41,23.21a3.83,3.83,0,0,1,1.76.64v0A5.51,5.51,0,0,0,41,23.45a9.22,9.22,0,0,0-1.82,0,4,4,0,0,0-2.94,2Z"/><path class="cls-1" d="M37.22,26.1a4,4,0,0,1,2.93-2.16A6.24,6.24,0,0,1,42,23.88a3.87,3.87,0,0,1,1.77.64l0,0A5.44,5.44,0,0,0,42,24.13a8.61,8.61,0,0,0-1.83,0,4,4,0,0,0-2.94,2Z"/><path class="cls-1" d="M38.21,26.77a4,4,0,0,1,2.93-2.16A6.65,6.65,0,0,1,43,24.55a4,4,0,0,1,1.76.65l0,0A5.45,5.45,0,0,0,43,24.8a8.61,8.61,0,0,0-1.83,0,4,4,0,0,0-2.93,2Z"/><path class="cls-1" d="M39.2,27.44a4,4,0,0,1,2.93-2.16A6.31,6.31,0,0,1,44,25.23a3.83,3.83,0,0,1,1.76.64v0A5.78,5.78,0,0,0,44,25.47a9.33,9.33,0,0,0-1.83,0,4,4,0,0,0-2.93,2Z"/><path class="cls-1" d="M40.2,28.12A4,4,0,0,1,43.13,26,6.24,6.24,0,0,1,45,25.9a3.83,3.83,0,0,1,1.76.64v0A5.77,5.77,0,0,0,45,26.15a8.52,8.52,0,0,0-1.82,0,4,4,0,0,0-2.94,2Z"/><path class="cls-1" d="M41.19,28.79a4,4,0,0,1,2.93-2.16A6.58,6.58,0,0,1,46,26.57a4,4,0,0,1,1.77.65l0,0A5.45,5.45,0,0,0,46,26.82a8.52,8.52,0,0,0-1.82,0,4,4,0,0,0-2.94,2Z"/><path class="cls-1" d="M42.18,29.47a4,4,0,0,1,2.93-2.17A6.65,6.65,0,0,1,47,27.25a3.83,3.83,0,0,1,1.76.64l0,0A5.44,5.44,0,0,0,47,27.5a8.61,8.61,0,0,0-1.83,0,4,4,0,0,0-2.94,2Z"/><path class="cls-1" d="M43.17,30.14A4,4,0,0,1,46.1,28,6.31,6.31,0,0,1,48,27.92a3.94,3.94,0,0,1,1.76.64v0A5.51,5.51,0,0,0,48,28.17a8,8,0,0,0-1.83,0,4,4,0,0,0-2.93,2Z"/><path class="cls-1" d="M44.17,30.81a4,4,0,0,1,2.92-2.16,6.31,6.31,0,0,1,1.89,0,3.83,3.83,0,0,1,1.76.64v0A5.51,5.51,0,0,0,49,28.84a9.22,9.22,0,0,0-1.82,0,4,4,0,0,0-2.94,2Z"/><path class="cls-1" d="M45.16,31.49a4,4,0,0,1,2.93-2.16A6.24,6.24,0,0,1,50,29.27a3.87,3.87,0,0,1,1.77.64l0,0a5.49,5.49,0,0,0-1.78-.41,8.52,8.52,0,0,0-1.82,0,4,4,0,0,0-2.94,2Z"/><path class="cls-1" d="M46.15,32.16A4,4,0,0,1,49.08,30,6.58,6.58,0,0,1,51,29.94a4,4,0,0,1,1.77.65l0,0a5.45,5.45,0,0,0-1.77-.42,8.61,8.61,0,0,0-1.83,0,4,4,0,0,0-2.94,2Z"/><path class="cls-1" d="M47.14,32.83a4,4,0,0,1,2.93-2.16A6.3,6.3,0,0,1,52,30.62a3.83,3.83,0,0,1,1.76.64v0a5.85,5.85,0,0,0-1.78-.42,9.33,9.33,0,0,0-1.83,0,4,4,0,0,0-2.93,2Z"/><path class="cls-1" d="M48.14,33.51a4,4,0,0,1,2.92-2.16A6.31,6.31,0,0,1,53,31.29a3.94,3.94,0,0,1,1.76.64v0a5.77,5.77,0,0,0-1.78-.41,8,8,0,0,0-1.83,0,4,4,0,0,0-2.93,2Z"/><path class="cls-1" d="M49.13,34.18A4,4,0,0,1,52.06,32,6.58,6.58,0,0,1,53.94,32a4,4,0,0,1,1.76.65v0a5.51,5.51,0,0,0-1.78-.42,8.52,8.52,0,0,0-1.82,0,4,4,0,0,0-2.94,2Z"/><path class="cls-1" d="M50.12,34.86a4,4,0,0,1,2.93-2.17,6.58,6.58,0,0,1,1.88,0,3.87,3.87,0,0,1,1.77.64l0,0a5.44,5.44,0,0,0-1.77-.41,8.61,8.61,0,0,0-1.83,0,4,4,0,0,0-2.94,2Z"/><path class="cls-1" d="M51.11,35.53A4,4,0,0,1,54,33.37a6.3,6.3,0,0,1,1.89-.06,3.94,3.94,0,0,1,1.76.64v0a5.57,5.57,0,0,0-1.78-.42,8,8,0,0,0-1.83,0,4,4,0,0,0-2.93,2Z"/><line class="cls-3" x1="5.74" y1="12.82" x2="8.02" y2="12.19"/><line class="cls-3" x1="6.27" y1="13.2" x2="8.52" y2="12.57"/><line class="cls-3" x1="6.79" y1="13.58" x2="9.03" y2="12.96"/><line class="cls-3" x1="7.31" y1="13.96" x2="9.53" y2="13.34"/><line class="cls-3" x1="7.84" y1="14.34" x2="10.04" y2="13.72"/><line class="cls-3" x1="8.36" y1="14.72" x2="10.55" y2="14.11"/><line class="cls-3" x1="8.88" y1="15.1" x2="11.05" y2="14.49"/><line class="cls-3" x1="9.41" y1="15.48" x2="11.56" y2="14.87"/><line class="cls-3" x1="9.93" y1="15.85" x2="12.07" y2="15.26"/><line class="cls-3" x1="10.45" y1="16.23" x2="12.57" y2="15.64"/><line class="cls-3" x1="10.97" y1="16.61" x2="13.08" y2="16.03"/><line class="cls-3" x1="11.5" y1="16.99" x2="13.59" y2="16.41"/><line class="cls-3" x1="12.02" y1="17.37" x2="14.09" y2="16.79"/><line class="cls-3" x1="12.54" y1="17.75" x2="14.6" y2="17.18"/><line class="cls-3" x1="13.07" y1="18.13" x2="15.11" y2="17.56"/><line class="cls-3" x1="13.59" y1="18.51" x2="15.61" y2="17.94"/><line class="cls-3" x1="14.11" y1="18.89" x2="16.12" y2="18.33"/><line class="cls-3" x1="14.64" y1="19.27" x2="16.63" y2="18.71"/><line class="cls-3" x1="15.16" y1="19.65" x2="17.13" y2="19.1"/><line class="cls-3" x1="15.68" y1="20.03" x2="17.64" y2="19.48"/><line class="cls-3" x1="16.21" y1="20.41" x2="18.14" y2="19.86"/><line class="cls-3" x1="16.73" y1="20.79" x2="18.65" y2="20.25"/><line class="cls-3" x1="17.25" y1="21.17" x2="19.16" y2="20.63"/><line class="cls-3" x1="17.78" y1="21.54" x2="19.66" y2="21.01"/><line class="cls-3" x1="18.3" y1="21.92" x2="20.17" y2="21.4"/><line class="cls-3" x1="18.82" y1="22.3" x2="20.68" y2="21.78"/><line class="cls-3" x1="19.34" y1="22.68" x2="21.18" y2="22.16"/><line class="cls-3" x1="19.87" y1="23.06" x2="21.69" y2="22.55"/><line class="cls-3" x1="20.39" y1="23.44" x2="22.2" y2="22.93"/><line class="cls-3" x1="20.91" y1="23.82" x2="22.7" y2="23.32"/><line class="cls-3" x1="21.44" y1="24.2" x2="23.21" y2="23.7"/><line class="cls-3" x1="21.96" y1="24.58" x2="23.72" y2="24.08"/><line class="cls-3" x1="22.48" y1="24.96" x2="24.22" y2="24.47"/><line class="cls-3" x1="23.01" y1="25.34" x2="24.73" y2="24.85"/><line class="cls-3" x1="23.53" y1="25.72" x2="25.23" y2="25.23"/><line class="cls-3" x1="24.05" y1="26.1" x2="25.74" y2="25.62"/><line class="cls-3" x1="24.58" y1="26.48" x2="26.25" y2="26"/><line class="cls-3" x1="25.1" y1="26.86" x2="26.75" y2="26.39"/><line class="cls-3" x1="25.62" y1="27.23" x2="27.26" y2="26.77"/><line class="cls-3" x1="26.15" y1="27.61" x2="27.77" y2="27.15"/><line class="cls-3" x1="26.67" y1="27.99" x2="28.27" y2="27.54"/><line class="cls-3" x1="27.19" y1="28.37" x2="28.78" y2="27.92"/><line class="cls-3" x1="27.71" y1="28.75" x2="29.29" y2="28.3"/><line class="cls-3" x1="28.24" y1="29.13" x2="29.79" y2="28.69"/><line class="cls-3" x1="28.76" y1="29.51" x2="30.3" y2="29.07"/><line class="cls-3" x1="29.28" y1="29.89" x2="30.81" y2="29.46"/><line class="cls-3" x1="29.81" y1="30.27" x2="31.31" y2="29.84"/><line class="cls-3" x1="30.33" y1="30.65" x2="31.82" y2="30.22"/><line class="cls-3" x1="30.85" y1="31.03" x2="32.33" y2="30.61"/><line class="cls-3" x1="31.38" y1="31.41" x2="32.83" y2="30.99"/><line class="cls-3" x1="31.9" y1="31.79" x2="33.34" y2="31.37"/><line class="cls-3" x1="32.42" y1="32.17" x2="33.84" y2="31.76"/><line class="cls-3" x1="32.95" y1="32.55" x2="34.35" y2="32.14"/><line class="cls-3" x1="33.47" y1="32.93" x2="34.86" y2="32.53"/><line class="cls-3" x1="33.99" y1="33.3" x2="35.36" y2="32.91"/><line class="cls-3" x1="34.52" y1="33.68" x2="35.87" y2="33.29"/><line class="cls-3" x1="35.04" y1="34.06" x2="36.38" y2="33.68"/><line class="cls-3" x1="35.56" y1="34.44" x2="36.88" y2="34.06"/><line class="cls-3" x1="36.08" y1="34.82" x2="37.39" y2="34.44"/><line class="cls-3" x1="36.61" y1="35.2" x2="37.9" y2="34.83"/><line class="cls-3" x1="37.13" y1="35.58" x2="38.4" y2="35.21"/><line class="cls-3" x1="37.65" y1="35.96" x2="38.91" y2="35.6"/><line class="cls-3" x1="38.18" y1="36.34" x2="39.42" y2="35.98"/><line class="cls-3" x1="38.7" y1="36.72" x2="39.92" y2="36.36"/><line class="cls-3" x1="39.22" y1="37.1" x2="40.43" y2="36.75"/><line class="cls-3" x1="39.75" y1="37.48" x2="40.94" y2="37.13"/><line class="cls-3" x1="40.27" y1="37.86" x2="41.44" y2="37.51"/><line class="cls-3" x1="40.79" y1="38.24" x2="41.95" y2="37.9"/><line class="cls-3" x1="41.32" y1="38.62" x2="42.45" y2="38.28"/><line class="cls-3" x1="41.84" y1="38.99" x2="42.96" y2="38.67"/><line class="cls-3" x1="42.36" y1="39.37" x2="43.47" y2="39.05"/><line class="cls-3" x1="42.89" y1="39.75" x2="43.97" y2="39.43"/><line class="cls-3" x1="43.41" y1="40.13" x2="44.48" y2="39.82"/><line class="cls-3" x1="43.93" y1="40.51" x2="44.99" y2="40.2"/><line class="cls-3" x1="44.46" y1="40.89" x2="45.49" y2="40.58"/><line class="cls-3" x1="44.98" y1="41.27" x2="46" y2="40.97"/><line class="cls-3" x1="45.5" y1="41.65" x2="46.51" y2="41.35"/><line class="cls-3" x1="46.02" y1="42.03" x2="47.01" y2="41.73"/><line class="cls-3" x1="46.55" y1="42.41" x2="47.52" y2="42.12"/><line class="cls-3" x1="47.07" y1="42.79" x2="48.03" y2="42.5"/><line class="cls-3" x1="47.59" y1="43.17" x2="48.53" y2="42.89"/><line class="cls-3" x1="48.12" y1="43.55" x2="49.04" y2="43.27"/><line class="cls-3" x1="48.64" y1="43.93" x2="49.55" y2="43.65"/><line class="cls-3" x1="55.75" y1="32.82" x2="54.99" y2="34.17"/><line class="cls-3" x1="55.27" y1="32.49" x2="54.52" y2="33.86"/><line class="cls-3" x1="54.8" y1="32.16" x2="54.05" y2="33.55"/><line class="cls-3" x1="54.32" y1="31.83" x2="53.59" y2="33.24"/><line class="cls-3" x1="53.84" y1="31.5" x2="53.12" y2="32.93"/><line class="cls-3" x1="53.36" y1="31.18" x2="52.65" y2="32.62"/><line class="cls-3" x1="52.88" y1="30.85" x2="52.18" y2="32.31"/><line class="cls-3" x1="52.41" y1="30.52" x2="51.71" y2="32"/><line class="cls-3" x1="51.93" y1="30.19" x2="51.24" y2="31.69"/><line class="cls-3" x1="51.45" y1="29.86" x2="50.77" y2="31.38"/><line class="cls-3" x1="50.97" y1="29.53" x2="50.3" y2="31.07"/><line class="cls-3" x1="50.5" y1="29.21" x2="49.83" y2="30.76"/><line class="cls-3" x1="50.02" y1="28.88" x2="49.36" y2="30.45"/><line class="cls-3" x1="49.54" y1="28.55" x2="48.89" y2="30.14"/><line class="cls-3" x1="49.06" y1="28.22" x2="48.42" y2="29.84"/><line class="cls-3" x1="48.58" y1="27.89" x2="47.95" y2="29.53"/><line class="cls-3" x1="48.11" y1="27.56" x2="47.49" y2="29.22"/><line class="cls-3" x1="47.63" y1="27.23" x2="47.02" y2="28.91"/><line class="cls-3" x1="47.15" y1="26.91" x2="46.55" y2="28.6"/><line class="cls-3" x1="46.67" y1="26.58" x2="46.08" y2="28.29"/><line class="cls-3" x1="46.19" y1="26.25" x2="45.61" y2="27.98"/><line class="cls-3" x1="45.72" y1="25.92" x2="45.14" y2="27.67"/><line class="cls-3" x1="45.24" y1="25.59" x2="44.67" y2="27.36"/><line class="cls-3" x1="44.76" y1="25.26" x2="44.2" y2="27.05"/><line class="cls-3" x1="44.28" y1="24.94" x2="43.73" y2="26.74"/><line class="cls-3" x1="43.81" y1="24.61" x2="43.26" y2="26.43"/><line class="cls-3" x1="43.33" y1="24.28" x2="42.79" y2="26.12"/><line class="cls-3" x1="42.85" y1="23.95" x2="42.32" y2="25.81"/><line class="cls-3" x1="42.37" y1="23.62" x2="41.85" y2="25.51"/><line class="cls-3" x1="41.89" y1="23.29" x2="41.38" y2="25.2"/><line class="cls-3" x1="41.42" y1="22.96" x2="40.92" y2="24.89"/><line class="cls-3" x1="40.94" y1="22.64" x2="40.45" y2="24.58"/><line class="cls-3" x1="40.46" y1="22.31" x2="39.98" y2="24.27"/><line class="cls-3" x1="39.98" y1="21.98" x2="39.51" y2="23.96"/><line class="cls-3" x1="39.5" y1="21.65" x2="39.04" y2="23.65"/><line class="cls-3" x1="39.03" y1="21.32" x2="38.57" y2="23.34"/><line class="cls-3" x1="38.55" y1="20.99" x2="38.1" y2="23.03"/><line class="cls-3" x1="38.07" y1="20.67" x2="37.63" y2="22.72"/><line class="cls-3" x1="37.59" y1="20.34" x2="37.16" y2="22.41"/><line class="cls-3" x1="37.12" y1="20.01" x2="36.69" y2="22.1"/><line class="cls-3" x1="36.64" y1="19.68" x2="36.22" y2="21.79"/><line class="cls-3" x1="36.16" y1="19.35" x2="35.75" y2="21.48"/><line class="cls-3" x1="35.68" y1="19.02" x2="35.28" y2="21.18"/><line class="cls-3" x1="35.2" y1="18.7" x2="34.82" y2="20.87"/><line class="cls-3" x1="34.73" y1="18.37" x2="34.35" y2="20.56"/><line class="cls-3" x1="34.25" y1="18.04" x2="33.88" y2="20.25"/><line class="cls-3" x1="33.77" y1="17.71" x2="33.41" y2="19.94"/><line class="cls-3" x1="33.29" y1="17.38" x2="32.94" y2="19.63"/><line class="cls-3" x1="32.81" y1="17.05" x2="32.47" y2="19.32"/><line class="cls-3" x1="32.34" y1="16.72" x2="32" y2="19.01"/><line class="cls-3" x1="31.86" y1="16.4" x2="31.53" y2="18.7"/><line class="cls-3" x1="31.38" y1="16.07" x2="31.06" y2="18.39"/><line class="cls-3" x1="30.9" y1="15.74" x2="30.59" y2="18.08"/><line class="cls-3" x1="30.42" y1="15.41" x2="30.12" y2="17.77"/><line class="cls-3" x1="29.95" y1="15.08" x2="29.65" y2="17.46"/><line class="cls-3" x1="29.47" y1="14.75" x2="29.18" y2="17.15"/><line class="cls-3" x1="28.99" y1="14.43" x2="28.72" y2="16.84"/><line class="cls-3" x1="28.51" y1="14.1" x2="28.25" y2="16.54"/><line class="cls-3" x1="28.04" y1="13.77" x2="27.78" y2="16.23"/><line class="cls-3" x1="27.56" y1="13.44" x2="27.31" y2="15.92"/><line class="cls-3" x1="27.08" y1="13.11" x2="26.84" y2="15.61"/><line class="cls-3" x1="26.6" y1="12.78" x2="26.37" y2="15.3"/><line class="cls-3" x1="26.12" y1="12.45" x2="25.9" y2="14.99"/><line class="cls-3" x1="25.65" y1="12.13" x2="25.43" y2="14.68"/><line class="cls-3" x1="25.17" y1="11.8" x2="24.96" y2="14.37"/><line class="cls-3" x1="24.69" y1="11.47" x2="24.49" y2="14.06"/><line class="cls-3" x1="24.21" y1="11.14" x2="24.02" y2="13.75"/><line class="cls-3" x1="23.73" y1="10.81" x2="23.55" y2="13.44"/><line class="cls-3" x1="23.26" y1="10.48" x2="23.08" y2="13.13"/><line class="cls-3" x1="22.78" y1="10.16" x2="22.62" y2="12.82"/><line class="cls-3" x1="22.3" y1="9.83" x2="22.15" y2="12.51"/><line class="cls-3" x1="21.82" y1="9.5" x2="21.68" y2="12.21"/><line class="cls-3" x1="21.35" y1="9.17" x2="21.21" y2="11.9"/><line class="cls-3" x1="20.87" y1="8.84" x2="20.74" y2="11.59"/><line class="cls-3" x1="20.39" y1="8.51" x2="20.27" y2="11.28"/><line class="cls-3" x1="19.91" y1="8.18" x2="19.8" y2="10.97"/><line class="cls-3" x1="19.43" y1="7.86" x2="19.33" y2="10.66"/><line class="cls-3" x1="18.96" y1="7.53" x2="18.86" y2="10.35"/><line class="cls-3" x1="18.48" y1="7.2" x2="18.39" y2="10.04"/><line class="cls-3" x1="18" y1="6.87" x2="17.92" y2="9.73"/><line class="cls-3" x1="17.52" y1="6.54" x2="17.45" y2="9.42"/><line class="cls-3" x1="17.04" y1="6.21" x2="16.98" y2="9.11"/><line class="cls-3" x1="16.57" y1="5.89" x2="16.51" y2="8.8"/><line class="cls-3" x1="16.09" y1="5.56" x2="16.05" y2="8.49"/><line class="cls-3" x1="15.61" y1="5.23" x2="15.58" y2="8.18"/><line class="cls-3" x1="15.13" y1="4.9" x2="15.11" y2="7.88"/><line class="cls-3" x1="14.66" y1="4.57" x2="14.64" y2="7.57"/><line class="cls-3" x1="14.18" y1="4.24" x2="14.17" y2="7.26"/><line class="cls-3" x1="13.7" y1="3.92" x2="13.7" y2="6.95"/></g></g></svg>