<svg width="256" height="102" xmlns="http://www.w3.org/2000/svg" fill="none">

 <g>
  <title>Layer 1</title>
  <path id="svg_1" fill="#BA9E7C" d="m8.13594,20.9183c7.17826,3.7997 14.34216,7.6083 21.55966,11.3443c0.4984,0.262 1.4154,0.0862 1.9686,-0.1986c13.1519,-6.8758 26.1686,-6.3512 38.8522,1.0657c2.1087,1.2329 3.8514,3.1469 5.1465,5.6744c1.7158,3.3308 0.4433,6.9026 -2.9342,8.5491c-2.9524,1.4413 -6.068,1.4458 -9.2146,1.1146c-6.9643,-0.7577 -13.5105,-3.0967 -19.9567,-5.6556c-4.0863,-1.6203 -8.0672,-3.4837 -12.2223,-5.2782c-1.0509,1.7381 -0.9619,4.3253 0.2062,5.8866c2.2016,2.9696 3.8418,4.0205 6.2492,5.7973c7.5535,5.5781 16.1445,9.1101 25.1813,11.3601c6.7257,1.675 13.5645,2.866 20.3548,4.265c0.5912,0.125 1.2074,0.195 1.7558,0.347c0.8573,0.237 1.4014,0.667 1.3728,1.415c0.0975,0.728 -0.9603,1.09 -1.5415,1.234c-0.9563,0.24 -1.9902,0.291 -2.9633,0.186c-15.3657,-1.509 -30.1309,-5.068 -43.3913,-13.349c-2.9081,-1.821 -5.5734,-4.107 -8.0448,-6.4952c-3.5397,-3.4393 -4.9372,-7.5597 -2.5262,-12.4112c-6.7021,-3.8592 -13.3083,-7.6596 -20.0334,-11.5242c1.32644,2.1333 2.58214,4.1529 3.8467,6.1867c0.2122,0.3414 0.4671,0.6561 0.6509,1.0152c0.5036,0.9687 1.4492,2.0768 0.1642,2.994c-1.2564,0.8995 -2.03996,-0.329 -2.55824,-1.1308c-2.65525,-4.0483 -5.27663,-8.1374 -7.73261,-12.3096c-1.00076,-1.7048 -0.39458,-3.2058 1.53865,-3.4612c5.58661,-0.7915 11.2347,-1.3255 16.8632,-1.8276c0.5223,-0.0486 1.5853,0.2961 1.6908,1.3546c0.0014,0.8275 -0.9754,1.415 -1.56,1.5222c-3.5311,0.6376 -7.0991,1.1206 -10.66363,1.6409c-0.63082,0.0964 -1.27933,0.1644 -1.91899,0.2466c-1.08697,-0.0341 -0.702,0.1407 -0.13974,0.4419zm26.05206,13.2051c-0.5389,0.2759 0.6076,0.628 0.7725,0.7029c8.6344,3.9198 17.3708,7.5593 26.7608,9.2345c2.5104,0.4506 5.1925,0.479 7.7281,0.1448c3.3671,-0.4568 4.2748,-3.0917 1.9707,-5.623c-1.4912,-1.6365 -3.297,-3.176 -5.2642,-4.1813c-8.3385,-4.301 -19.682,-4.801 -26.1993,-2.6814c-2.4819,0.8332 -3.0797,1.2049 -5.7686,2.4035z"/>
  <path id="svg_2" fill="#BA9E7C" d="m108.257,68.261c-0.311,-0.398 -0.472,-0.864 -0.481,-1.398c-0.009,-0.534 0.057,-1.115 0.2,-1.743c0.138,-0.642 0.325,-1.315 0.559,-2.018c0.234,-0.703 0.442,-1.415 0.623,-2.135c0.176,-0.735 0.288,-1.467 0.336,-2.197c0.047,-0.73 -0.027,-1.433 -0.224,-2.108c-0.099,-0.117 -0.3,-0.303 -0.602,-0.557c-0.306,-0.269 -0.663,-0.571 -1.07,-0.908c-0.412,-0.352 -0.855,-0.728 -1.33,-1.126c-0.474,-0.399 -0.936,-0.785 -1.387,-1.158c-0.44,-0.393 -0.849,-0.762 -1.226,-1.108c-0.367,-0.365 -0.652,-0.672 -0.855,-0.922c-0.203,-0.25 -0.297,-0.435 -0.283,-0.553c0.01,-0.133 0.17,-0.171 0.479,-0.115c0.267,0.134 0.621,0.372 1.063,0.716c0.438,0.328 0.9,0.714 1.387,1.158c0.499,0.424 1.003,0.871 1.514,1.34c0.522,0.45 0.999,0.857 1.43,1.219c0.427,0.348 0.792,0.624 1.096,0.828c0.299,0.19 0.49,0.232 0.573,0.126c0.063,-0.344 0.143,-0.88 0.24,-1.608c0.107,-0.747 0.222,-1.554 0.344,-2.419c0.118,-0.881 0.245,-1.7563 0.382,-2.6263c0.148,-0.8894 0.3,-1.65 0.458,-2.2818c0.172,-0.6363 0.352,-1.0794 0.54,-1.3293c0.198,-0.2694 0.399,-0.2222 0.603,0.1416c0.125,0.2075 0.174,0.6247 0.145,1.2516c-0.033,0.6119 -0.114,1.3678 -0.242,2.2678c-0.133,0.885 -0.305,1.8874 -0.515,3.0064c-0.2,1.1 -0.42,2.246 -0.658,3.439c-0.223,1.188 -0.452,2.386 -0.686,3.593c-0.223,1.188 -0.427,2.33 -0.612,3.426c-0.19,1.08 -0.341,2.068 -0.455,2.964c-0.113,0.896 -0.166,1.635 -0.158,2.219c-0.002,0.163 -0.035,0.327 -0.101,0.493c-0.046,0.176 -0.12,0.312 -0.223,0.407c-0.102,0.095 -0.232,0.125 -0.389,0.089c-0.137,-0.025 -0.296,-0.15 -0.475,-0.374zm8.651,-5.916c-0.704,-0.071 -1.213,-0.338 -1.527,-0.799c-0.299,-0.467 -0.455,-1.031 -0.47,-1.695c-0.018,-0.678 0.079,-1.406 0.291,-2.184c0.209,-0.793 0.479,-1.539 0.812,-2.239c0.334,-0.699 0.693,-1.308 1.079,-1.828c0.396,-0.538 0.768,-0.883 1.115,-1.033c0.895,-0.391 1.642,-0.535 2.241,-0.433c0.61,0.082 1.081,0.328 1.411,0.736c0.331,0.408 0.543,0.94 0.636,1.596c0.09,0.642 0.069,1.323 -0.063,2.045c-0.116,0.718 -0.336,1.441 -0.661,2.17c-0.309,0.725 -0.705,1.378 -1.187,1.958c-0.471,0.56 -1.017,1.004 -1.638,1.332c-0.625,0.312 -1.305,0.437 -2.039,0.374zm-0.621,-1.21c0.259,0.445 0.593,0.641 1.001,0.587c0.403,-0.069 0.824,-0.297 1.264,-0.686c0.451,-0.408 0.894,-0.928 1.328,-1.559c0.43,-0.646 0.797,-1.315 1.1,-2.005c0.318,-0.695 0.547,-1.364 0.685,-2.006c0.149,-0.662 0.154,-1.201 0.017,-1.616c-0.123,-0.421 -0.417,-0.676 -0.883,-0.768c-0.456,-0.112 -1.129,0.036 -2.02,0.442c-0.153,0.256 -0.353,0.575 -0.6,0.956c-0.251,0.366 -0.509,0.767 -0.772,1.202c-0.249,0.43 -0.489,0.891 -0.721,1.382c-0.235,0.475 -0.422,0.953 -0.559,1.432c-0.136,0.479 -0.204,0.946 -0.201,1.401c0.017,0.451 0.137,0.864 0.361,1.238zm18.194,-3.913c-0.453,-0.046 -0.839,-0.17 -1.158,-0.37c-0.318,-0.2 -0.596,-0.453 -0.831,-0.759c-0.236,-0.305 -0.446,-0.635 -0.63,-0.988c-0.189,-0.368 -0.37,-0.738 -0.544,-1.111c-0.161,-0.05 -0.375,0.11 -0.641,0.48c-0.271,0.356 -0.574,0.794 -0.91,1.315c-0.337,0.522 -0.706,1.069 -1.109,1.642c-0.392,0.553 -0.799,0.998 -1.222,1.333c-0.424,0.335 -0.855,0.501 -1.295,0.499c-0.425,-0.006 -0.846,-0.306 -1.264,-0.901c-0.14,-0.203 -0.212,-0.532 -0.214,-0.987c0.008,-0.474 0.065,-1.004 0.171,-1.588c0.107,-0.585 0.246,-1.195 0.419,-1.831c0.183,-0.656 0.364,-1.262 0.544,-1.819c0.19,-0.576 0.372,-1.068 0.546,-1.477c0.184,-0.428 0.336,-0.7167 0.455,-0.8654c0.393,0.0644 0.618,0.2754 0.673,0.6334c0.067,0.339 0.043,0.761 -0.07,1.266c-0.098,0.501 -0.263,1.053 -0.493,1.657c-0.216,0.6 -0.417,1.196 -0.603,1.787c-0.175,0.572 -0.294,1.111 -0.358,1.618c-0.064,0.507 0,0.92 0.19,1.239c0.37,0.039 0.755,-0.147 1.156,-0.557c0.412,-0.429 0.824,-0.972 1.234,-1.629c0.426,-0.661 0.839,-1.392 1.241,-2.193c0.412,-0.82 0.788,-1.597 1.127,-2.33c0.335,-0.749 0.632,-1.4052 0.891,-1.9689c0.259,-0.5637 0.456,-0.9468 0.593,-1.1493c0.358,0.0582 0.588,0.2598 0.689,0.6048c0.096,0.33 0.117,0.7388 0.064,1.2263c-0.038,0.4831 -0.11,1.0171 -0.217,1.6011c-0.095,0.565 -0.161,1.121 -0.197,1.669c-0.035,0.547 -0.003,1.05 0.098,1.509c0.102,0.459 0.335,0.814 0.702,1.065l1.027,0.677l2.273,-0.662c0.105,-0.031 0.14,0.008 0.106,0.115c-0.033,0.108 -0.095,0.231 -0.184,0.371c-0.075,0.136 -0.157,0.274 -0.246,0.414c-0.094,0.125 -0.148,0.189 -0.163,0.194c-0.368,0.188 -0.681,0.288 -0.939,0.298c-0.253,0.025 -0.557,0.016 -0.911,-0.028zm24.78,-7.7849c-1.345,-1.0402 -2.434,-1.9025 -3.268,-2.587c-0.839,-0.6995 -1.507,-1.2046 -2.005,-1.5153c-0.497,-0.3107 -0.864,-0.4235 -1.099,-0.3386c-0.236,0.085 -0.431,0.394 -0.584,0.9271c-0.144,0.5138 -0.293,1.2572 -0.449,2.2303c-0.156,0.9731 -0.402,2.1924 -0.74,3.6584c-0.042,0.191 -0.109,0.324 -0.201,0.4c-0.081,0.056 -0.171,0.082 -0.27,0.079c-0.103,-0.019 -0.207,-0.07 -0.313,-0.153c-0.106,-0.083 -0.198,-0.178 -0.278,-0.285c-0.089,-0.137 -0.12,-0.437 -0.092,-0.901c0.023,-0.479 0.09,-1.0599 0.2,-1.743c0.121,-0.7025 0.269,-1.4781 0.445,-2.3268c0.186,-0.8681 0.383,-1.7556 0.591,-2.6625c0.222,-0.9112 0.439,-1.8127 0.651,-2.7046c0.227,-0.8962 0.434,-1.7215 0.621,-2.4758c0.198,-0.7737 0.375,-1.4518 0.53,-2.0343c0.156,-0.5825 0.266,-1.0134 0.332,-1.2928c0.083,-0.1056 0.185,-0.1437 0.308,-0.1143c0.137,0.025 0.263,0.0941 0.378,0.2072c0.125,0.0938 0.224,0.2113 0.298,0.3526c0.069,0.1262 0.087,0.2431 0.053,0.3506l-0.988,4.1455l0.15,0.5175c0.337,-0.0168 0.721,-0.153 1.151,-0.4086c0.44,-0.2749 0.896,-0.6111 1.366,-1.0086c0.485,-0.4018 0.967,-0.8433 1.445,-1.3244c0.474,-0.4962 0.92,-0.9762 1.338,-1.4399c0.429,-0.483 0.804,-0.9261 1.126,-1.3292c0.332,-0.4224 0.592,-0.7587 0.78,-1.0086c0.164,-0.1619 0.328,-0.2422 0.491,-0.2409c0.178,-0.0031 0.322,0.0444 0.432,0.1426c0.125,0.0937 0.204,0.2253 0.238,0.3947c0.033,0.1694 0.001,0.3412 -0.094,0.5156c-0.293,0.5574 -0.687,1.079 -1.18,1.5645c-0.482,0.4662 -1.009,0.9208 -1.58,1.3639c-0.575,0.428 -1.167,0.8529 -1.776,1.2747c-0.599,0.4024 -1.169,0.8208 -1.71,1.2551c-0.54,0.4343 -1.02,0.8833 -1.438,1.347c-0.418,0.4637 -0.729,0.9612 -0.932,1.4924c0.243,0.1081 0.575,0.2963 0.995,0.5645c0.43,0.2488 0.896,0.536 1.398,0.8617c0.517,0.3214 1.043,0.6727 1.577,1.054c0.53,0.3663 1.013,0.7383 1.448,1.1158c0.446,0.3582 0.822,0.6964 1.126,1.0145c0.315,0.2988 0.503,0.5532 0.564,0.7632l0.151,0.5176c-0.102,0.095 -0.208,0.1503 -0.318,0.1659c-0.098,-0.0038 -0.202,-0.0226 -0.309,-0.0563c-0.108,-0.0338 -0.21,-0.0772 -0.307,-0.1304c-0.086,-0.0725 -0.17,-0.1375 -0.252,-0.195zm15.789,-4.0413c-0.189,-0.4819 -0.294,-0.9804 -0.314,-1.4954c-0.009,-0.5344 0.024,-1.0647 0.098,-1.5909c0.085,-0.5456 0.18,-1.0859 0.284,-1.6209c0.115,-0.5544 0.197,-1.0828 0.246,-1.5853c0.045,-0.5175 0.041,-1.0047 -0.011,-1.4615c-0.056,-0.4719 -0.215,-0.9057 -0.477,-1.3014c-0.414,-0.0256 -0.841,0.1312 -1.279,0.4705c-0.423,0.3349 -0.845,0.7836 -1.267,1.3461c-0.427,0.5474 -0.854,1.1764 -1.281,1.887c-0.417,0.6912 -0.822,1.3952 -1.216,2.112c-0.382,0.6975 -0.749,1.3658 -1.1,2.0052c-0.35,0.6393 -0.68,1.183 -0.989,1.6311c-0.298,0.4287 -0.569,0.7274 -0.813,0.8961c-0.248,0.1537 -0.456,0.1087 -0.625,-0.1351c-0.019,-0.0106 0.008,-0.2221 0.084,-0.6346c0.085,-0.4319 0.182,-0.9647 0.29,-1.5984c0.124,-0.6381 0.256,-1.3278 0.398,-2.069c0.157,-0.7456 0.305,-1.4397 0.443,-2.0822c0.134,-0.6574 0.256,-1.214 0.368,-1.6696c0.111,-0.4556 0.192,-0.7072 0.243,-0.7547c0.377,0.1182 0.602,0.3048 0.676,0.5598c0.085,0.2357 0.122,0.5016 0.111,0.7978c-0.016,0.2813 -0.044,0.5744 -0.086,0.8794c-0.026,0.3006 0.038,0.575 0.192,0.8232c0.191,-0.235 0.456,-0.5562 0.793,-0.9637c0.347,-0.4268 0.723,-0.8699 1.126,-1.3292c0.418,-0.4637 0.854,-0.9243 1.306,-1.3817c0.468,-0.4618 0.917,-0.8452 1.349,-1.1501c0.428,-0.32 0.827,-0.5421 1.198,-0.6664c0.385,-0.1287 0.703,-0.0993 0.953,0.0882c0.25,0.1876 0.418,0.5698 0.505,1.1467c0.098,0.5575 0.082,1.3678 -0.048,2.4309c-0.014,0.1181 -0.053,0.4059 -0.114,0.8634c-0.052,0.4381 -0.115,0.9203 -0.189,1.4465c-0.064,0.5069 -0.127,0.9891 -0.189,1.4466c-0.051,0.4381 -0.084,0.7162 -0.098,0.8343c0.002,0.0644 0.012,0.1835 0.031,0.3572c0.028,0.1544 0.056,0.3335 0.083,0.5372c0.022,0.1888 0.03,0.3819 0.022,0.5794c-0.012,0.1825 -0.049,0.3319 -0.113,0.4481c-0.064,0.1163 -0.171,0.1394 -0.322,0.0694c-0.155,-0.0851 -0.244,-0.1404 -0.268,-0.166zm5.963,-1.7383c-0.704,-0.0713 -1.213,-0.338 -1.527,-0.7999c-0.299,-0.4663 -0.455,-1.031 -0.47,-1.6941c-0.018,-0.6781 0.079,-1.4062 0.291,-2.1843c0.209,-0.7931 0.479,-1.5393 0.812,-2.2387c0.334,-0.6993 0.693,-1.3086 1.079,-1.828c0.396,-0.5386 0.768,-0.883 1.115,-1.0329c0.895,-0.3912 1.642,-0.5357 2.241,-0.4338c0.61,0.0826 1.081,0.328 1.411,0.7361c0.331,0.4082 0.543,0.9404 0.637,1.5967c0.089,0.6413 0.068,1.3228 -0.064,2.0447c-0.116,0.7175 -0.336,1.4409 -0.661,2.1702c-0.309,0.725 -0.705,1.3774 -1.187,1.9573c-0.471,0.5606 -1.017,1.0046 -1.638,1.332c-0.625,0.3124 -1.305,0.4373 -2.039,0.3747zm-0.621,-1.2104c0.259,0.4451 0.593,0.6407 1.001,0.587c0.403,-0.0687 0.824,-0.2974 1.264,-0.686c0.451,-0.4081 0.894,-0.9277 1.328,-1.5589c0.43,-0.6462 0.797,-1.3146 1.1,-2.0052c0.318,-0.6949 0.547,-1.3637 0.685,-2.0061c0.149,-0.6619 0.154,-1.2007 0.017,-1.6163c-0.123,-0.42 -0.417,-0.676 -0.883,-0.7679c-0.456,-0.1113 -1.129,0.0361 -2.02,0.4422c-0.153,0.2562 -0.353,0.575 -0.6,0.9562c-0.251,0.3662 -0.509,0.7668 -0.772,1.2017c-0.249,0.4306 -0.489,0.8912 -0.721,1.3818c-0.235,0.4756 -0.422,0.9531 -0.558,1.4324c-0.137,0.4794 -0.205,0.9466 -0.202,1.4016c0.017,0.4506 0.137,0.8631 0.361,1.2375zm16.034,-3.2828c-0.366,-0.1376 -0.683,-0.3623 -0.953,-0.6742c-0.27,-0.3119 -0.509,-0.6573 -0.717,-1.036c-0.193,-0.3832 -0.364,-0.7729 -0.512,-1.1692c-0.148,-0.3962 -0.268,-0.7519 -0.36,-1.0669c-0.039,-0.0212 -0.088,-0.0231 -0.148,-0.0056c-0.045,0.0131 -0.078,0.039 -0.099,0.0778c-0.297,0.3793 -0.563,0.8068 -0.798,1.2824c-0.236,0.4756 -0.47,0.9586 -0.701,1.4492c-0.216,0.4863 -0.433,0.9725 -0.649,1.4587c-0.206,0.4668 -0.427,0.9059 -0.666,1.3171c-0.188,0.1362 -0.399,0.2221 -0.633,0.2577c-0.238,0.0206 -0.455,0.0025 -0.65,-0.0544c-0.185,-0.0763 -0.341,-0.1935 -0.469,-0.3517c-0.117,-0.1775 -0.16,-0.409 -0.129,-0.6947c0.018,-0.9981 0.044,-2.0553 0.076,-3.1715c0.044,-1.1356 0.117,-2.2231 0.221,-3.2625c0.039,-0.3694 0.129,-0.5909 0.27,-0.6646c0.156,-0.0781 0.316,-0.0597 0.48,0.0553c0.164,0.1151 0.308,0.301 0.431,0.5579c0.12,0.2419 0.171,0.5035 0.156,0.7847c-0.01,0.1331 -0.029,0.3747 -0.058,0.7247c-0.032,0.335 -0.063,0.7022 -0.093,1.1015c-0.035,0.3844 -0.066,0.7516 -0.094,1.1016c-0.028,0.35 -0.048,0.5915 -0.058,0.7247l0.223,0.765c0.343,-0.5556 0.624,-1.0443 0.842,-1.4661c0.219,-0.4219 0.416,-0.8372 0.589,-1.2459c0.185,-0.4281 0.372,-0.8734 0.563,-1.3359c0.186,-0.4774 0.428,-1.0443 0.725,-1.7005c0.227,-0.5056 0.434,-0.8018 0.62,-0.8886c0.182,-0.1019 0.348,-0.0609 0.499,0.1228c0.162,0.1644 0.308,0.4395 0.436,0.8251c0.125,0.3706 0.245,0.7832 0.361,1.2375c0.127,0.4351 0.241,0.882 0.342,1.3407c0.097,0.4438 0.193,0.8307 0.29,1.1607c0.106,0.3106 0.212,0.5322 0.315,0.6647c0.1,0.1175 0.208,0.0697 0.325,-0.1434c0.097,-0.3375 0.239,-0.8265 0.427,-1.4671c0.187,-0.6406 0.404,-1.3468 0.651,-2.1187c0.243,-0.7868 0.523,-1.5846 0.841,-2.3933c0.328,-0.8281 0.686,-1.5833 1.073,-2.2658c0.382,-0.6974 0.8,-1.2749 1.252,-1.7323c0.449,-0.4725 0.931,-0.7433 1.448,-0.8126c0.032,0.0556 -0.009,0.2468 -0.126,0.5737c-0.101,0.3225 -0.255,0.7171 -0.46,1.184c-0.195,0.4475 -0.417,0.9434 -0.665,1.4877c-0.238,0.525 -0.48,1.0349 -0.726,1.5299c-0.231,0.4906 -0.436,0.9328 -0.614,1.3265c-0.178,0.3937 -0.298,0.6809 -0.359,0.8615c-0.028,0.0731 -0.086,0.2366 -0.175,0.4903c-0.078,0.2344 -0.173,0.5225 -0.285,0.8643c-0.101,0.3225 -0.218,0.6741 -0.352,1.0547c-0.118,0.3762 -0.233,0.7353 -0.345,1.0771c-0.112,0.3419 -0.212,0.6397 -0.301,0.8934c-0.074,0.2494 -0.124,0.4106 -0.152,0.4837c-0.078,0.2344 -0.145,0.4247 -0.2,0.571c-0.055,0.1462 -0.121,0.2549 -0.197,0.3262c-0.062,0.0668 -0.15,0.1006 -0.264,0.1012c-0.114,0.0006 -0.263,-0.0372 -0.448,-0.1135zm20.142,3.7715c-0.197,-0.1707 -0.285,-0.5029 -0.266,-0.9966c0.008,-0.4744 0.077,-0.991 0.207,-1.5497c0.119,-0.5394 0.26,-1.0606 0.423,-1.5637c0.152,-0.4837 0.269,-0.8353 0.352,-1.0546c0.072,-0.2 0.187,-0.5022 0.346,-0.9065c0.144,-0.4 0.312,-0.8559 0.504,-1.3678c0.193,-0.5118 0.394,-1.0506 0.603,-1.6162c0.225,-0.5699 0.436,-1.1033 0.632,-1.6002c0.193,-0.5118 0.369,-0.9699 0.528,-1.3743c0.158,-0.4043 0.274,-0.7065 0.346,-0.9065c0.08,-0.17 0.019,-0.38 -0.184,-0.63c-0.203,-0.2501 -0.487,-0.5254 -0.851,-0.8261c-0.354,-0.32 -0.754,-0.6591 -1.2,-1.0173c-0.436,-0.3776 -0.849,-0.7617 -1.239,-1.1524c-0.38,-0.41 -0.705,-0.8279 -0.976,-1.2536c-0.256,-0.43 -0.382,-0.865 -0.381,-1.305c0.131,-0.1681 0.332,-0.1456 0.606,0.0676c0.269,0.1981 0.577,0.4991 0.922,0.9029c0.357,0.3844 0.736,0.8192 1.137,1.3042c0.398,0.4701 0.775,0.8973 1.131,1.2817c0.352,0.3695 0.67,0.6511 0.954,0.8449c0.3,0.1894 0.525,0.1807 0.676,-0.0262c0.307,-0.3987 0.585,-0.8702 0.833,-1.4146c0.244,-0.5593 0.468,-1.1293 0.673,-1.7099c0.205,-0.5806 0.392,-1.1396 0.561,-1.6771c0.18,-0.5568 0.354,-1.0471 0.523,-1.4709c0.066,-0.1656 0.137,-0.284 0.214,-0.3552c0.088,-0.0907 0.247,-0.1291 0.479,-0.1153c0.183,0.0119 0.229,0.2832 0.14,0.8138c-0.09,0.5306 -0.267,1.2334 -0.533,2.1083c-0.266,0.875 -0.598,1.8834 -0.998,3.0252c-0.389,1.1225 -0.81,2.303 -1.262,3.5417c-0.442,1.2193 -0.892,2.4408 -1.349,3.6645c-0.442,1.2193 -0.846,2.3462 -1.212,3.3805c-0.376,1.0537 -0.688,1.9665 -0.935,2.7383c-0.257,0.7912 -0.41,1.3565 -0.457,1.6959c-0.021,0.1525 -0.042,0.305 -0.062,0.4575c-0.036,0.1568 -0.101,0.2978 -0.194,0.4228c-0.035,-0.0063 -0.081,-0.0254 -0.139,-0.0572c-0.073,-0.0276 -0.141,-0.0648 -0.204,-0.1116c-0.073,-0.0275 -0.14,-0.0647 -0.203,-0.1116c-0.073,-0.0275 -0.122,-0.0541 -0.145,-0.0797zm12.934,-13.4139c-0.704,-0.0714 -1.213,-0.338 -1.527,-0.7999c-0.298,-0.4663 -0.455,-1.031 -0.469,-1.6941c-0.019,-0.6782 0.078,-1.4063 0.291,-2.1844c0.208,-0.7931 0.479,-1.5393 0.812,-2.2386c0.333,-0.6993 0.693,-1.3087 1.078,-1.828c0.397,-0.5387 0.768,-0.883 1.115,-1.033c0.895,-0.3911 1.642,-0.5357 2.242,-0.4337c0.61,0.0826 1.08,0.3279 1.411,0.7361c0.33,0.4082 0.542,0.9404 0.636,1.5967c0.089,0.6412 0.068,1.3228 -0.063,2.0446c-0.117,0.7175 -0.337,1.4409 -0.661,2.1703c-0.31,0.7249 -0.706,1.3774 -1.188,1.9573c-0.471,0.5606 -1.017,1.0045 -1.638,1.332c-0.625,0.3124 -1.304,0.4373 -2.039,0.3747zm-0.621,-1.2104c0.26,0.445 0.594,0.6407 1.001,0.587c0.403,-0.0687 0.825,-0.2974 1.265,-0.6861c0.451,-0.408 0.893,-0.9277 1.328,-1.5589c0.43,-0.6462 0.796,-1.3145 1.1,-2.0051c0.318,-0.695 0.546,-1.3637 0.684,-2.0062c0.149,-0.6618 0.155,-1.2006 0.017,-1.6162c-0.122,-0.42 -0.416,-0.676 -0.883,-0.768c-0.455,-0.1113 -1.128,0.0361 -2.019,0.4423c-0.153,0.2562 -0.353,0.5749 -0.6,0.9561c-0.252,0.3663 -0.509,0.7668 -0.773,1.2018c-0.249,0.4306 -0.489,0.8912 -0.72,1.3818c-0.236,0.4756 -0.422,0.9531 -0.559,1.4324c-0.137,0.4794 -0.204,0.9465 -0.202,1.4015c0.018,0.4507 0.138,0.8632 0.361,1.2376zm18.195,-3.9125c-0.454,-0.047 -0.84,-0.1705 -1.158,-0.3705c-0.319,-0.2001 -0.596,-0.4529 -0.832,-0.7586c-0.235,-0.3056 -0.445,-0.635 -0.63,-0.9882c-0.188,-0.3681 -0.369,-0.7385 -0.543,-1.111c-0.161,-0.0506 -0.375,0.1093 -0.641,0.4799c-0.271,0.3556 -0.575,0.794 -0.911,1.3152c-0.336,0.5212 -0.706,1.0684 -1.108,1.6414c-0.392,0.5537 -0.8,0.998 -1.223,1.333c-0.423,0.3349 -0.855,0.5014 -1.295,0.4995c-0.425,-0.0063 -0.846,-0.3067 -1.263,-0.9011c-0.141,-0.2032 -0.212,-0.5322 -0.215,-0.9872c0.008,-0.4744 0.066,-1.0038 0.172,-1.5881c0.106,-0.5844 0.246,-1.1947 0.418,-1.8309c0.183,-0.6556 0.365,-1.2618 0.544,-1.8187c0.19,-0.5762 0.372,-1.0687 0.546,-1.4774c0.184,-0.4281 0.336,-0.7165 0.456,-0.8653c0.393,0.0645 0.617,0.2757 0.673,0.6339c0.066,0.3387 0.043,0.7606 -0.071,1.2656c-0.098,0.5006 -0.262,1.0531 -0.493,1.6574c-0.216,0.6 -0.416,1.1956 -0.602,1.7868c-0.175,0.5719 -0.295,1.1112 -0.358,1.6181c-0.064,0.5069 -0.001,0.9197 0.19,1.2385c0.369,0.0388 0.754,-0.1468 1.156,-0.5568c0.412,-0.4293 0.823,-0.9723 1.234,-1.6292c0.425,-0.6612 0.839,-1.392 1.24,-2.1926c0.412,-0.82 0.788,-1.5968 1.127,-2.3305c0.336,-0.7487 0.633,-1.4049 0.891,-1.9686c0.259,-0.5637 0.457,-0.9468 0.593,-1.1493c0.359,0.0582 0.588,0.2598 0.689,0.6048c0.096,0.33 0.118,0.7387 0.065,1.2262c-0.039,0.4832 -0.111,1.0169 -0.217,1.6013c-0.096,0.5649 -0.162,1.1212 -0.197,1.6687c-0.036,0.5475 -0.003,1.0506 0.098,1.5094c0.101,0.4587 0.335,0.8138 0.701,1.0651l1.027,0.677l2.273,-0.6625c0.105,-0.0306 0.141,0.0078 0.107,0.1153c-0.034,0.1075 -0.096,0.2312 -0.185,0.3712c-0.074,0.1356 -0.156,0.2734 -0.246,0.4134c-0.093,0.125 -0.148,0.1897 -0.163,0.1941c-0.368,0.1887 -0.681,0.288 -0.938,0.298c-0.253,0.0249 -0.557,0.0158 -0.911,-0.0273zm-124.52,69.632c-0.365,-0.138 -0.683,-0.362 -0.953,-0.674c-0.27,-0.312 -0.509,-0.658 -0.717,-1.036c-0.193,-0.384 -0.364,-0.773 -0.512,-1.169c-0.148,-0.397 -0.268,-0.752 -0.36,-1.067c-0.039,-0.022 -0.088,-0.024 -0.148,-0.006c-0.045,0.013 -0.078,0.039 -0.099,0.078c-0.297,0.379 -0.563,0.807 -0.798,1.282c-0.236,0.476 -0.47,0.959 -0.701,1.449c-0.216,0.487 -0.432,0.973 -0.649,1.459c-0.205,0.467 -0.427,0.906 -0.666,1.317c-0.188,0.136 -0.399,0.222 -0.632,0.258c-0.239,0.02 -0.455,0.002 -0.651,-0.055c-0.185,-0.076 -0.341,-0.193 -0.469,-0.351c-0.117,-0.178 -0.16,-0.409 -0.129,-0.695c0.018,-0.998 0.044,-2.055 0.076,-3.171c0.044,-1.136 0.117,-2.224 0.221,-3.263c0.039,-0.369 0.129,-0.591 0.27,-0.665c0.156,-0.078 0.316,-0.059 0.48,0.056c0.164,0.115 0.308,0.301 0.431,0.558c0.12,0.242 0.172,0.503 0.156,0.784c-0.01,0.134 -0.029,0.375 -0.057,0.725c-0.033,0.335 -0.064,0.702 -0.094,1.102c-0.035,0.384 -0.066,0.751 -0.094,1.101c-0.028,0.35 -0.047,0.592 -0.058,0.725l0.224,0.765c0.342,-0.556 0.623,-1.044 0.842,-1.466c0.218,-0.422 0.415,-0.837 0.588,-1.246c0.185,-0.428 0.372,-0.873 0.563,-1.336c0.186,-0.477 0.428,-1.044 0.725,-1.701c0.227,-0.505 0.434,-0.801 0.62,-0.888c0.182,-0.102 0.348,-0.061 0.5,0.123c0.161,0.164 0.307,0.439 0.435,0.825c0.125,0.37 0.245,0.783 0.361,1.237c0.127,0.435 0.241,0.882 0.342,1.341c0.097,0.444 0.194,0.831 0.29,1.161c0.107,0.31 0.212,0.532 0.316,0.664c0.099,0.118 0.207,0.07 0.324,-0.143c0.097,-0.337 0.239,-0.827 0.427,-1.467c0.187,-0.641 0.405,-1.347 0.652,-2.119c0.242,-0.787 0.522,-1.584 0.84,-2.393c0.328,-0.828 0.686,-1.583 1.073,-2.266c0.382,-0.697 0.8,-1.275 1.252,-1.732c0.449,-0.473 0.931,-0.744 1.448,-0.813c0.033,0.056 -0.009,0.247 -0.126,0.574c-0.101,0.322 -0.254,0.717 -0.46,1.184c-0.195,0.447 -0.417,0.943 -0.665,1.488c-0.238,0.525 -0.48,1.035 -0.726,1.529c-0.231,0.491 -0.436,0.933 -0.614,1.327c-0.178,0.394 -0.298,0.681 -0.359,0.861c-0.028,0.074 -0.086,0.237 -0.175,0.491c-0.078,0.234 -0.173,0.522 -0.285,0.864c-0.101,0.323 -0.218,0.674 -0.352,1.055c-0.118,0.376 -0.233,0.735 -0.345,1.077c-0.112,0.342 -0.212,0.64 -0.301,0.893c-0.074,0.25 -0.124,0.411 -0.152,0.484c-0.078,0.234 -0.144,0.425 -0.199,0.571c-0.055,0.146 -0.121,0.255 -0.198,0.326c-0.062,0.067 -0.15,0.101 -0.264,0.101c-0.114,0.001 -0.263,-0.037 -0.448,-0.113zm10.474,-3.347c-0.447,-0.195 -0.779,-0.578 -0.994,-1.15c-0.201,-0.576 -0.311,-1.26 -0.33,-2.052c-0.004,-0.796 0.073,-1.649 0.231,-2.558c0.169,-0.928 0.411,-1.828 0.726,-2.701c0.311,-0.889 0.691,-1.707 1.139,-2.457c0.445,-0.764 0.935,-1.371 1.472,-1.82c0.532,-0.464 1.103,-0.737 1.714,-0.817c0.607,-0.096 1.238,0.086 1.893,0.547c0.409,0.287 0.701,0.617 0.875,0.99c0.169,0.357 0.275,0.749 0.318,1.176c0.039,0.412 0.037,0.852 -0.006,1.32c-0.046,0.453 -0.091,0.914 -0.134,1.382c-0.027,0.464 -0.03,0.929 -0.008,1.394c0.036,0.461 0.15,0.908 0.342,1.341c0.241,0.548 0.594,0.811 1.06,0.789c0.465,-0.021 0.974,-0.202 1.526,-0.542c0.567,-0.344 1.136,-0.795 1.706,-1.352c0.57,-0.557 1.087,-1.098 1.552,-1.624c0.48,-0.531 0.869,-0.986 1.165,-1.365c0.311,-0.384 0.467,-0.576 0.467,-0.576c0.394,-0.212 0.635,-0.25 0.724,-0.113c0.099,0.117 0.078,0.352 -0.064,0.702c-0.131,0.331 -0.362,0.74 -0.692,1.227c-0.335,0.472 -0.731,0.954 -1.19,1.446c-0.459,0.491 -0.964,0.964 -1.515,1.418c-0.552,0.454 -1.112,0.82 -1.681,1.1c-0.574,0.265 -1.146,0.424 -1.717,0.476c-0.56,0.033 -1.074,-0.11 -1.541,-0.429c-0.218,-0.132 -0.398,-0.275 -0.54,-0.429c-0.128,-0.158 -0.301,-0.278 -0.52,-0.361c-0.164,0.276 -0.353,0.632 -0.568,1.069c-0.219,0.422 -0.465,0.86 -0.74,1.314c-0.263,0.435 -0.562,0.864 -0.894,1.286c-0.318,0.418 -0.672,0.766 -1.063,1.043c-0.392,0.276 -0.819,0.458 -1.282,0.544c-0.448,0.082 -0.925,0.009 -1.431,-0.218zm0.025,-0.837c0.275,0.441 0.64,0.579 1.097,0.413c0.452,-0.181 0.924,-0.571 1.416,-1.17c0.493,-0.599 0.964,-1.355 1.414,-2.267c0.446,-0.928 0.803,-1.911 1.07,-2.949c0.262,-1.053 0.384,-2.114 0.366,-3.183c-0.004,-1.073 -0.213,-2.07 -0.628,-2.99c-0.443,-0.18 -0.895,-0.057 -1.357,0.371c-0.465,0.412 -0.918,1.008 -1.358,1.787c-0.43,0.76 -0.824,1.64 -1.184,2.64c-0.349,0.981 -0.626,1.957 -0.831,2.928c-0.209,0.956 -0.327,1.837 -0.353,2.642c-0.01,0.8 0.105,1.393 0.348,1.778zm23.342,-5.682c-0.189,-0.481 -0.293,-0.98 -0.313,-1.495c-0.01,-0.534 0.023,-1.065 0.097,-1.591c0.085,-0.545 0.18,-1.086 0.285,-1.621c0.115,-0.554 0.197,-1.083 0.245,-1.585c0.045,-0.518 0.041,-1.005 -0.011,-1.462c-0.056,-0.471 -0.215,-0.905 -0.477,-1.301c-0.414,-0.026 -0.84,0.131 -1.278,0.471c-0.424,0.335 -0.846,0.783 -1.268,1.346c-0.426,0.547 -0.853,1.176 -1.281,1.887c-0.417,0.691 -0.822,1.395 -1.215,2.112c-0.383,0.697 -0.75,1.366 -1.1,2.005c-0.351,0.639 -0.681,1.183 -0.99,1.631c-0.298,0.429 -0.569,0.727 -0.812,0.896c-0.249,0.154 -0.457,0.109 -0.626,-0.135c-0.019,-0.011 0.009,-0.222 0.084,-0.635c0.085,-0.432 0.182,-0.964 0.291,-1.598c0.123,-0.638 0.255,-1.328 0.397,-2.069c0.157,-0.746 0.305,-1.44 0.443,-2.082c0.134,-0.658 0.257,-1.214 0.368,-1.67c0.111,-0.455 0.192,-0.707 0.244,-0.754c0.376,0.118 0.601,0.304 0.676,0.559c0.085,0.236 0.121,0.502 0.11,0.798c-0.016,0.281 -0.044,0.574 -0.085,0.879c-0.027,0.301 0.037,0.575 0.191,0.824c0.192,-0.235 0.456,-0.557 0.793,-0.964c0.348,-0.427 0.723,-0.87 1.126,-1.329c0.418,-0.464 0.854,-0.924 1.306,-1.382c0.468,-0.462 0.918,-0.845 1.35,-1.15c0.427,-0.32 0.826,-0.542 1.197,-0.666c0.385,-0.129 0.703,-0.1 0.953,0.088c0.25,0.187 0.419,0.57 0.505,1.146c0.098,0.558 0.082,1.368 -0.048,2.431c-0.014,0.118 -0.052,0.406 -0.114,0.864c-0.052,0.438 -0.114,0.92 -0.189,1.446c-0.064,0.507 -0.127,0.989 -0.188,1.447c-0.052,0.438 -0.085,0.716 -0.099,0.834c0.002,0.065 0.013,0.184 0.031,0.357c0.029,0.155 0.056,0.334 0.083,0.538c0.023,0.188 0.03,0.381 0.023,0.579c-0.012,0.182 -0.05,0.332 -0.114,0.448c-0.064,0.116 -0.171,0.139 -0.321,0.069c-0.155,-0.085 -0.245,-0.14 -0.269,-0.166zm6.233,-1.817c-0.024,-0.025 -0.055,-0.105 -0.094,-0.24c-0.04,-0.135 -0.059,-0.228 -0.057,-0.277c-0.003,-0.178 -0.003,-0.487 -0.001,-0.927c-0.003,-0.455 -0.002,-0.927 0.002,-1.417c-0.001,-0.504 0,-0.976 0.002,-1.416c0.002,-0.44 0.001,-0.749 -0.002,-0.928c-0.001,-0.227 -0.004,-0.487 -0.007,-0.779c-0.009,-0.306 -0.072,-0.581 -0.192,-0.823c-0.233,0.036 -0.502,0.147 -0.806,0.333c-0.308,0.171 -0.618,0.335 -0.931,0.491c-0.302,0.137 -0.602,0.224 -0.9,0.262c-0.287,0.019 -0.535,-0.104 -0.742,-0.369c0.07,-0.428 0.27,-0.746 0.6,-0.956c0.325,-0.225 0.691,-0.421 1.098,-0.589c0.407,-0.167 0.784,-0.351 1.133,-0.55c0.364,-0.204 0.612,-0.496 0.746,-0.876c0.021,-0.43 0.041,-0.948 0.059,-1.556c0.029,-0.627 0.059,-1.278 0.089,-1.954c0.031,-0.677 0.079,-1.35 0.144,-2.02c0.08,-0.674 0.187,-1.283 0.322,-1.827c0.134,-0.153 0.267,-0.2 0.398,-0.14c0.131,0.059 0.246,0.172 0.343,0.339c0.108,0.147 0.196,0.309 0.264,0.485c0.067,0.175 0.102,0.295 0.105,0.36c0.023,0.416 -0.012,0.882 -0.106,1.397c-0.083,0.497 -0.156,0.998 -0.22,1.505c-0.049,0.503 -0.068,0.996 -0.057,1.481c0.027,0.481 0.151,0.909 0.374,1.283l4.838,-1.41c0.015,-0.005 0.068,0.037 0.158,0.124c0.087,0.073 0.161,0.133 0.224,0.179c0.136,0.189 0.095,0.355 -0.123,0.5c-0.218,0.145 -0.526,0.292 -0.922,0.44c-0.401,0.133 -0.861,0.283 -1.382,0.451c-0.51,0.149 -0.994,0.331 -1.452,0.546c-0.448,0.195 -0.835,0.43 -1.162,0.705c-0.331,0.259 -0.518,0.566 -0.562,0.92c-0.097,1.119 -0.161,2.236 -0.194,3.353c-0.037,1.101 -0.055,2.213 -0.053,3.335c-0.017,0.054 -0.055,0.147 -0.114,0.278c-0.064,0.116 -0.138,0.227 -0.221,0.333c-0.087,0.09 -0.186,0.143 -0.295,0.159c-0.094,0.011 -0.196,-0.057 -0.304,-0.205zm21.781,-6.349c-0.024,-0.026 -0.055,-0.106 -0.095,-0.241c-0.039,-0.135 -0.058,-0.227 -0.056,-0.277c-0.003,-0.178 -0.003,-0.487 -0.002,-0.927c-0.002,-0.455 -0.001,-0.927 0.003,-1.416c-0.001,-0.505 0,-0.977 0.002,-1.417c0.002,-0.44 0.001,-0.749 -0.002,-0.927c-0.001,-0.228 -0.004,-0.487 -0.008,-0.779c-0.008,-0.307 -0.071,-0.581 -0.191,-0.823c-0.233,0.035 -0.502,0.146 -0.806,0.332c-0.308,0.172 -0.618,0.335 -0.931,0.492c-0.302,0.136 -0.602,0.224 -0.9,0.262c-0.288,0.019 -0.535,-0.105 -0.742,-0.37c0.07,-0.427 0.27,-0.746 0.6,-0.956c0.325,-0.225 0.691,-0.421 1.098,-0.588c0.406,-0.168 0.784,-0.351 1.133,-0.551c0.364,-0.203 0.612,-0.495 0.745,-0.876c0.022,-0.429 0.042,-0.948 0.06,-1.555c0.029,-0.627 0.058,-1.279 0.089,-1.955c0.031,-0.676 0.079,-1.349 0.144,-2.019c0.08,-0.675 0.187,-1.284 0.322,-1.827c0.134,-0.154 0.267,-0.2 0.398,-0.141c0.131,0.059 0.246,0.173 0.343,0.339c0.108,0.148 0.196,0.309 0.264,0.485c0.067,0.176 0.102,0.296 0.104,0.36c0.024,0.416 -0.011,0.882 -0.105,1.398c-0.083,0.496 -0.156,0.998 -0.22,1.505c-0.049,0.502 -0.068,0.996 -0.057,1.481c0.026,0.48 0.151,0.908 0.374,1.282l4.838,-1.41c0.015,-0.004 0.068,0.037 0.158,0.125c0.087,0.072 0.161,0.132 0.223,0.179c0.137,0.188 0.096,0.355 -0.122,0.5c-0.219,0.145 -0.526,0.291 -0.922,0.439c-0.401,0.133 -0.861,0.284 -1.382,0.452c-0.51,0.149 -0.994,0.33 -1.452,0.545c-0.448,0.196 -0.835,0.431 -1.162,0.705c-0.331,0.259 -0.518,0.566 -0.562,0.921c-0.097,1.118 -0.162,2.236 -0.194,3.352c-0.037,1.101 -0.055,2.213 -0.053,3.336c-0.017,0.053 -0.055,0.146 -0.115,0.277c-0.063,0.116 -0.137,0.227 -0.22,0.333c-0.087,0.091 -0.186,0.144 -0.295,0.159c-0.095,0.012 -0.196,-0.057 -0.304,-0.204zm9.405,-2.742c-0.704,-0.071 -1.213,-0.338 -1.527,-0.8c-0.298,-0.466 -0.455,-1.031 -0.469,-1.694c-0.019,-0.678 0.078,-1.406 0.291,-2.184c0.208,-0.793 0.479,-1.54 0.812,-2.239c0.333,-0.699 0.693,-1.309 1.078,-1.828c0.397,-0.539 0.768,-0.883 1.115,-1.033c0.895,-0.391 1.642,-0.536 2.242,-0.434c0.61,0.083 1.08,0.328 1.411,0.736c0.33,0.409 0.542,0.941 0.636,1.597c0.089,0.641 0.068,1.323 -0.063,2.045c-0.116,0.717 -0.337,1.441 -0.661,2.17c-0.31,0.725 -0.706,1.377 -1.187,1.957c-0.472,0.561 -1.018,1.005 -1.638,1.332c-0.625,0.313 -1.305,0.438 -2.04,0.375zm-0.621,-1.21c0.26,0.445 0.594,0.64 1.001,0.587c0.403,-0.069 0.825,-0.298 1.265,-0.686c0.451,-0.408 0.893,-0.928 1.328,-1.559c0.43,-0.646 0.796,-1.315 1.1,-2.005c0.318,-0.695 0.546,-1.364 0.684,-2.007c0.149,-0.661 0.155,-1.2 0.017,-1.616c-0.122,-0.42 -0.416,-0.676 -0.883,-0.768c-0.455,-0.111 -1.128,0.036 -2.019,0.442c-0.153,0.257 -0.353,0.575 -0.6,0.957c-0.251,0.366 -0.509,0.766 -0.773,1.201c-0.249,0.431 -0.489,0.892 -0.72,1.382c-0.236,0.476 -0.422,0.953 -0.559,1.433c-0.137,0.479 -0.204,0.946 -0.202,1.401c0.018,0.451 0.138,0.863 0.361,1.238zm8.688,-1.434c-0.172,-0.145 -0.244,-0.336 -0.216,-0.572c0.044,-0.241 0.136,-0.455 0.277,-0.643c0.136,-0.202 0.295,-0.329 0.475,-0.382c0.175,-0.067 0.326,0.003 0.451,0.21c0.126,0.208 0.194,0.44 0.204,0.698c0.025,0.253 -0.008,0.474 -0.1,0.663c-0.076,0.185 -0.206,0.297 -0.391,0.334c-0.184,0.038 -0.417,-0.065 -0.7,-0.308zm-0.567,-6.72c-0.056,-0.081 -0.107,-0.31 -0.152,-0.688c-0.045,-0.377 -0.082,-0.839 -0.11,-1.384c-0.033,-0.56 -0.052,-1.181 -0.055,-1.863c-0.004,-0.683 0.007,-1.37 0.034,-2.061c0.026,-0.691 0.066,-1.362 0.121,-2.013c0.054,-0.65 0.123,-1.224 0.206,-1.72c0.098,-0.501 0.212,-0.892 0.342,-1.174c0.144,-0.286 0.31,-0.416 0.497,-0.389c0.036,0.071 0.081,0.335 0.133,0.792c0.062,0.437 0.118,0.991 0.166,1.66c0.045,0.654 0.079,1.385 0.102,2.192c0.039,0.802 0.058,1.594 0.058,2.375c0.015,0.777 0.002,1.514 -0.04,2.209c-0.045,0.681 -0.119,1.239 -0.219,1.675c-0.101,0.437 -0.242,0.706 -0.424,0.808c-0.182,0.101 -0.402,-0.038 -0.659,-0.419z"/>
 </g>
</svg>